<?xml version="1.0" standalone="no"?>
<!DOCTYPE svg PUBLIC "-//W3C//DTD SVG 1.1//EN" "http://www.w3.org/Graphics/SVG/1.1/DTD/svg11.dtd" >
<svg xmlns="http://www.w3.org/2000/svg" xmlns:xlink="http://www.w3.org/1999/xlink" version="1.1">
<metadata>
Created by FontForge 20170731 at Tue Oct 25 21:18:03 2016
 By Aleksey,,,
Copyright (c) 2006 by Zakhar Yashchin. All rights reserved.
</metadata>
<defs>
<font id="ALSEkibastuz-ExtraBlack" horiz-adv-x="660" >
  <font-face 
    font-family="ALS Ekibastuz"
    font-weight="1000"
    font-stretch="normal"
    units-per-em="1000"
    panose-1="2 0 5 3 0 0 0 2 0 4"
    ascent="800"
    descent="-200"
    x-height="500"
    cap-height="700"
    bbox="-362 -250 1475 940"
    underline-thickness="50"
    underline-position="-200"
    unicode-range="U+000D-F6D0"
  />
<missing-glyph horiz-adv-x="300" 
 />
    <glyph glyph-name=".notdef" horiz-adv-x="300" 
 />
    <glyph glyph-name=".null" horiz-adv-x="0" 
 />
    <glyph glyph-name="nonmarkingreturn" horiz-adv-x="333" 
 />
    <glyph glyph-name="CR" unicode="&#xd;" horiz-adv-x="0" 
 />
    <glyph glyph-name="space" unicode=" " horiz-adv-x="300" 
 />
    <glyph glyph-name="exclam" unicode="!" horiz-adv-x="447" 
d="M68 700h280l-40 -440h-200zM78 204h260v-204h-260v204z" />
    <glyph glyph-name="quotedbl" unicode="&#x22;" horiz-adv-x="644" 
d="M339 700h210l-10 -230h-190zM80 700h210l-10 -230h-190z" />
    <glyph glyph-name="numbersign" unicode="#" horiz-adv-x="988" 
d="M78 390v220h155l17 90h265l-18 -90h54l17 90h265l-18 -90h53v-220h-96l-15 -80h111v-220h-154l-18 -90h-264l17 90h-53l-18 -90h-264l17 90h-53v220h96l16 80h-112zM454 390l-15 -80h53l16 80h-54z" />
    <glyph glyph-name="dollar" unicode="$" 
d="M445 -100h-220v95q-104 8 -192 37l25 180q178 -35 267 -35q50 0 50 19q0 30 -50 43q-27 7 -67 17t-61.5 15t-50.5 14.5t-43.5 19.5t-32.5 26.5t-26 37.5t-13.5 50.5t-5.5 68.5q0 98 50.5 149.5t149.5 65.5v97h220v-95q95 -6 162 -18l-25 -180q-56 11 -132.5 18t-107.5 7
q-57 0 -57 -23q0 -22 40 -33q20 -5 53.5 -13t50.5 -12t44.5 -12t41.5 -14.5t34.5 -17.5t30.5 -22.5t22.5 -28.5t18.5 -37t10 -45.5t4 -56.5q0 -184 -190 -217v-100z" />
    <glyph glyph-name="percent" unicode="%" horiz-adv-x="1193" 
d="M839 700l-309 -700h-219l308 700h220zM268 710q190 0 190 -182v-55q0 -177 -190 -177t-190 177v55q0 94 50.5 138t139.5 44zM887 -10q-190 0 -190 177v55q0 94 50.5 138t139.5 44q190 0 190 -182v-55q0 -177 -190 -177zM887 289q-6 0 -11.5 -1.5t-9 -4.5t-6 -6t-4 -9
t-2.5 -9t-1.5 -11t-0.5 -11v-11.5v-10.5v-52q0 -31 6.5 -44.5t28.5 -13.5q21 0 27.5 13.5t6.5 44.5v69q0 57 -34 57zM233 538v-52q0 -53 8 -64t27 -11q21 0 27.5 13.5t6.5 44.5v52q0 51 -10 64q-9 10 -24 10q-35 0 -35 -57z" />
    <glyph glyph-name="ampersand" unicode="&#x26;" horiz-adv-x="981" 
d="M692 657l-45 -189q-66 33 -110 33q-59 0 -59 -40q0 -26 21 -53l117 -129q13 22 13 68h225q0 -58 -38 -123t-67 -89l126 -135h-264l-31 31q-68 -41 -197 -41q-305 0 -305 209q0 92 43.5 137.5t116.5 64.5q-41 48 -41 129q0 84 75.5 132t187.5 48q123 0 232 -53zM394 151
q38 0 67 11l-97 106q-27 -27 -27 -60q0 -25 16 -41t41 -16z" />
    <glyph glyph-name="quotesingle" unicode="'" horiz-adv-x="386" 
d="M80 700h210l-10 -230h-190z" />
    <glyph glyph-name="parenleft" unicode="(" horiz-adv-x="561" 
d="M78 325q0 227 146 485l239 -40q-67 -115 -96 -213.5t-29 -231.5t29 -230.5t96 -212.5l-239 -40q-146 246 -146 483z" />
    <glyph glyph-name="parenright" unicode=")" horiz-adv-x="561" 
d="M463 327q0 -227 -146 -485l-239 40q67 115 96 213.5t29 231.5t-29 230.5t-96 212.5l239 40q146 -246 146 -483z" />
    <glyph glyph-name="asterisk" unicode="*" horiz-adv-x="832" 
d="M80 515l86 180l151 -87l-10 132h200l-10 -132l151 87l86 -180l-125 -45l125 -45l-86 -180l-151 87l10 -132h-200l10 132l-151 -87l-86 180l124 45z" />
    <glyph glyph-name="plus" unicode="+" 
d="M220 585h220v-140h140v-190h-140v-140h-220v140h-140v190h140v140z" />
    <glyph glyph-name="comma" unicode="," horiz-adv-x="334" 
d="M30 204h260v-124q0 -64 -46.5 -133t-103.5 -101l-81 47q51 45 51 107h-80v204z" />
    <glyph glyph-name="hyphen" unicode="-" horiz-adv-x="440" 
d="M60 160v190h300v-190h-300z" />
    <glyph glyph-name="period" unicode="." horiz-adv-x="336" 
d="M32 204h260v-204h-260v204z" />
    <glyph glyph-name="slash" unicode="/" horiz-adv-x="492" 
d="M520 790l-349 -928h-219l348 928h220z" />
    <glyph glyph-name="zero" unicode="0" 
d="M0 297v96q0 164 88 240.5t242 76.5q155 0 242.5 -76.5t87.5 -240.5v-96q0 -307 -330 -307t-330 307zM330 510q-36 0 -48 -27t-12 -73v-120q0 -53 11 -76.5t49 -23.5t49 23.5t11 76.5v120q0 22 -2 37.5t-7.5 31t-18.5 23.5t-32 8z" />
    <glyph glyph-name="one" unicode="1" 
d="M57 458l274 242h226v-700h-260v386l-182 -128z" />
    <glyph glyph-name="two" unicode="2" 
d="M315 710q51 0 92.5 -5t81.5 -19.5t67.5 -37.5t44 -61t16.5 -88q0 -47 -13 -84.5t-31.5 -61t-50.5 -42.5t-57.5 -29t-64.5 -22q-8 -2 -24.5 -7t-23.5 -7t-18 -7.5t-16 -12t-9 -16.5t-4 -24h320v-186h-590v54q0 107 15 167.5t47 94t95 59.5q12 5 38.5 14.5t45 17t38.5 17
t30.5 19.5t10.5 21q0 17 -12 22.5t-45 5.5q-60 0 -230 -25l-25 210q155 33 272 33z" />
    <glyph glyph-name="three" unicode="3" 
d="M40 22l30 197q95 -17 197 -17q68 0 81 7q12 9 12 27q0 24 -21.5 31t-74.5 7h-110l-26 160h136q44 0 56.5 7t12.5 26q0 20 -13.5 25t-55.5 5q-116 0 -187 -13l-37 198q28 9 96 18.5t120 9.5q172 0 249.5 -37.5t77.5 -137.5q0 -69 -24 -100.5t-68 -47.5q64 -18 96.5 -58
t32.5 -122q0 -56 -18 -96t-47.5 -63t-79.5 -36.5t-102 -17.5t-126 -4q-48 0 -116 11t-91 21z" />
    <glyph glyph-name="four" unicode="4" 
d="M262 700h298v-350h90l-30 -210h-60v-140h-260v140h-290v185zM300 478l-78 -127h78v127z" />
    <glyph glyph-name="five" unicode="5" 
d="M30 22l30 177q95 -17 235 -17q37 0 51 10t14 41q0 41 -75 41q-64 0 -213 -7l31 433h502l-13 -208h-274l-6 -66q35 7 128 7q98 0 144 -41.5t46 -154.5q0 -64 -18 -110.5t-46 -72.5t-71.5 -40.5t-84 -19t-94.5 -4.5q-88 0 -170 10t-116 22z" />
    <glyph glyph-name="six" unicode="6" 
d="M30 296v107q0 146 88.5 226t229.5 80q125 0 273 -40l-40 -186q-75 25 -201 25q-51 0 -70 -19t-19 -59v-21q12 5 45 12q46 10 88 10q102 0 154 -48.5t52 -167.5q0 -115 -67 -170t-215 -55q-158 0 -238 69.5t-80 236.5zM291 271v-29q0 -41 7 -56.5t34 -15.5q37 0 37 44
q0 59 -32 63q-8 2 -46 -6z" />
    <glyph glyph-name="seven" unicode="7" 
d="M431 0h-310q0 308 200 470h-290v230h597v-166q-29 -23 -60 -65.5t-63.5 -107.5t-53 -160t-20.5 -201z" />
    <glyph glyph-name="eight" unicode="8" 
d="M145 379q-53 18 -84 54t-31 109q0 87 80.5 127.5t219.5 40.5t219.5 -40.5t80.5 -127.5q0 -73 -31 -109t-84 -54q145 -48 145 -192q0 -197 -330 -197t-330 197q0 144 145 192zM320 268q-3 -2 -11.5 -7.5t-12 -7.5t-10 -7.5t-9 -10t-5 -11t-2.5 -13.5q0 -23 18.5 -38.5
t41.5 -15.5t41.5 15.5t18.5 38.5q0 34 -70 57zM330 560q-28 0 -44 -10t-16 -27q0 -45 80 -69q1 1 7 8l9 10.5t8.5 11t8 13t5 12.5t2.5 14q0 37 -60 37z" />
    <glyph glyph-name="nine" unicode="9" 
d="M630 403v-107q0 -146 -88.5 -226t-229.5 -80q-125 0 -273 40l40 186q75 -25 201 -25q51 0 70 19t19 59v21q-61 -22 -133 -22q-102 0 -154 48.5t-52 167.5q0 115 67 170t215 55q158 0 238 -69.5t80 -236.5zM369 428v43q0 31 -8.5 44.5t-32.5 13.5q-37 0 -37 -44
q0 -59 32 -63q8 -2 46 6z" />
    <glyph glyph-name="colon" unicode=":" horiz-adv-x="437" 
d="M78 508h260v-204h-260v204zM78 204h260v-204h-260v204z" />
    <glyph glyph-name="semicolon" unicode=";" horiz-adv-x="434" 
d="M78 508h260v-204h-260v204zM78 204h260v-124q0 -64 -46.5 -133t-103.5 -101l-81 47q51 45 51 107h-80v204z" />
    <glyph glyph-name="less" unicode="&#x3c;" 
d="M95 290v115l470 250v-191l-240 -117l240 -117v-191z" />
    <glyph glyph-name="equal" unicode="=" 
d="M80 370v170h500v-170h-500zM80 160v170h500v-170h-500z" />
    <glyph glyph-name="greater" unicode="&#x3e;" 
d="M565 405v-115l-470 -251v191l239 117l-239 117v191z" />
    <glyph glyph-name="question" unicode="?" horiz-adv-x="562" 
d="M54 523l-24 168q91 19 172 19q52 0 90.5 -2.5t78.5 -10.5t67 -22.5t49.5 -37.5t33.5 -57.5t11 -80.5q0 -25 -5.5 -46.5t-12.5 -36.5t-21.5 -29t-25 -21.5t-31 -16.5t-31 -13t-33 -11t-30.5 -10q-30 -11 -30 -42v-18h-220v61q0 87 98 120q27 9 38.5 13t27.5 18t16 32
q0 27 -14.5 34.5t-55.5 7.5q-85 0 -148 -18zM72 204h260v-204h-260v204z" />
    <glyph glyph-name="at" unicode="@" horiz-adv-x="1248" 
d="M615 750q97 0 171 -8.5t146 -34t118.5 -68t74.5 -114.5t28 -170q0 -92 -27.5 -155.5t-78 -97.5t-110.5 -48t-137 -14h-142v32q-11 -16 -44.5 -29t-65.5 -13q-73 0 -123.5 58.5t-50.5 183.5q0 133 70.5 194t183.5 61q90 0 213 -20v-331q42 4 63.5 40.5t21.5 138.5
q0 55 -6 93t-22.5 65t-37 42t-59.5 23.5t-79.5 11t-106.5 2.5q-65 0 -118 -15.5t-98 -50.5t-69.5 -99t-24.5 -153q0 -79 17.5 -137t45 -90.5t70 -51.5t83 -24.5t94.5 -5.5q258 0 446 56l28 -146q-200 -77 -474 -77q-101 0 -179.5 13t-147.5 46t-114 86.5t-70.5 136.5
t-25.5 194q0 130 38 223.5t111 148t168 79.5t220 25zM614 183q12 0 20 6v193q-15 3 -22 3q-23 0 -35.5 -21t-13.5 -81q0 -100 51 -100z" />
    <glyph glyph-name="A" unicode="A" horiz-adv-x="726" 
d="M449 0l-19 100h-156l-20 -100h-273l210 700h329l201 -700h-272zM358 457l-50 -187h89z" />
    <glyph glyph-name="B" unicode="B" horiz-adv-x="686" 
d="M60 0v700h360q46 0 78.5 -7t62 -25.5t44.5 -55.5t15 -92q0 -106 -83 -136q16 -4 27.5 -9t27 -17t25 -29.5t16.5 -48t7 -70.5q0 -115 -46.5 -162.5t-153.5 -47.5h-380zM310 270v-100h60q14 0 22 16t8 34t-8 34t-22 16h-60zM350 530h-40v-90h40q14 0 22 16t8 34q0 16 -8 28
t-22 12z" />
    <glyph glyph-name="C" unicode="C" horiz-adv-x="571" 
d="M519 240l32 -220q-116 -30 -186 -30q-53 0 -99.5 9t-90.5 30.5t-76 54.5t-51 85t-19 118v126q0 81 28.5 141t78 92.5t106.5 48t123 15.5q31 0 77.5 -7.5t77.5 -14.5l31 -8l-42 -220q-108 20 -144 20q-34 0 -55 -20t-21 -50v-120q0 -70 76 -70q16 0 54.5 5t68.5 10z" />
    <glyph glyph-name="D" unicode="D" horiz-adv-x="752" 
d="M60 0v700h280q208 0 289 -74.5t81 -275.5q0 -200 -82 -275t-288 -75h-280zM340 501h-20v-303h20q67 0 88.5 30.5t21.5 121.5q0 98 -20.5 124.5t-89.5 26.5z" />
    <glyph glyph-name="E" unicode="E" horiz-adv-x="614" 
d="M320 260v-62h250v-198h-510v700h510v-198h-250v-62h190v-180h-190z" />
    <glyph glyph-name="F" unicode="F" horiz-adv-x="612" 
d="M320 211v-211h-260v700h510v-220h-250v-69h190v-200h-190z" />
    <glyph glyph-name="G" unicode="G" horiz-adv-x="709" 
d="M649 38q-110 -48 -260 -48q-360 0 -360 284v146q0 81 29 139.5t80.5 90.5t113 46t137.5 14q120 0 243 -32l-42 -199q-96 25 -167 25q-70 0 -102 -23t-32 -71v-136q0 -94 100 -94q34 0 70 6v71l-100 6v149h290v-374z" />
    <glyph glyph-name="H" unicode="H" horiz-adv-x="830" 
d="M490 700h260v-700h-260v260h-170v-260h-260v700h260v-240h170v240z" />
    <glyph glyph-name="I" unicode="I" horiz-adv-x="510" 
d="M30 500v200h430v-200h-85v-300h95v-200h-450v200h95v300h-85z" />
    <glyph glyph-name="J" unicode="J" horiz-adv-x="524" 
d="M166 -10q-96 0 -192 29l27 204q66 -23 105 -23t59.5 10t20.5 42v448h260v-474q0 -72 -19.5 -120t-59 -72.5t-86.5 -34t-115 -9.5z" />
    <glyph glyph-name="K" unicode="K" horiz-adv-x="739" 
d="M320 700v-292h16l87 292h293l-136 -323l145 -377h-285l-102 320h-18v-320h-260v700h260z" />
    <glyph glyph-name="L" unicode="L" horiz-adv-x="592" 
d="M60 0v700h260v-470h270v-230h-530z" />
    <glyph glyph-name="M" unicode="M" horiz-adv-x="1034" 
d="M310 390l-20 -390h-250l56 700h301l115 -410l114 410h301l56 -700h-250l-19 390l-102 -390h-200z" />
    <glyph glyph-name="N" unicode="N" horiz-adv-x="800" 
d="M490 700h230v-700h-245l-185 298v-298h-230v700h253l177 -289v289z" />
    <glyph glyph-name="O" unicode="O" horiz-adv-x="778" 
d="M29 267v156q0 82 26 139.5t75 89t109.5 45t139.5 13.5t139.5 -13.5t109.5 -45t75 -89t26 -139.5v-156q0 -66 -17.5 -115t-47.5 -79.5t-75.5 -49.5t-95.5 -26t-114 -7t-114 7t-95.5 26t-75.5 49.5t-47.5 79.5t-17.5 115zM299 400v-100q0 -29 2 -45t9.5 -33t24 -24.5
t44.5 -7.5q52 0 66 26t14 84v100q0 29 -2 45t-9.5 33t-24 24.5t-44.5 7.5t-45 -7.5t-24 -25t-9 -33t-2 -44.5z" />
    <glyph glyph-name="P" unicode="P" horiz-adv-x="713" 
d="M60 700h290q179 0 254.5 -63.5t75.5 -213.5t-75 -212t-255 -62h-30v-149h-260v700zM320 499v-150h30q36 0 52.5 16t16.5 60t-15.5 59t-53.5 15h-30z" />
    <glyph glyph-name="Q" unicode="Q" horiz-adv-x="778" 
d="M29 267v156q0 82 26 139.5t75 89t109.5 45t139.5 13.5t139.5 -13.5t109.5 -45t75 -89t26 -139.5v-156q0 -195 -155 -250l86 -165h-234l-68 138q-76 2 -132.5 15t-102.5 43t-70 85t-24 134zM299 400v-100q0 -29 2 -45t9.5 -33t24 -24.5t44.5 -7.5q52 0 66 26t14 84v100
q0 29 -2 45t-9.5 33t-24 24.5t-44.5 7.5t-45 -7.5t-24 -25t-9 -33t-2 -44.5z" />
    <glyph glyph-name="R" unicode="R" horiz-adv-x="720" 
d="M424 0l-82 244h-22v-244h-260v700h300q182 0 256 -55t74 -196q0 -85 -31.5 -134t-75.5 -65l127 -250h-286zM320 507v-119h50q59 0 59 61q0 29 -12.5 43.5t-46.5 14.5h-50z" />
    <glyph glyph-name="S" unicode="S" horiz-adv-x="675" 
d="M326 710q149 0 282 -23l-25 -180q-56 11 -132.5 18t-107.5 7q-57 0 -57 -23q0 -22 40 -33q20 -5 53.5 -13t50.5 -12t44.5 -12t41.5 -14.5t34.5 -17.5t30.5 -22.5t22.5 -28.5t18.5 -37t10 -45.5t4 -56.5q0 -126 -80 -176t-230 -51q-152 -1 -292 42l25 180q177 -35 267 -35
q50 0 50 19q0 30 -50 43q-27 7 -67 17t-61.5 15t-50.5 14.5t-43.5 19.5t-32.5 26.5t-26 37.5t-13.5 50.5t-5.5 68.5q0 120 75.5 171t224.5 51z" />
    <glyph glyph-name="T" unicode="T" horiz-adv-x="615" 
d="M12 470v230h580v-230h-160v-470h-260v470h-160z" />
    <glyph glyph-name="U" unicode="U" horiz-adv-x="754" 
d="M442 700h240v-450q0 -58 -16.5 -103.5t-44 -74.5t-67.5 -48t-84 -26.5t-96 -7.5q-161 0 -241.5 58.5t-80.5 201.5v450h270v-460q0 -30 12.5 -40t49.5 -10t47.5 9.5t10.5 40.5v460z" />
    <glyph glyph-name="V" unicode="V" horiz-adv-x="727" 
d="M182 0l-188 700h292l69 -465h6l72 465h294l-194 -700h-351z" />
    <glyph glyph-name="W" unicode="W" horiz-adv-x="1016" 
d="M129 0l-135 700h269l32 -424l78 424h235l75 -421l33 421h300l-169 -700h-291l-66 423l-67 -423h-294z" />
    <glyph glyph-name="X" unicode="X" horiz-adv-x="753" 
d="M296 700l70 -236l69 236h311l-170 -350l170 -350h-311l-69 235l-70 -235h-310l169 350l-169 350h310z" />
    <glyph glyph-name="Y" unicode="Y" horiz-adv-x="683" 
d="M201 184l-221 516h281l65 -293l73 293h283l-221 -514v-186h-260v184z" />
    <glyph glyph-name="Z" unicode="Z" horiz-adv-x="626" 
d="M29 520v180h550v-187l-251 -333h271v-180h-580v187l260 333h-250z" />
    <glyph glyph-name="bracketleft" unicode="[" horiz-adv-x="576" 
d="M480 790v-190h-150v-558h150v-180h-410v928h410z" />
    <glyph glyph-name="backslash" unicode="\" horiz-adv-x="510" 
d="M557 -138h-219l-365 928h220z" />
    <glyph glyph-name="bracketright" unicode="]" horiz-adv-x="576" 
d="M70 600v190h410v-928h-410v180h150v558h-150z" />
    <glyph glyph-name="asciicircum" unicode="^" horiz-adv-x="799" 
d="M300 700h183l228 -440h-229l-86 215l-96 -215h-228z" />
    <glyph glyph-name="underscore" unicode="_" horiz-adv-x="464" 
d="M-18 -220v200h500v-200h-500z" />
    <glyph glyph-name="grave" unicode="`" horiz-adv-x="302" 
d="M216 740l20 -180h-122l-76 180h178z" />
    <glyph glyph-name="a" unicode="a" horiz-adv-x="607" 
d="M77 340l-15 142q37 9 115 18.5t136 9.5q41 0 80 -9t76 -30t59.5 -61.5t22.5 -95.5v-314h-240v30q-57 -40 -145 -40q-68 0 -106.5 37t-38.5 113q0 79 45.5 116t144.5 37h102v22q0 23 -11 34t-38 11q-84 0 -187 -20zM285 113q18 0 26 4v75h-26q-16 0 -25 -12t-9 -28
q0 -17 9 -28t25 -11z" />
    <glyph glyph-name="b" unicode="b" horiz-adv-x="641" 
d="M40 730h240v-260q68 40 132 40q96 0 142 -60.5t46 -199.5q0 -83 -10.5 -134t-37 -76t-57 -32.5t-83.5 -7.5q-62 0 -132 30v-30h-240v730zM296 149q64 0 64 101q0 91 -63 91h-17v-192h16z" />
    <glyph glyph-name="c" unicode="c" horiz-adv-x="483" 
d="M439 163l30 -150q-59 -22 -168 -22q-121 0 -199 54t-78 168v72q0 101 81.5 163.5t195.5 62.5q28 0 80 -6.5t88 -19.5l-30 -150q0 1 -16.5 5t-37.5 7.5t-31 3.5q-41 0 -60.5 -18t-19.5 -68v-32q0 -50 19 -67.5t61 -17.5q28 0 85 15z" />
    <glyph glyph-name="d" unicode="d" horiz-adv-x="649" 
d="M347 730h240v-730h-240v30q-1 0 -17 -12t-40.5 -20t-57.5 -8q-39 0 -72.5 11.5t-65 39t-49.5 81t-18 128.5q0 150 50 205t157 55q33 0 56.5 -7t32.5 -13t24 -20v260zM327 159h20v182h-20q-35 0 -47.5 -17.5t-12.5 -73.5q0 -51 12.5 -71t47.5 -20z" />
    <glyph glyph-name="e" unicode="e" horiz-adv-x="612" 
d="M537 145l22 -138q-115 -17 -255 -17q-41 0 -77.5 5t-75 19t-65.5 37t-44.5 61.5t-17.5 88.5v64q0 129 68.5 187t211.5 58q271 0 271 -199v-113h-311v-15q0 -15 5 -25.5t10.5 -15.5t17.5 -7.5t17.5 -2.5h19.5q118 0 203 13zM264 320v-18h92v17q0 37 -11 50t-35 13t-35 -13
t-11 -49z" />
    <glyph glyph-name="f" unicode="f" horiz-adv-x="446" 
d="M483 729l-29 -157q-45 8 -82 8q-28 0 -38 -17t-11 -50v-13h110v-170h-110v-330h-240v330h-70v170h70v16q0 121 51.5 177.5t154.5 56.5q122 0 194 -21z" />
    <glyph glyph-name="g" unicode="g" horiz-adv-x="645" 
d="M315 510q26 0 65 -4v44h237q0 -89 -67 -117q35 -25 35 -79q0 -41 -15 -70.5t-38.5 -46t-60.5 -26.5t-72.5 -13t-83.5 -3h-42v-42q13 1 42 1q69 0 119.5 -8t90.5 -27.5t60 -54.5t20 -87q0 -99 -74 -138.5t-216 -39.5t-216 39.5t-74 138.5q1 102 65 141q-19 25 -19 53
q0 37 27 62q-53 39 -53 121q0 41 15.5 70t39 45.5t61.5 26t72.5 12t81.5 2.5zM375 -23q0 25 -12.5 38.5t-47.5 13.5t-47.5 -12.5t-12.5 -39.5q0 -26 12.5 -39.5t47.5 -13.5t47.5 12.5t12.5 40.5zM355 354q2 49 -40 49q-23 0 -31 -12t-9 -37q0 -24 8 -36.5t32 -13.5
q24 0 31.5 12t8.5 38z" />
    <glyph glyph-name="h" unicode="h" horiz-adv-x="678" 
d="M620 0h-240v300q0 40 -52 40q-22 0 -48 -13v-327h-240v730h240v-252q69 32 161 32q33 0 54 -2t47.5 -10.5t41.5 -25.5t25.5 -48.5t10.5 -76.5v-347z" />
    <glyph glyph-name="i" unicode="i" horiz-adv-x="342" 
d="M40 500h240v-500h-240v500zM40 700h240v-117h-240v117z" />
    <glyph glyph-name="j" unicode="j" horiz-adv-x="359" 
d="M-42 -181l16 133q9 0 42 -3q17 0 29 9.5t12 20.5v521h240v-520q0 -180 -210 -180q-82 0 -129 19zM57 700h240v-117h-240v117z" />
    <glyph glyph-name="k" unicode="k" horiz-adv-x="627" 
d="M280 730v-405h10l70 175h257l-106 -242l109 -258h-252l-79 207h-9v-207h-240v730h240z" />
    <glyph glyph-name="l" unicode="l" horiz-adv-x="342" 
d="M280 0h-240v730h240v-730z" />
    <glyph glyph-name="m" unicode="m" horiz-adv-x="958" 
d="M590 0h-230v312q0 14 -11.5 22t-26.5 8q-18 0 -52 -23v-319h-230v500h230v-53q39 25 93.5 44t95.5 19q51 0 77.5 -10t39.5 -43q39 22 93.5 37.5t93.5 15.5q89 0 113 -32.5t24 -120.5v-357h-230v312q0 30 -38 30q-14 0 -42 -15v-327z" />
    <glyph glyph-name="n" unicode="n" horiz-adv-x="678" 
d="M620 0h-240v287q0 30 -13.5 41.5t-38.5 11.5q-24 0 -48 -10v-330h-240v500h240v-22q36 14 97 23t111 9q69 0 100.5 -47.5t31.5 -151.5v-311z" />
    <glyph glyph-name="o" unicode="o" horiz-adv-x="638" 
d="M24 210v78q0 221 280 221q141 0 215.5 -55t74.5 -166v-78q0 -111 -74.5 -166t-215.5 -55q-280 0 -280 221zM254 308v-94q0 -22 1 -32.5t5 -25.5t15 -21.5t29 -6.5q15 0 25 6t15 12t7.5 21t2.5 21.5v25.5v70v25.5t-2.5 21.5t-7.5 21t-15 12t-25 6q-50 0 -50 -62z" />
    <glyph glyph-name="p" unicode="p" horiz-adv-x="641" 
d="M280 -200h-240v700h240v-30q61 40 145 40t129.5 -59t45.5 -201t-45.5 -201t-129.5 -59q-85 0 -145 30v-220zM304 353q-10 0 -24 -2v-202q12 -2 24 -2q56 0 56 103q0 52 -12.5 77.5t-43.5 25.5z" />
    <glyph glyph-name="q" unicode="q" horiz-adv-x="648" 
d="M587 500v-700h-240v230q-79 -42 -126 -42q-101 0 -147.5 61t-46.5 201q0 143 54 201.5t186 58.5q173 0 320 -10zM337 341q-37 0 -53.5 -21t-16.5 -70q0 -54 16.5 -72.5t53.5 -18.5h10v182h-10z" />
    <glyph glyph-name="r" unicode="r" horiz-adv-x="473" 
d="M443 510l20 -191h-88q-36 0 -65.5 -38.5t-29.5 -91.5v-189h-240v500h240v-41q51 51 122 51h41z" />
    <glyph glyph-name="s" unicode="s" horiz-adv-x="585" 
d="M302 510q117 0 229 -25l-21 -125q-101 22 -208 22q-23 0 -31.5 -6t-8.5 -20q0 -13 5.5 -18.5t24.5 -7.5q120 -16 153 -26q92 -29 105 -112q2 -15 2 -33q-1 -98 -58 -133.5t-192 -35.5q-154 0 -276 21l16 126q170 -22 232 -21q38 1 38 16q0 23 -40 29q-117 19 -151 32
q-78 29 -94 107q-5 25 -5 56q0 82 70 118t210 36z" />
    <glyph glyph-name="t" unicode="t" horiz-adv-x="440" 
d="M0 340v160h50v120l240 20v-140h100v-160h-100v-154q0 -34 28 -35q27 -1 79 5l24 -147q-83 -19 -169 -19q-110 0 -156 31.5t-46 116.5v202h-50z" />
    <glyph glyph-name="u" unicode="u" horiz-adv-x="682" 
d="M40 500h240v-287q0 -30 13.5 -41.5t38.5 -11.5q26 0 48 10v330h240v-500h-240v22q-123 -32 -208 -32q-66 0 -99 38t-33 99v373z" />
    <glyph glyph-name="v" unicode="v" horiz-adv-x="626" 
d="M138 0l-144 500h259l47 -330h9l45 330h259l-143 -500h-332z" />
    <glyph glyph-name="w" unicode="w" horiz-adv-x="933" 
d="M91 0l-94 500h252l32 -306h4l48 306h240l48 -308h3l34 308h251l-95 -500h-312l-49 288l-50 -288h-312z" />
    <glyph glyph-name="x" unicode="x" horiz-adv-x="619" 
d="M254 500l52 -176l46 176h251l-109 -240l109 -260h-252l-51 175l-46 -175h-253l111 260l-111 240h253z" />
    <glyph glyph-name="y" unicode="y" horiz-adv-x="635" 
d="M237 -26l14 27q-43 -1 -90 32.5t-63 90.5l-104 376h268l54 -351l51 351h261l-166 -555q-37 -70 -76 -107q-70 -68 -185 -68q-79 0 -204 35l32 159q31 -9 79 -17.5t62 -8.5q19 0 28.5 1.5t19.5 9.5t19 25z" />
    <glyph glyph-name="z" unicode="z" horiz-adv-x="530" 
d="M30 340v160h444v-113l-133 -226h155v-161h-470v113l143 227h-139z" />
    <glyph glyph-name="braceleft" unicode="{" horiz-adv-x="601" 
d="M512 588h-71q-31 0 -31 -30l-1 -142q0 -55 -64 -67q23 -10 44 -38t21 -60v-147q0 -30 31 -30h71v-214h-90q-134 0 -203 46.5t-69 152.5v149q0 30 -25 30h-63v213h63q25 0 25 30v115q0 110 70.5 157t201.5 47h90v-212z" />
    <glyph glyph-name="bar" unicode="|" horiz-adv-x="408" 
d="M62 700h260v-900h-260v900z" />
    <glyph glyph-name="braceright" unicode="}" horiz-adv-x="601" 
d="M133 588h-71v212h90q131 0 201.5 -47t70.5 -157v-115q0 -30 25 -30h63v-213h-63q-25 0 -25 -30v-149q0 -106 -69 -152.5t-203 -46.5h-90v214h71q31 0 31 30v147q0 32 21 60t44 38q-64 12 -64 67l-1 142q0 30 -31 30z" />
    <glyph glyph-name="asciitilde" unicode="~" horiz-adv-x="819" 
d="M149 233l-72 214q100 74 171 74q64 0 147 -23.5t131 -23.5q60 0 141 47l93 -213q-22 -20 -31.5 -28t-36 -26.5t-54 -26.5t-58.5 -8q-72 0 -154 23.5t-124 23.5q-77 0 -153 -33z" />
    <glyph glyph-name="exclamdown" unicode="&#xa1;" horiz-adv-x="431" 
d="M348 -200h-280l40 440h200zM338 296h-260v204h260v-204z" />
    <glyph glyph-name="cent" unicode="&#xa2;" horiz-adv-x="493" 
d="M373 -130h-153v128q-90 15 -143.5 68t-53.5 147v72q0 82 55 139.5t142 77.5v118h153v-115q56 -7 95 -20l-30 -150q0 1 -16.5 5t-37.5 7.5t-31 3.5q-41 0 -60.5 -18t-19.5 -68v-32q0 -50 19 -67.5t61 -17.5q28 0 85 15l30 -150q-33 -12 -95 -18v-125z" />
    <glyph glyph-name="sterling" unicode="&#xa3;" horiz-adv-x="770" 
d="M678 669l-44 -176q-1 1 -37 6.5t-88 11.5t-83 6q-70 0 -70 -65v-16h210v-152h-210v-65q17 -3 47 -11q6 -2 30 -9t34 -9t29 -5t37 -3q39 0 96 14t79 24l76 -164q-91 -66 -251 -66q-70 0 -147.5 22t-140.5 22q-34 0 -93 -9t-100 -24l-52 166q47 20 96 33v85h-56v151h56v41
q0 62 25.5 108t72 73t104.5 39.5t128 12.5q56 0 117.5 -10t91.5 -18t43 -13z" />
    <glyph glyph-name="yen" unicode="&#xa5;" horiz-adv-x="688" 
d="M54 290v140h54l-115 270h281l60 -270h10l68 270h283l-116 -270h55v-140h-116l-17 -40h133v-140h-160v-110h-260v110h-160v140h131l-17 40h-114z" />
    <glyph glyph-name="brokenbar" unicode="&#xa6;" horiz-adv-x="400" 
d="M70 700h260v-420h-260v420zM330 -200h-260v420h260v-420z" />
    <glyph glyph-name="section" unicode="&#xa7;" horiz-adv-x="873" 
d="M428 699q129 0 323 -32l-46 -158q-183 33 -277 33q-90 0 -90 -29q0 -22 127 -52q6 -1 9 -2q10 -2 37 -8.5t40.5 -9.5t40 -10.5t41 -13t37 -16t36 -20.5t29 -24.5t23.5 -30t14 -36t6 -43.5q0 -77 -84 -127q84 -50 84 -130q0 -65 -52 -109t-128.5 -62.5t-169.5 -18.5
q-183 0 -323 32l46 159q52 -13 146 -23.5t131 -10.5q38 0 58.5 5t26 11.5t5.5 16.5q0 9 -9.5 16.5t-30.5 13.5t-34.5 9t-43.5 8t-35 6q-29 5 -48.5 9.5t-52.5 13.5t-55.5 19t-49 26.5t-43 36t-27.5 46.5t-11 59q0 71 85 125q-41 20 -63 55.5t-22 76.5q0 62 51 106
t128.5 63.5t170.5 19.5zM338 253q0 -21 21 -32.5t74 -25.5q85 35 85 52q0 19 -19.5 32.5t-74.5 23.5q-86 -26 -86 -50z" />
    <glyph glyph-name="dieresis" unicode="&#xa8;" horiz-adv-x="553" 
d="M76 717h161v-137h-161v137zM288 718h162v-138h-162v138z" />
    <glyph glyph-name="copyright" unicode="&#xa9;" horiz-adv-x="1066" 
d="M533 710q119 0 208.5 -34.5t142.5 -97.5t78.5 -143.5t25.5 -179.5t-25.5 -179.5t-78.5 -143.5t-142.5 -97.5t-208.5 -34.5t-208.5 34.5t-142.5 97.5t-78.5 143.5t-25.5 179.5t25.5 179.5t78.5 143.5t142.5 97.5t208.5 34.5zM791 256q0 162 -59.5 228t-198.5 66
q-258 0 -258 -294q0 -88 22 -148.5t61.5 -90t80.5 -41t94 -11.5q67 0 111 11t79 42t51.5 89.5t16.5 148.5zM670 181l21 -149q-78 -21 -126 -21q-46 0 -84.5 10t-72 32.5t-53 63t-19.5 96.5v85q0 55 19.5 95.5t53 63t72.5 33t84 10.5q21 0 52.5 -5t52.5 -10l21 -5l-28 -150
q-74 14 -98 14q-23 0 -37.5 -13.5t-14.5 -34.5v-81q0 -48 52 -48z" />
    <glyph glyph-name="ordfeminine" unicode="&#xaa;" horiz-adv-x="374" 
d="M53 590l-11 100q80 20 177 20q66 0 117 -32t51 -106v-222h-169v21q-40 -28 -103 -28q-48 0 -75 26t-27 80q0 56 32 82t102 26h72v15q0 32 -34 32q-62 0 -132 -14zM199 430q14 0 19 3v53h-19q-11 0 -17.5 -9t-6.5 -20q0 -27 24 -27z" />
    <glyph glyph-name="guillemotleft" unicode="&#xab;" horiz-adv-x="677" 
d="M56 265l119 204h198l-96 -204l94 -213h-204zM316 265l119 204h198l-96 -204l94 -213h-204z" />
    <glyph glyph-name="logicalnot" unicode="&#xac;" 
d="M50 300v200h560v-310h-180v110h-380z" />
    <glyph glyph-name="registered" unicode="&#xae;" horiz-adv-x="561" 
d="M285 710q105 0 155 -56t50 -149t-50 -149t-155 -56t-155 56t-50 149q0 92 50 148.5t155 56.5zM399 504q0 71 -26 100t-88 29q-111 0 -111 -129q0 -126 111 -126q60 0 87 25.5t27 100.5zM305 416l-22 63h-5v-63h-68v182h78q47 0 66.5 -14.5t19.5 -50.5q0 -47 -28 -52
l33 -65h-74zM278 548v-31h13q15 0 15 16q0 15 -15 15h-13z" />
    <glyph glyph-name="macron" unicode="&#xaf;" horiz-adv-x="516" 
d="M36 587v127h398v-127h-398z" />
    <glyph glyph-name="degree" unicode="&#xb0;" horiz-adv-x="707" 
d="M330 720q103 0 176.5 -73.5t73.5 -176.5t-73.5 -176.5t-176.5 -73.5t-176.5 73.5t-73.5 176.5t73.5 176.5t176.5 73.5zM402 470q0 30 -21 51t-51 21t-50.5 -21t-20.5 -51t20.5 -50.5t50.5 -20.5t51 20.5t21 50.5z" />
    <glyph glyph-name="plusminus" unicode="&#xb1;" 
d="M220 700h220v-140h140v-190h-140v-140h-220v140h-140v190h140v140zM80 0v190h500v-190h-500z" />
    <glyph glyph-name="twosuperior" unicode="&#xb2;" horiz-adv-x="404" 
d="M203 712q72 0 122.5 -28.5t50.5 -96.5q0 -36 -8.5 -59.5t-33 -38t-41 -19.5t-57.5 -15q-11 -3 -16 -4q-17 -4 -24 -6.5t-12.5 -9t-5.5 -17.5h194v-116h-341v56q0 82 19.5 117t88.5 57q9 3 25.5 7.5t25.5 7.5t19.5 7.5t15.5 9t5 9.5q0 15 -30 15q-73 0 -144 -15l-17 113
q30 11 81 18.5t83 7.5z" />
    <glyph glyph-name="threesuperior" unicode="&#xb3;" horiz-adv-x="410" 
d="M26 316l16 114q65 -13 142 -13q45 0 45 21q0 14 -12 18t-36 4h-92l-15 91h101q41 0 41 20q0 13 -11.5 16t-35.5 3q-55 0 -123 -13l-20 113q59 21 145 21q23 0 37 -0.5t39 -3t41 -9t33 -17t25.5 -29t8.5 -42.5q0 -41 -13.5 -58.5t-38.5 -25.5q35 -11 53.5 -34t18.5 -71
q0 -26 -7.5 -46t-17.5 -33t-30 -22t-35 -13.5t-42 -6.5t-42.5 -2.5t-44.5 -0.5q-26 0 -72 7t-58 12z" />
    <glyph glyph-name="acute" unicode="&#xb4;" horiz-adv-x="386" 
d="M76 560l23 180h195l-96 -180h-122z" />
    <glyph glyph-name="mu" unicode="&#xb5;" horiz-adv-x="774" 
d="M706 167l36 -162q-6 -6 -26.5 -10.5t-36.5 -4.5q-73 0 -113 52q-57 -52 -129 -52q-91 0 -131 32v-222h-240v700h240v-330q22 -10 48 -10q25 0 38.5 11.5t13.5 41.5v287h240v-290q0 -31 7.5 -40.5t21.5 -9.5q17 0 31 7z" />
    <glyph glyph-name="paragraph" unicode="&#xb6;" horiz-adv-x="975" 
d="M828 700l40 -260h-90v-525l-200 -32v557h-76v-562l-200 -28v410h-17q-99 0 -153 55t-54 165t54 165t153 55h543z" />
    <glyph glyph-name="periodcentered" unicode="&#xb7;" horiz-adv-x="288" 
d="M48 250q0 43 23.5 70t71.5 27t72.5 -27t24.5 -70q0 -42 -24 -68.5t-73 -26.5q-48 0 -71.5 26t-23.5 69z" />
    <glyph glyph-name="cedilla" unicode="&#xb8;" horiz-adv-x="265" 
d="M67 11l87 -1v-42h25q33 0 52 -21.5t19 -53.5q0 -42 -26 -67.5t-79 -25.5q-79 0 -122 15l14 69q38 -6 58 -6q18 0 24 4t6 14q0 17 -29 17q-20 0 -48 -2z" />
    <glyph glyph-name="onesuperior" unicode="&#xb9;" horiz-adv-x="400" 
d="M56 562l165 141h117v-401h-154v218l-82 -67z" />
    <glyph glyph-name="ordmasculine" unicode="&#xba;" horiz-adv-x="471" 
d="M37 497v55q0 158 200 158q207 0 207 -158v-55q0 -158 -207 -158q-200 0 -200 158zM202 567v-67q0 -22 1 -31.5t9 -20t25 -10.5q13 0 21 4.5t11 16t3.5 18.5t0.5 23v50q0 20 -1 30t-9.5 20.5t-25.5 10.5q-35 0 -35 -44z" />
    <glyph glyph-name="guillemotright" unicode="&#xbb;" horiz-adv-x="677" 
d="M412 265l-96 204h198l119 -204l-111 -213h-204zM152 265l-96 204h198l119 -204l-111 -213h-204z" />
    <glyph glyph-name="onequarter" unicode="&#xbc;" horiz-adv-x="1054" 
d="M54 562l165 141h117v-401h-154v218l-82 -67zM780 401h172v-207h58l-16 -114h-42v-80h-150v80h-193v105zM802 282l-81 -88h81v88zM767 700q-264 -597 -309 -700h-209q66 148 308 700h210z" />
    <glyph glyph-name="onehalf" unicode="&#xbd;" horiz-adv-x="1003" 
d="M24 562l165 141h117v-401h-154v218l-82 -67zM804 410q72 0 122.5 -28.5t50.5 -96.5q0 -36 -8.5 -59.5t-33 -38t-41 -19.5t-57.5 -15q-11 -3 -16 -4q-17 -4 -24 -6.5t-12.5 -9t-5.5 -17.5h194v-116h-341v56q0 82 19.5 117t88.5 57q9 3 25.5 7.5t25.5 7.5t19.5 7.5t15.5 9
t5 9.5q0 15 -30 15q-73 0 -144 -15l-17 113q30 11 81 18.5t83 7.5zM740 700q-264 -597 -309 -700h-209q66 148 308 700h210z" />
    <glyph glyph-name="threequarters" unicode="&#xbe;" horiz-adv-x="1095" 
d="M821 401h172v-207h58l-16 -114h-42v-80h-150v80h-193v105zM843 282l-81 -88h81v88zM803 700q-264 -597 -309 -700h-209q66 148 308 700h210zM40 316l16 114q65 -13 142 -13q45 0 45 21q0 14 -12 18t-36 4h-92l-15 91h101q41 0 41 20q0 13 -11.5 16t-35.5 3
q-55 0 -123 -13l-20 113q60 21 145 21q23 0 37 -0.5t39 -3t41 -9t33 -17t25.5 -29t8.5 -42.5q0 -41 -13.5 -58.5t-38.5 -25.5q35 -11 53.5 -34t18.5 -71q0 -26 -7.5 -46t-17.5 -33t-30 -22t-35 -13.5t-42 -6.5t-42.5 -2.5t-44.5 -0.5q-26 0 -72 7t-58 12z" />
    <glyph glyph-name="questiondown" unicode="&#xbf;" horiz-adv-x="562" 
d="M517 -23l24 -168q-91 -19 -172 -19q-52 0 -90.5 2.5t-78.5 10.5t-67 22.5t-49.5 37.5t-33.5 57.5t-11 80.5q0 25 5.5 46.5t12.5 36.5t21.5 29t25 21.5t31 16.5t31 13t33 11t30.5 10q30 11 30 42v18h220v-61q0 -87 -98 -120q-27 -9 -38.5 -13t-27.5 -18t-16 -32
q0 -27 14.5 -34.5t55.5 -7.5q85 0 148 18zM499 296h-260v204h260v-204z" />
    <glyph glyph-name="Agrave" unicode="&#xc0;" horiz-adv-x="726" 
d="M449 0l-19 100h-156l-20 -100h-273l210 700h329l201 -700h-272zM358 457l-50 -187h89zM411 900l39 -140h-112l-126 140h199z" />
    <glyph glyph-name="Aacute" unicode="&#xc1;" horiz-adv-x="726" 
d="M449 0l-19 100h-156l-20 -100h-273l210 700h329l201 -700h-272zM358 457l-50 -187h89zM272 760l39 140h199l-126 -140h-112z" />
    <glyph glyph-name="Acircumflex" unicode="&#xc2;" horiz-adv-x="726" 
d="M449 0l-19 100h-156l-20 -100h-273l210 700h329l201 -700h-272zM358 457l-50 -187h89zM251 900h205l107 -140h-167l-39 75l-36 -75h-167z" />
    <glyph glyph-name="Atilde" unicode="&#xc3;" horiz-adv-x="726" 
d="M449 0l-19 100h-156l-20 -100h-273l210 700h329l201 -700h-272zM358 457l-50 -187h89zM219 760l-38 92q62 47 120 47q30 0 64 -14.5t55 -14.5q35 0 75 31l41 -88q-50 -52 -116 -52q-35 0 -70.5 14.5t-53.5 14.5q-43 0 -77 -30z" />
    <glyph glyph-name="Adieresis" unicode="&#xc4;" horiz-adv-x="726" 
d="M449 0l-19 100h-156l-20 -100h-273l210 700h329l201 -700h-272zM358 457l-50 -187h89zM156 900h171v-140h-171v140zM388 900h172v-140h-172v140z" />
    <glyph glyph-name="Aring" unicode="&#xc5;" horiz-adv-x="726" 
d="M362 894q70 0 103.5 -28.5t33.5 -74.5q0 -67 -63 -91h84l201 -700h-272l-19 100h-156l-20 -100h-273l210 700h96q-62 24 -62 91q0 46 33.5 74.5t103.5 28.5zM358 457l-50 -187h89zM405 791q0 38 -43 38t-43 -38t43 -38t43 38z" />
    <glyph glyph-name="AE" unicode="&#xc6;" horiz-adv-x="990" 
d="M696 260v-62h250v-198h-510v100h-137l-32 -100h-273l270 700h682v-198h-250v-62h190v-180h-190zM431 502l-76 -232h81v232h-5z" />
    <glyph glyph-name="Ccedilla" unicode="&#xc7;" horiz-adv-x="571" 
d="M519 240l32 -220q-103 -27 -173 -30v-22h25q33 0 52 -21.5t19 -53.5q0 -42 -26 -67.5t-79 -25.5q-79 0 -122 15l14 69q38 -6 58 -6q18 0 24 4t6 14q0 17 -29 17q-20 0 -48 -2l16 85q-115 16 -187 86.5t-72 204.5v126q0 81 28.5 141t78 92.5t106.5 48t123 15.5
q31 0 77.5 -7.5t77.5 -14.5l31 -8l-42 -220q-108 20 -144 20q-34 0 -55 -20t-21 -50v-120q0 -70 76 -70q16 0 54.5 5t68.5 10z" />
    <glyph glyph-name="Egrave" unicode="&#xc8;" horiz-adv-x="614" 
d="M320 260v-62h250v-198h-510v700h510v-198h-250v-62h190v-180h-190zM369 900l39 -140h-112l-126 140h199z" />
    <glyph glyph-name="Eacute" unicode="&#xc9;" horiz-adv-x="614" 
d="M320 260v-62h250v-198h-510v700h510v-198h-250v-62h190v-180h-190zM236 760l39 140h199l-126 -140h-112z" />
    <glyph glyph-name="Ecircumflex" unicode="&#xca;" horiz-adv-x="604" 
d="M320 260v-62h250v-198h-510v700h510v-198h-250v-62h190v-180h-190zM217 900h205l107 -140h-167l-39 75l-36 -75h-167z" />
    <glyph glyph-name="Edieresis" unicode="&#xcb;" horiz-adv-x="614" 
d="M320 260v-62h250v-198h-510v700h510v-198h-250v-62h190v-180h-190zM118 900h171v-140h-171v140zM350 900h172v-140h-172v140z" />
    <glyph glyph-name="Igrave" unicode="&#xcc;" horiz-adv-x="510" 
d="M30 500v200h430v-200h-85v-300h95v-200h-450v200h95v300h-85zM290 900l39 -140h-112l-126 140h199z" />
    <glyph glyph-name="Iacute" unicode="&#xcd;" horiz-adv-x="510" 
d="M30 500v200h430v-200h-85v-300h95v-200h-450v200h95v300h-85zM141 760l39 140h199l-126 -140h-112z" />
    <glyph glyph-name="Icircumflex" unicode="&#xce;" horiz-adv-x="510" 
d="M30 500v200h430v-200h-85v-300h95v-200h-450v200h95v300h-85zM138 900h205l107 -140h-167l-39 75l-36 -75h-167z" />
    <glyph glyph-name="Idieresis" unicode="&#xcf;" horiz-adv-x="510" 
d="M30 500v200h430v-200h-85v-300h95v-200h-450v200h95v300h-85zM43 900h171v-140h-171v140zM275 900h172v-140h-172v140z" />
    <glyph glyph-name="Eth" unicode="&#xd0;" horiz-adv-x="739" 
d="M2 260v180h55v260h280q208 0 289 -74.5t81 -275.5q0 -200 -82 -275t-288 -75h-280v260h-55zM337 501h-20v-61h75v-180h-75v-62h20q67 0 88.5 30.5t21.5 121.5q0 98 -20.5 124.5t-89.5 26.5z" />
    <glyph glyph-name="Ntilde" unicode="&#xd1;" horiz-adv-x="800" 
d="M490 700h230v-700h-245l-185 298v-298h-230v700h253l177 -289v289zM243 760l-38 92q62 47 120 47q30 0 64 -14.5t55 -14.5q35 0 75 31l41 -88q-50 -52 -116 -52q-35 0 -70.5 14.5t-53.5 14.5q-43 0 -77 -30z" />
    <glyph glyph-name="Ograve" unicode="&#xd2;" horiz-adv-x="778" 
d="M29 267v156q0 82 26 139.5t75 89t109.5 45t139.5 13.5t139.5 -13.5t109.5 -45t75 -89t26 -139.5v-156q0 -66 -17.5 -115t-47.5 -79.5t-75.5 -49.5t-95.5 -26t-114 -7t-114 7t-95.5 26t-75.5 49.5t-47.5 79.5t-17.5 115zM299 400v-100q0 -29 2 -45t9.5 -33t24 -24.5
t44.5 -7.5q52 0 66 26t14 84v100q0 29 -2 45t-9.5 33t-24 24.5t-44.5 7.5t-45 -7.5t-24 -25t-9 -33t-2 -44.5zM408 900l39 -140h-112l-126 140h199z" />
    <glyph glyph-name="Oacute" unicode="&#xd3;" horiz-adv-x="778" 
d="M29 267v156q0 82 26 139.5t75 89t109.5 45t139.5 13.5t139.5 -13.5t109.5 -45t75 -89t26 -139.5v-156q0 -66 -17.5 -115t-47.5 -79.5t-75.5 -49.5t-95.5 -26t-114 -7t-114 7t-95.5 26t-75.5 49.5t-47.5 79.5t-17.5 115zM299 400v-100q0 -29 2 -45t9.5 -33t24 -24.5
t44.5 -7.5q52 0 66 26t14 84v100q0 29 -2 45t-9.5 33t-24 24.5t-44.5 7.5t-45 -7.5t-24 -25t-9 -33t-2 -44.5zM310 760l39 140h199l-126 -140h-112z" />
    <glyph glyph-name="Ocircumflex" unicode="&#xd4;" horiz-adv-x="778" 
d="M29 267v156q0 82 26 139.5t75 89t109.5 45t139.5 13.5t139.5 -13.5t109.5 -45t75 -89t26 -139.5v-156q0 -66 -17.5 -115t-47.5 -79.5t-75.5 -49.5t-95.5 -26t-114 -7t-114 7t-95.5 26t-75.5 49.5t-47.5 79.5t-17.5 115zM299 400v-100q0 -29 2 -45t9.5 -33t24 -24.5
t44.5 -7.5q52 0 66 26t14 84v100q0 29 -2 45t-9.5 33t-24 24.5t-44.5 7.5t-45 -7.5t-24 -25t-9 -33t-2 -44.5zM272 900h205l107 -140h-167l-39 75l-36 -75h-167z" />
    <glyph glyph-name="Otilde" unicode="&#xd5;" horiz-adv-x="778" 
d="M29 267v156q0 82 26 139.5t75 89t109.5 45t139.5 13.5t139.5 -13.5t109.5 -45t75 -89t26 -139.5v-156q0 -66 -17.5 -115t-47.5 -79.5t-75.5 -49.5t-95.5 -26t-114 -7t-114 7t-95.5 26t-75.5 49.5t-47.5 79.5t-17.5 115zM299 400v-100q0 -29 2 -45t9.5 -33t24 -24.5
t44.5 -7.5q52 0 66 26t14 84v100q0 29 -2 45t-9.5 33t-24 24.5t-44.5 7.5t-45 -7.5t-24 -25t-9 -33t-2 -44.5zM240 760l-38 92q62 47 120 47q30 0 64 -14.5t55 -14.5q35 0 75 31l41 -88q-50 -52 -116 -52q-35 0 -70.5 14.5t-53.5 14.5q-43 0 -77 -30z" />
    <glyph glyph-name="Odieresis" unicode="&#xd6;" horiz-adv-x="778" 
d="M29 267v156q0 82 26 139.5t75 89t109.5 45t139.5 13.5t139.5 -13.5t109.5 -45t75 -89t26 -139.5v-156q0 -66 -17.5 -115t-47.5 -79.5t-75.5 -49.5t-95.5 -26t-114 -7t-114 7t-95.5 26t-75.5 49.5t-47.5 79.5t-17.5 115zM299 400v-100q0 -29 2 -45t9.5 -33t24 -24.5
t44.5 -7.5q52 0 66 26t14 84v100q0 29 -2 45t-9.5 33t-24 24.5t-44.5 7.5t-45 -7.5t-24 -25t-9 -33t-2 -44.5zM177 900h171v-140h-171v140zM409 900h172v-140h-172v140z" />
    <glyph glyph-name="multiply" unicode="&#xd7;" 
d="M436 588l134 -135l-106 -106l106 -106l-134 -134l-106 106l-106 -106l-135 134l106 106l-106 106l135 135l106 -107z" />
    <glyph glyph-name="Oslash" unicode="&#xd8;" horiz-adv-x="778" 
d="M29 267v156q0 82 26 139.5t75 89t109.5 45t139.5 13.5q89 0 154 -17l30 47h130l-59 -93q95 -71 95 -224v-156q0 -66 -17.5 -115t-47.5 -79.5t-75.5 -49.5t-95.5 -26t-114 -7q-86 0 -155 15l-29 -45h-130l57 89q-93 66 -93 218zM299 400v-74l114 179q-15 5 -34 5
q-28 0 -45 -7.5t-24 -25t-9 -33t-2 -44.5zM379 190q52 0 66 26t14 84v73l-115 -179q13 -4 35 -4z" />
    <glyph glyph-name="Ugrave" unicode="&#xd9;" horiz-adv-x="758" 
d="M446 700h240v-450q0 -58 -16.5 -103.5t-44 -74.5t-67.5 -48t-84 -26.5t-96 -7.5q-161 0 -241.5 58.5t-80.5 201.5v450h270v-460q0 -30 12.5 -40t49.5 -10t47.5 9.5t10.5 40.5v460zM411 900l39 -140h-112l-126 140h199z" />
    <glyph glyph-name="Uacute" unicode="&#xda;" horiz-adv-x="758" 
d="M446 700h240v-450q0 -58 -16.5 -103.5t-44 -74.5t-67.5 -48t-84 -26.5t-96 -7.5q-161 0 -241.5 58.5t-80.5 201.5v450h270v-460q0 -30 12.5 -40t49.5 -10t47.5 9.5t10.5 40.5v460zM322 760l39 140h199l-126 -140h-112z" />
    <glyph glyph-name="Ucircumflex" unicode="&#xdb;" horiz-adv-x="758" 
d="M446 700h240v-450q0 -58 -16.5 -103.5t-44 -74.5t-67.5 -48t-84 -26.5t-96 -7.5q-161 0 -241.5 58.5t-80.5 201.5v450h270v-460q0 -30 12.5 -40t49.5 -10t47.5 9.5t10.5 40.5v460zM279 900h205l107 -140h-167l-39 75l-36 -75h-167z" />
    <glyph glyph-name="Udieresis" unicode="&#xdc;" horiz-adv-x="758" 
d="M446 700h240v-450q0 -58 -16.5 -103.5t-44 -74.5t-67.5 -48t-84 -26.5t-96 -7.5q-161 0 -241.5 58.5t-80.5 201.5v450h270v-460q0 -30 12.5 -40t49.5 -10t47.5 9.5t10.5 40.5v460zM184 900h171v-140h-171v140zM416 900h172v-140h-172v140z" />
    <glyph glyph-name="Yacute" unicode="&#xdd;" horiz-adv-x="683" 
d="M201 184l-221 516h281l65 -293l73 293h283l-221 -514v-186h-260v184zM270 760l39 140h199l-126 -140h-112z" />
    <glyph glyph-name="Thorn" unicode="&#xde;" horiz-adv-x="746" 
d="M330 0h-260v700h260v-75h30q101 0 166.5 -15.5t102.5 -51t51.5 -84.5t14.5 -124q0 -100 -27 -157.5t-101 -88t-207 -30.5h-30v-74zM360 424h-30v-150h30q36 0 52.5 16t16.5 60t-15.5 59t-53.5 15z" />
    <glyph glyph-name="germandbls" unicode="&#xdf;" horiz-adv-x="692" 
d="M57 -100v577q0 63 24.5 110t66.5 72.5t89 38t100 12.5q46 0 91 -8.5t89.5 -28.5t72 -59.5t27.5 -93.5q0 -106 -83 -136q41 -10 72 -52t31 -122q0 -105 -56 -157.5t-187 -52.5h-48l-20 170h31q40 0 40 50t-40 50h-22v170h12q14 0 19 10.5t5 34.5t-7 34.5t-25 10.5
q-32 0 -32 -39v-591h-250z" />
    <glyph glyph-name="agrave" unicode="&#xe0;" horiz-adv-x="607" 
d="M77 340l-15 142q37 9 115 18.5t136 9.5q41 0 80 -9t76 -30t59.5 -61.5t22.5 -95.5v-314h-240v30q-57 -40 -145 -40q-68 0 -106.5 37t-38.5 113q0 79 45.5 116t144.5 37h102v22q0 23 -11 34t-38 11q-84 0 -187 -20zM285 113q18 0 26 4v75h-26q-16 0 -25 -12t-9 -28
q0 -17 9 -28t25 -11zM340 740l20 -180h-122l-76 180h178z" />
    <glyph glyph-name="aacute" unicode="&#xe1;" horiz-adv-x="608" 
d="M78 340l-15 142q37 9 115 18.5t136 9.5q41 0 80 -9t76 -30t59.5 -61.5t22.5 -95.5v-314h-240v30q-57 -40 -145 -40q-68 0 -106.5 37t-38.5 113q0 79 45.5 116t144.5 37h102v22q0 23 -11 34t-38 11q-84 0 -187 -20zM286 113q18 0 26 4v75h-26q-16 0 -25 -12t-9 -28
q0 -17 9 -28t25 -11zM203 560l23 180h195l-96 -180h-122z" />
    <glyph glyph-name="acircumflex" unicode="&#xe2;" horiz-adv-x="607" 
d="M77 340l-15 142q37 9 115 18.5t136 9.5q41 0 80 -9t76 -30t59.5 -61.5t22.5 -95.5v-314h-240v30q-57 -40 -145 -40q-68 0 -106.5 37t-38.5 113q0 79 45.5 116t144.5 37h102v22q0 23 -11 34t-38 11q-84 0 -187 -20zM285 113q18 0 26 4v75h-26q-16 0 -25 -12t-9 -28
q0 -17 9 -28t25 -11zM203 740h165l127 -180h-157l-49 95l-46 -95h-157z" />
    <glyph glyph-name="atilde" unicode="&#xe3;" horiz-adv-x="607" 
d="M77 340l-15 142q37 9 115 18.5t136 9.5q41 0 80 -9t76 -30t59.5 -61.5t22.5 -95.5v-314h-240v30q-57 -40 -145 -40q-68 0 -106.5 37t-38.5 113q0 79 45.5 116t144.5 37h102v22q0 23 -11 34t-38 11q-84 0 -187 -20zM285 113q18 0 26 4v75h-26q-16 0 -25 -12t-9 -28
q0 -17 9 -28t25 -11zM147 564l-51 83q22 34 56.5 61.5t73.5 27.5q21 0 40 -10.5t30.5 -23.5t25 -23.5t24.5 -10.5q17 0 32 9.5t23.5 21t22.5 32.5l51 -86q-46 -83 -125 -83q-24 0 -47.5 17t-43 34t-35.5 17q-7 0 -13 -2t-12.5 -6.5t-11 -8t-11.5 -12t-10 -12t-10 -13.5
t-9 -12z" />
    <glyph glyph-name="adieresis" unicode="&#xe4;" horiz-adv-x="607" 
d="M77 340l-15 142q37 9 115 18.5t136 9.5q41 0 80 -9t76 -30t59.5 -61.5t22.5 -95.5v-314h-240v30q-57 -40 -145 -40q-68 0 -106.5 37t-38.5 113q0 79 45.5 116t144.5 37h102v22q0 23 -11 34t-38 11q-84 0 -187 -20zM285 113q18 0 26 4v75h-26q-16 0 -25 -12t-9 -28
q0 -17 9 -28t25 -11zM104 717h161v-137h-161v137zM316 718h162v-138h-162v138z" />
    <glyph glyph-name="aring" unicode="&#xe5;" horiz-adv-x="607" 
d="M77 340l-15 142q37 9 115 18.5t136 9.5q41 0 80 -9t76 -30t59.5 -61.5t22.5 -95.5v-314h-240v30q-57 -40 -145 -40q-68 0 -106.5 37t-38.5 113q0 79 45.5 116t144.5 37h102v22q0 23 -11 34t-38 11q-84 0 -187 -20zM285 113q18 0 26 4v75h-26q-16 0 -25 -12t-9 -28
q0 -17 9 -28t25 -11zM291 781q49 0 85.5 -36.5t36.5 -85.5t-36.5 -85.5t-85.5 -36.5t-85.5 36.5t-36.5 85.5t36.5 85.5t85.5 36.5zM337 659q0 19 -13.5 32.5t-32.5 13.5t-32.5 -13.5t-13.5 -32.5t13.5 -32.5t32.5 -13.5t32.5 13.5t13.5 32.5z" />
    <glyph glyph-name="ae" unicode="&#xe6;" horiz-adv-x="899" 
d="M824 145l22 -138q-115 -17 -255 -17q-123 0 -195 44q-83 -44 -212 -44q-83 0 -123 36.5t-40 121.5q0 80 44.5 112.5t145.5 32.5h100l2 13q-1 27 -14.5 43t-51.5 16q-79 0 -184 -19l-25 132q125 32 222 32q109 0 173 -26q61 26 158 26q271 0 271 -199v-113h-311v-15
q0 -15 5 -25.5t10.5 -15.5t17.5 -7.5t17.5 -2.5h19.5q119 0 203 13zM551 320v-18h92v17q0 37 -11 50t-35 13t-35 -13t-11 -49zM277 113q29 0 49 3q-14 32 -15 76h-36q-15 -1 -23.5 -12.5t-8.5 -27.5q0 -17 9 -28t25 -11z" />
    <glyph glyph-name="ccedilla" unicode="&#xe7;" horiz-adv-x="483" 
d="M439 163l30 -150q-54 -19 -150 -22v-23h25q33 0 52 -21.5t19 -53.5q0 -42 -26 -67.5t-79 -25.5q-79 0 -122 15l14 69q38 -6 58 -6q18 0 24 4t6 14q0 17 -29 17q-20 0 -48 -2l16 85q-93 14 -149 67.5t-56 149.5v72q0 101 81.5 163.5t195.5 62.5q28 0 80 -6.5t88 -19.5
l-30 -150q0 1 -16.5 5t-37.5 7.5t-31 3.5q-41 0 -60.5 -18t-19.5 -68v-32q0 -50 19 -67.5t61 -17.5q28 0 85 15z" />
    <glyph glyph-name="egrave" unicode="&#xe8;" horiz-adv-x="615" 
d="M540 145l22 -138q-115 -17 -255 -17q-41 0 -77.5 5t-75 19t-65.5 37t-44.5 61.5t-17.5 88.5v64q0 129 68.5 187t211.5 58q271 0 271 -199v-113h-311v-15q0 -15 5 -25.5t10.5 -15.5t17.5 -7.5t17.5 -2.5h19.5q119 0 203 13zM267 320v-18h92v17q0 37 -11 50t-35 13t-35 -13
t-11 -49zM356 740l20 -180h-122l-76 180h178z" />
    <glyph glyph-name="eacute" unicode="&#xe9;" horiz-adv-x="615" 
d="M540 145l22 -138q-115 -17 -255 -17q-41 0 -77.5 5t-75 19t-65.5 37t-44.5 61.5t-17.5 88.5v64q0 129 68.5 187t211.5 58q271 0 271 -199v-113h-311v-15q0 -15 5 -25.5t10.5 -15.5t17.5 -7.5t17.5 -2.5h19.5q119 0 203 13zM267 320v-18h92v17q0 37 -11 50t-35 13t-35 -13
t-11 -49zM250 560l23 180h195l-96 -180h-122z" />
    <glyph glyph-name="ecircumflex" unicode="&#xea;" horiz-adv-x="615" 
d="M540 145l22 -138q-115 -17 -255 -17q-41 0 -77.5 5t-75 19t-65.5 37t-44.5 61.5t-17.5 88.5v64q0 129 68.5 187t211.5 58q271 0 271 -199v-113h-311v-15q0 -15 5 -25.5t10.5 -15.5t17.5 -7.5t17.5 -2.5h19.5q119 0 203 13zM267 320v-18h92v17q0 37 -11 50t-35 13t-35 -13
t-11 -49zM224 740h165l127 -180h-157l-49 95l-46 -95h-157z" />
    <glyph glyph-name="edieresis" unicode="&#xeb;" horiz-adv-x="615" 
d="M540 145l22 -138q-115 -17 -255 -17q-41 0 -77.5 5t-75 19t-65.5 37t-44.5 61.5t-17.5 88.5v64q0 129 68.5 187t211.5 58q271 0 271 -199v-113h-311v-15q0 -15 5 -25.5t10.5 -15.5t17.5 -7.5t17.5 -2.5h19.5q119 0 203 13zM267 320v-18h92v17q0 37 -11 50t-35 13t-35 -13
t-11 -49zM125 717h161v-137h-161v137zM337 718h162v-138h-162v138z" />
    <glyph glyph-name="igrave" unicode="&#xec;" horiz-adv-x="361" 
d="M51 500h240v-500h-240v500zM233 740l20 -180h-122l-76 180h178z" />
    <glyph glyph-name="iacute" unicode="&#xed;" horiz-adv-x="360" 
d="M51 500h240v-500h-240v500zM92 560l23 180h195l-96 -180h-122z" />
    <glyph glyph-name="icircumflex" unicode="&#xee;" horiz-adv-x="362" 
d="M52 500h240v-500h-240v500zM85 740h165l127 -180h-157l-49 95l-46 -95h-157z" />
    <glyph glyph-name="idieresis" unicode="&#xef;" horiz-adv-x="362" 
d="M51 500h240v-500h-240v500zM-16 717h161v-137h-161v137zM196 718h162v-138h-162v138z" />
    <glyph glyph-name="eth" unicode="&#xf0;" horiz-adv-x="656" 
d="M194 537l14 38q-36 2 -60 2l22 133q51 0 88 -4l19 49l72 -27l-13 -33q261 -53 261 -316v-169q0 -111 -74.5 -166t-215.5 -55q-280 0 -280 221v48q0 111 59.5 166t170.5 55q74 0 146 -20q-14 83 -115 106l-21 -55zM257 278v-64q0 -22 1 -32.5t5 -25.5t15 -21.5t29 -6.5
q15 0 25 6t15 12t7.5 21t2.5 21.5v25.5v40v25.5t-2.5 21.5t-7.5 21t-15 12t-25 6q-50 0 -50 -62z" />
    <glyph glyph-name="ntilde" unicode="&#xf1;" horiz-adv-x="678" 
d="M620 0h-240v287q0 30 -13.5 41.5t-38.5 11.5q-24 0 -48 -10v-330h-240v500h240v-22q36 14 97 23t111 9q69 0 100.5 -47.5t31.5 -151.5v-311zM186 564l-51 83q22 34 56.5 61.5t73.5 27.5q21 0 40 -10.5t30.5 -23.5t25 -23.5t24.5 -10.5q17 0 32 9.5t23.5 21t22.5 32.5
l51 -86q-46 -83 -125 -83q-24 0 -47.5 17t-43 34t-35.5 17q-7 0 -13 -2t-12.5 -6.5t-11 -8t-11.5 -12t-10 -12t-10 -13.5t-9 -12z" />
    <glyph glyph-name="ograve" unicode="&#xf2;" horiz-adv-x="638" 
d="M24 210v78q0 221 280 221q141 0 215.5 -55t74.5 -166v-78q0 -111 -74.5 -166t-215.5 -55q-280 0 -280 221zM254 308v-94q0 -22 1 -32.5t5 -25.5t15 -21.5t29 -6.5q15 0 25 6t15 12t7.5 21t2.5 21.5v25.5v70v25.5t-2.5 21.5t-7.5 21t-15 12t-25 6q-50 0 -50 -62zM354 740
l20 -180h-122l-76 180h178z" />
    <glyph glyph-name="oacute" unicode="&#xf3;" horiz-adv-x="638" 
d="M24 210v78q0 221 280 221q141 0 215.5 -55t74.5 -166v-78q0 -111 -74.5 -166t-215.5 -55q-280 0 -280 221zM254 308v-94q0 -22 1 -32.5t5 -25.5t15 -21.5t29 -6.5q15 0 25 6t15 12t7.5 21t2.5 21.5v25.5v70v25.5t-2.5 21.5t-7.5 21t-15 12t-25 6q-50 0 -50 -62zM236 560
l23 180h195l-96 -180h-122z" />
    <glyph glyph-name="ocircumflex" unicode="&#xf4;" horiz-adv-x="638" 
d="M24 210v78q0 221 280 221q141 0 215.5 -55t74.5 -166v-78q0 -111 -74.5 -166t-215.5 -55q-280 0 -280 221zM254 308v-94q0 -22 1 -32.5t5 -25.5t15 -21.5t29 -6.5q15 0 25 6t15 12t7.5 21t2.5 21.5v25.5v70v25.5t-2.5 21.5t-7.5 21t-15 12t-25 6q-50 0 -50 -62zM221 740
h165l127 -180h-157l-49 95l-46 -95h-157z" />
    <glyph glyph-name="otilde" unicode="&#xf5;" horiz-adv-x="636" 
d="M26 210v78q0 221 280 221q141 0 215.5 -55t74.5 -166v-78q0 -111 -74.5 -166t-215.5 -55q-280 0 -280 221zM256 308v-94q0 -22 1 -32.5t5 -25.5t15 -21.5t29 -6.5q15 0 25 6t15 12t7.5 21t2.5 21.5v25.5v70v25.5t-2.5 21.5t-7.5 21t-15 12t-25 6q-50 0 -50 -62zM167 564
l-51 83q22 34 56.5 61.5t73.5 27.5q21 0 40 -10.5t30.5 -23.5t25 -23.5t24.5 -10.5q17 0 32 9.5t23.5 21t22.5 32.5l51 -86q-46 -83 -125 -83q-24 0 -47.5 17t-43 34t-35.5 17q-7 0 -13 -2t-12.5 -6.5t-11 -8t-11.5 -12t-10 -12t-10 -13.5t-9 -12z" />
    <glyph glyph-name="odieresis" unicode="&#xf6;" horiz-adv-x="638" 
d="M24 210v78q0 221 280 221q141 0 215.5 -55t74.5 -166v-78q0 -111 -74.5 -166t-215.5 -55q-280 0 -280 221zM254 308v-94q0 -22 1 -32.5t5 -25.5t15 -21.5t29 -6.5q15 0 25 6t15 12t7.5 21t2.5 21.5v25.5v70v25.5t-2.5 21.5t-7.5 21t-15 12t-25 6q-50 0 -50 -62zM122 717
h161v-137h-161v137zM334 718h162v-138h-162v138z" />
    <glyph glyph-name="divide" unicode="&#xf7;" 
d="M220 647h220v-169h-220v169zM220 209h220v-164h-220v164zM80 258v170h500v-170h-500z" />
    <glyph glyph-name="oslash" unicode="&#xf8;" horiz-adv-x="634" 
d="M24 210v78q0 221 280 221q74 0 134 -17l35 48h100l-60 -82q81 -55 81 -170v-78q0 -111 -74.5 -166t-215.5 -55q-74 0 -128 15l-32 -44h-99l57 78q-78 54 -78 172zM254 308v-65l85 115q-14 12 -35 12q-50 0 -50 -62zM304 128q15 0 25 6t15 12t7.5 21t2.5 21.5v25.5v30
l-80 -108q11 -8 30 -8z" />
    <glyph glyph-name="ugrave" unicode="&#xf9;" horiz-adv-x="681" 
d="M41 500h240v-287q0 -30 13.5 -41.5t38.5 -11.5q26 0 48 10v330h240v-500h-240v22q-123 -32 -208 -32q-66 0 -99 38t-33 99v373zM370 740l20 -180h-122l-76 180h178z" />
    <glyph glyph-name="uacute" unicode="&#xfa;" horiz-adv-x="681" 
d="M41 500h240v-287q0 -30 13.5 -41.5t38.5 -11.5q26 0 48 10v330h240v-500h-240v22q-123 -32 -208 -32q-66 0 -99 38t-33 99v373zM272 560l23 180h195l-96 -180h-122z" />
    <glyph glyph-name="ucircumflex" unicode="&#xfb;" horiz-adv-x="680" 
d="M40 500h240v-287q0 -30 13.5 -41.5t38.5 -11.5q26 0 48 10v330h240v-500h-240v22q-123 -32 -208 -32q-66 0 -99 38t-33 99v373zM242 740h165l127 -180h-157l-49 95l-46 -95h-157z" />
    <glyph glyph-name="udieresis" unicode="&#xfc;" horiz-adv-x="681" 
d="M41 500h240v-287q0 -30 13.5 -41.5t38.5 -11.5q26 0 48 10v330h240v-500h-240v22q-123 -32 -208 -32q-66 0 -99 38t-33 99v373zM144 717h161v-137h-161v137zM356 718h162v-138h-162v138z" />
    <glyph glyph-name="yacute" unicode="&#xfd;" horiz-adv-x="639" 
d="M239 -26l14 27q-43 -1 -90 32.5t-63 90.5l-104 376h268l54 -351l51 351h261l-166 -555q-37 -70 -76 -107q-70 -68 -185 -68q-79 0 -204 35l32 159q31 -9 79 -17.5t62 -8.5q19 0 28.5 1.5t19.5 9.5t19 25zM253 560l23 180h195l-96 -180h-122z" />
    <glyph glyph-name="thorn" unicode="&#xfe;" horiz-adv-x="639" 
d="M52 730h240v-260q61 40 145 40t129.5 -59t45.5 -201t-45.5 -201t-129.5 -59q-85 0 -145 30v-220h-240v930zM316 353q-10 0 -24 -2v-202q12 -2 24 -2q56 0 56 103q0 52 -12.5 77.5t-43.5 25.5z" />
    <glyph glyph-name="ydieresis" unicode="&#xff;" horiz-adv-x="639" 
d="M239 -26l14 27q-43 -1 -90 32.5t-63 90.5l-104 376h268l54 -351l51 351h261l-166 -555q-37 -70 -76 -107q-70 -68 -185 -68q-79 0 -204 35l32 159q31 -9 79 -17.5t62 -8.5q19 0 28.5 1.5t19.5 9.5t19 25zM132 717h161v-137h-161v137zM344 718h162v-138h-162v138z" />
    <glyph glyph-name="Amacron" unicode="&#x100;" horiz-adv-x="726" 
d="M449 0l-19 100h-156l-20 -100h-273l210 700h329l201 -700h-272zM358 457l-50 -187h89zM149 761v138h418v-138h-418z" />
    <glyph glyph-name="amacron" unicode="&#x101;" horiz-adv-x="607" 
d="M77 340l-15 142q37 9 115 18.5t136 9.5q41 0 80 -9t76 -30t59.5 -61.5t22.5 -95.5v-314h-240v30q-57 -40 -145 -40q-68 0 -106.5 37t-38.5 113q0 79 45.5 116t144.5 37h102v22q0 23 -11 34t-38 11q-84 0 -187 -20zM285 113q18 0 26 4v75h-26q-16 0 -25 -12t-9 -28
q0 -17 9 -28t25 -11zM102 587v127h398v-127h-398z" />
    <glyph glyph-name="Abreve" unicode="&#x102;" horiz-adv-x="726" 
d="M449 0l-19 100h-156l-20 -100h-273l210 700h329l201 -700h-272zM358 457l-50 -187h89zM136 900h167q0 -32 10.5 -44t45.5 -12t45.5 12t10.5 44h167v-25q0 -35 -17.5 -58.5t-51 -35.5t-69.5 -16.5t-85 -4.5t-85 4.5t-69.5 16.5t-51 35.5t-17.5 58.5v25z" />
    <glyph glyph-name="abreve" unicode="&#x103;" horiz-adv-x="607" 
d="M77 340l-15 142q37 9 115 18.5t136 9.5q41 0 80 -9t76 -30t59.5 -61.5t22.5 -95.5v-314h-240v30q-57 -40 -145 -40q-68 0 -106.5 37t-38.5 113q0 79 45.5 116t144.5 37h102v22q0 23 -11 34t-38 11q-84 0 -187 -20zM285 113q18 0 26 4v75h-26q-16 0 -25 -12t-9 -28
q0 -17 9 -28t25 -11zM81 730h160q0 -45 13.5 -61t46.5 -16t46.5 16t13.5 61h160v-18q0 -142 -220 -142t-220 142v18z" />
    <glyph glyph-name="Aogonek" unicode="&#x104;" horiz-adv-x="726" 
d="M449 0l-19 100h-156l-20 -100h-273l210 700h329l201 -700h-48q-86 -40 -86 -69q0 -27 28 -27q23 0 44 6l11 -95q-66 -15 -148 -15q-50 0 -69.5 15t-19.5 54q0 40 40.5 73.5t96.5 57.5h-121zM358 457l-50 -187h89z" />
    <glyph glyph-name="aogonek" unicode="&#x105;" horiz-adv-x="607" 
d="M404 -90l11 -95q-66 -15 -148 -15q-50 0 -69.5 15t-19.5 54q0 40 40.5 73.5t96.5 57.5h-4v30q-57 -40 -145 -40q-68 0 -106.5 37t-38.5 113q0 79 45.5 116t144.5 37h102v22q0 23 -11 34t-38 11q-84 0 -187 -20l-15 142q37 9 115 18.5t136 9.5q41 0 80 -9t76 -30
t59.5 -61.5t22.5 -95.5v-314h-133q-86 -40 -86 -69q0 -27 28 -27q23 0 44 6zM285 113q18 0 26 4v75h-26q-16 0 -25 -12t-9 -28q0 -17 9 -28t25 -11z" />
    <glyph glyph-name="Cacute" unicode="&#x106;" horiz-adv-x="571" 
d="M519 240l32 -220q-116 -30 -186 -30q-53 0 -99.5 9t-90.5 30.5t-76 54.5t-51 85t-19 118v126q0 81 28.5 141t78 92.5t106.5 48t123 15.5q31 0 77.5 -7.5t77.5 -14.5l31 -8l-42 -220q-108 20 -144 20q-34 0 -55 -20t-21 -50v-120q0 -70 76 -70q16 0 54.5 5t68.5 10z
M255 760l39 140h199l-126 -140h-112z" />
    <glyph glyph-name="cacute" unicode="&#x107;" horiz-adv-x="483" 
d="M439 163l30 -150q-59 -22 -168 -22q-121 0 -199 54t-78 168v72q0 101 81.5 163.5t195.5 62.5q28 0 80 -6.5t88 -19.5l-30 -150q0 1 -16.5 5t-37.5 7.5t-31 3.5q-41 0 -60.5 -18t-19.5 -68v-32q0 -50 19 -67.5t61 -17.5q28 0 85 15zM197 560l23 180h195l-96 -180h-122z
" />
    <glyph glyph-name="Ccaron" unicode="&#x10c;" horiz-adv-x="571" 
d="M519 240l32 -220q-116 -30 -186 -30q-53 0 -99.5 9t-90.5 30.5t-76 54.5t-51 85t-19 118v126q0 81 28.5 141t78 92.5t106.5 48t123 15.5q31 0 77.5 -7.5t77.5 -14.5l31 -8l-42 -220q-108 20 -144 20q-34 0 -55 -20t-21 -50v-120q0 -70 76 -70q16 0 54.5 5t68.5 10z
M417 760h-205l-107 140h167l39 -75l36 75h167z" />
    <glyph glyph-name="ccaron" unicode="&#x10d;" horiz-adv-x="483" 
d="M439 163l30 -150q-59 -22 -168 -22q-121 0 -199 54t-78 168v72q0 101 81.5 163.5t195.5 62.5q28 0 80 -6.5t88 -19.5l-30 -150q0 1 -16.5 5t-37.5 7.5t-31 3.5q-41 0 -60.5 -18t-19.5 -68v-32q0 -50 19 -67.5t61 -17.5q28 0 85 15zM344 560h-165l-127 180h157l49 -95
l46 95h157z" />
    <glyph glyph-name="Dcaron" unicode="&#x10e;" horiz-adv-x="752" 
d="M60 0v700h280q208 0 289 -74.5t81 -275.5q0 -200 -82 -275t-288 -75h-280zM340 501h-20v-303h20q67 0 88.5 30.5t21.5 121.5q0 98 -20.5 124.5t-89.5 26.5zM452 760h-205l-107 140h167l39 -75l36 75h167z" />
    <glyph glyph-name="dcaron" unicode="&#x10f;" horiz-adv-x="933" 
d="M349 730h240v-730h-240v30q-1 0 -17 -12t-40.5 -20t-57.5 -8q-39 0 -72.5 11.5t-65 39t-49.5 81t-18 128.5q0 150 50 205t157 55q33 0 56.5 -7t32.5 -13t24 -20v260zM329 159h20v182h-20q-35 0 -47.5 -17.5t-12.5 -73.5q0 -51 12.5 -71t47.5 -20zM649 730h260v-124
q0 -64 -46.5 -133t-103.5 -101l-81 47q51 45 51 107h-80v204z" />
    <glyph glyph-name="Dcroat" unicode="&#x110;" horiz-adv-x="762" 
d="M10 284v147h60v269h280q208 0 289 -74.5t81 -275.5q0 -200 -82 -275t-288 -75h-280v284h-60zM350 501h-20v-70h58v-147h-58v-86h20q67 0 88.5 30.5t21.5 121.5q0 98 -20.5 124.5t-89.5 26.5z" />
    <glyph glyph-name="dcroat" unicode="&#x111;" horiz-adv-x="659" 
d="M349 730h240v-68h40v-116h-40v-546h-240v30q-1 0 -17 -12t-40.5 -20t-57.5 -8q-39 0 -72.5 11.5t-65 39t-49.5 81t-18 128.5q0 150 50 205t157 55q33 0 56.5 -7t32.5 -13t24 -20v76h-98v116h98v68zM329 159h20v182h-20q-35 0 -47.5 -17.5t-12.5 -73.5q0 -51 12.5 -71
t47.5 -20z" />
    <glyph glyph-name="Emacron" unicode="&#x112;" horiz-adv-x="614" 
d="M320 260v-62h250v-198h-510v700h510v-198h-250v-62h190v-180h-190zM103 761v138h418v-138h-418z" />
    <glyph glyph-name="emacron" unicode="&#x113;" horiz-adv-x="615" 
d="M540 145l22 -138q-115 -17 -255 -17q-41 0 -77.5 5t-75 19t-65.5 37t-44.5 61.5t-17.5 88.5v64q0 129 68.5 187t211.5 58q271 0 271 -199v-113h-311v-15q0 -15 5 -25.5t10.5 -15.5t17.5 -7.5t17.5 -2.5h19.5q119 0 203 13zM267 320v-18h92v17q0 37 -11 50t-35 13t-35 -13
t-11 -49zM98 587v127h398v-127h-398z" />
    <glyph glyph-name="Edotaccent" unicode="&#x116;" horiz-adv-x="614" 
d="M320 260v-62h250v-198h-510v700h510v-198h-250v-62h190v-180h-190zM195 900h240v-140h-240v140z" />
    <glyph glyph-name="edotaccent" unicode="&#x117;" horiz-adv-x="615" 
d="M540 145l22 -138q-115 -17 -255 -17q-41 0 -77.5 5t-75 19t-65.5 37t-44.5 61.5t-17.5 88.5v64q0 129 68.5 187t211.5 58q271 0 271 -199v-113h-311v-15q0 -15 5 -25.5t10.5 -15.5t17.5 -7.5t17.5 -2.5h19.5q119 0 203 13zM267 320v-18h92v17q0 37 -11 50t-35 13t-35 -13
t-11 -49zM194 717h240v-137h-240v137z" />
    <glyph glyph-name="Eogonek" unicode="&#x118;" horiz-adv-x="614" 
d="M555 -90l11 -95q-66 -15 -148 -15q-50 0 -69.5 15t-19.5 54q0 40 40.5 73.5t96.5 57.5h-406v700h510v-198h-250v-62h190v-180h-190v-62h250v-198h-1q-86 -40 -86 -69q0 -27 28 -27q23 0 44 6z" />
    <glyph glyph-name="eogonek" unicode="&#x119;" horiz-adv-x="615" 
d="M484 -90l11 -95q-66 -15 -148 -15q-50 0 -69.5 15t-19.5 54q0 67 117 122q-11 0 -33.5 -0.5t-34.5 -0.5q-41 0 -77.5 5t-75 19t-65.5 37t-44.5 61.5t-17.5 88.5v64q0 129 68.5 187t211.5 58q271 0 271 -199v-113h-311v-15q0 -15 5 -25.5t10.5 -15.5t17.5 -7.5t17.5 -2.5
h19.5q119 0 203 13l22 -138q-38 -6 -67 -8q-83 -38 -83 -68q0 -27 28 -27q23 0 44 6zM267 320v-18h92v17q0 37 -11 50t-35 13t-35 -13t-11 -49z" />
    <glyph glyph-name="Ecaron" unicode="&#x11a;" horiz-adv-x="614" 
d="M320 260v-62h250v-198h-510v700h510v-198h-250v-62h190v-180h-190zM432 760h-205l-107 140h167l39 -75l36 75h167z" />
    <glyph glyph-name="ecaron" unicode="&#x11b;" horiz-adv-x="615" 
d="M540 145l22 -138q-115 -17 -255 -17q-41 0 -77.5 5t-75 19t-65.5 37t-44.5 61.5t-17.5 88.5v64q0 129 68.5 187t211.5 58q271 0 271 -199v-113h-311v-15q0 -15 5 -25.5t10.5 -15.5t17.5 -7.5t17.5 -2.5h19.5q119 0 203 13zM267 320v-18h92v17q0 37 -11 50t-35 13t-35 -13
t-11 -49zM385 560h-165l-127 180h157l49 -95l46 95h157z" />
    <glyph glyph-name="Gbreve" unicode="&#x11e;" horiz-adv-x="709" 
d="M649 38q-110 -48 -260 -48q-360 0 -360 284v146q0 81 29 139.5t80.5 90.5t113 46t137.5 14q120 0 243 -32l-42 -199q-96 25 -167 25q-70 0 -102 -23t-32 -71v-136q0 -94 100 -94q34 0 70 6v71l-100 6v149h290v-374zM141 900h167q0 -32 10.5 -44t45.5 -12t45.5 12t10.5 44
h167v-25q0 -35 -17.5 -58.5t-51 -35.5t-69.5 -16.5t-85 -4.5t-85 4.5t-69.5 16.5t-51 35.5t-17.5 58.5v25z" />
    <glyph glyph-name="gbreve" unicode="&#x11f;" horiz-adv-x="650" 
d="M315 510q26 0 65 -4v44h237q0 -89 -67 -117q35 -25 35 -79q0 -41 -15 -70.5t-38.5 -46t-60.5 -26.5t-72.5 -13t-83.5 -3h-42v-42q13 1 42 1q69 0 119.5 -8t90.5 -27.5t60 -54.5t20 -87q0 -99 -74 -138.5t-216 -39.5t-216 39.5t-74 138.5q1 102 65 141q-19 25 -19 53
q0 37 27 62q-53 39 -53 121q0 41 15.5 70t39 45.5t61.5 26t72.5 12t81.5 2.5zM375 -23q0 25 -12.5 38.5t-47.5 13.5t-47.5 -12.5t-12.5 -39.5q0 -26 12.5 -39.5t47.5 -13.5t47.5 12.5t12.5 40.5zM355 354q2 49 -40 49q-23 0 -31 -12t-9 -37q0 -24 8 -36.5t32 -13.5
q24 0 31.5 12t8.5 38zM95 730h160q0 -45 13.5 -61t46.5 -16t46.5 16t13.5 61h160v-18q0 -142 -220 -142t-220 142v18z" />
    <glyph glyph-name="Gcommaaccent" unicode="&#x122;" horiz-adv-x="709" 
d="M649 38q-110 -48 -260 -48q-360 0 -360 284v146q0 81 29 139.5t80.5 90.5t113 46t137.5 14q120 0 243 -32l-42 -199q-96 25 -167 25q-70 0 -102 -23t-32 -71v-136q0 -94 100 -94q34 0 70 6v71l-100 6v149h290v-374zM249 -46h260v-44q0 -31 -18.5 -59t-46.5 -46t-53 -29.5
t-45 -15.5l-68 40q19 5 35 19.5t16 30.5h-80v104z" />
    <glyph glyph-name="gcommaaccent" unicode="&#x123;" horiz-adv-x="672" 
d="M330 510q26 0 65 -4v44h237q0 -89 -67 -117q35 -25 35 -79q0 -41 -15 -70.5t-38.5 -46t-60.5 -26.5t-72.5 -13t-83.5 -3h-42v-42q13 1 42 1q69 0 119.5 -8t90.5 -27.5t60 -54.5t20 -87q0 -99 -74 -138.5t-216 -39.5t-216 39.5t-74 138.5q1 102 65 141q-19 25 -19 53
q0 37 27 62q-53 39 -53 121q0 41 15.5 70t39 45.5t61.5 26t72.5 12t81.5 2.5zM390 -23q0 25 -12.5 38.5t-47.5 13.5q-36 0 -48 -12.5t-12 -39.5q0 -26 12.5 -39.5t47.5 -13.5t47.5 12.5t12.5 40.5zM370 354q2 49 -40 49q-23 0 -31 -12t-9 -37q0 -24 8 -36.5t32 -13.5
q24 0 31.5 12t8.5 38zM470 580h-260v44q0 31 18.5 59t46.5 46t53 29.5t45 15.5l68 -40q-19 -5 -35 -19.5t-16 -30.5h80v-104z" />
    <glyph glyph-name="Imacron" unicode="&#x12a;" horiz-adv-x="510" 
d="M30 500v200h430v-200h-85v-300h95v-200h-450v200h95v300h-85zM46 787v127h398v-127h-398z" />
    <glyph glyph-name="imacron" unicode="&#x12b;" horiz-adv-x="378" 
d="M59 500h240v-500h-240v500zM-20 587v127h398v-127h-398z" />
    <glyph glyph-name="Iogonek" unicode="&#x12e;" horiz-adv-x="490" 
d="M440 -90l11 -95q-66 -15 -148 -15q-50 0 -69.5 15t-19.5 54q0 40 40.5 73.5t96.5 57.5h-341v200h95v300h-85v200h430v-200h-85v-300h95v-200h-6q-86 -40 -86 -69q0 -27 28 -27q23 0 44 6z" />
    <glyph glyph-name="iogonek" unicode="&#x12f;" horiz-adv-x="333" 
d="M244 -90l11 -95q-66 -15 -148 -15q-50 0 -69.5 15t-19.5 54q0 40 40.5 73.5t96.5 57.5h-134v500h240v-500h-3q-86 -40 -86 -69q0 -27 28 -27q23 0 44 6zM21 700h240v-117h-240v117z" />
    <glyph glyph-name="Idotaccent" unicode="&#x130;" horiz-adv-x="510" 
d="M30 500v200h430v-200h-85v-300h95v-200h-450v200h95v300h-85zM125 900h240v-140h-240v140z" />
    <glyph glyph-name="dotlessi" unicode="&#x131;" horiz-adv-x="343" 
d="M41 500h240v-500h-240v500z" />
    <glyph glyph-name="Kcommaaccent" unicode="&#x136;" horiz-adv-x="749" 
d="M330 700v-292h16l87 292h293l-136 -323l145 -377h-285l-102 320h-18v-320h-260v700h260zM262 -46h260v-44q0 -31 -18.5 -59t-46.5 -46t-53 -29.5t-45 -15.5l-68 40q19 5 35 19.5t16 30.5h-80v104z" />
    <glyph glyph-name="kcommaaccent" unicode="&#x137;" horiz-adv-x="637" 
d="M290 730v-405h10l70 175h257l-106 -242l109 -258h-252l-79 207h-9v-207h-240v730h240zM190 -46h260v-44q0 -31 -18.5 -59t-46.5 -46t-53 -29.5t-45 -15.5l-68 40q19 5 35 19.5t16 30.5h-80v104z" />
    <glyph glyph-name="Lacute" unicode="&#x139;" horiz-adv-x="592" 
d="M60 0v700h260v-470h270v-230h-530zM131 760l39 140h199l-126 -140h-112z" />
    <glyph glyph-name="lacute" unicode="&#x13a;" horiz-adv-x="351" 
d="M281 0h-240v730h240v-730zM83 743l23 154h195l-96 -154h-122z" />
    <glyph glyph-name="Lcommaaccent" unicode="&#x13b;" horiz-adv-x="592" 
d="M60 0v700h260v-470h270v-230h-530zM180 -46h260v-44q0 -31 -18.5 -59t-46.5 -46t-53 -29.5t-45 -15.5l-68 40q19 5 35 19.5t16 30.5h-80v104z" />
    <glyph glyph-name="lcommaaccent" unicode="&#x13c;" horiz-adv-x="380" 
d="M301 0h-240v730h240v-730zM51 -46h260v-44q0 -31 -18.5 -59t-46.5 -46t-53 -29.5t-45 -15.5l-68 40q19 5 35 19.5t16 30.5h-80v104z" />
    <glyph glyph-name="Lcaron" unicode="&#x13d;" horiz-adv-x="624" 
d="M60 0v700h260v-470h270v-230h-530zM370 700h218v-120q0 -62 -39 -129.5t-87 -99.5l-68 46q43 45 43 105h-67v198z" />
    <glyph glyph-name="lcaron" unicode="&#x13e;" horiz-adv-x="615" 
d="M291 0h-240v730h240v-730zM341 730h260v-124q0 -64 -46.5 -133t-103.5 -101l-81 47q51 45 51 107h-80v204z" />
    <glyph glyph-name="Lslash" unicode="&#x141;" horiz-adv-x="599" 
d="M17 200v200l50 18v282h260v-186l151 56v-200l-151 -56v-84h270v-230h-530v218z" />
    <glyph glyph-name="lslash" unicode="&#x142;" horiz-adv-x="383" 
d="M27 200v200l42 22v358h240v-232l42 22v-200l-42 -22v-348h-240v222z" />
    <glyph glyph-name="Nacute" unicode="&#x143;" horiz-adv-x="800" 
d="M490 700h230v-700h-245l-185 298v-298h-230v700h253l177 -289v289zM321 760l39 140h199l-126 -140h-112z" />
    <glyph glyph-name="nacute" unicode="&#x144;" horiz-adv-x="678" 
d="M620 0h-240v287q0 30 -13.5 41.5t-38.5 11.5q-24 0 -48 -10v-330h-240v500h240v-22q36 14 97 23t111 9q69 0 100.5 -47.5t31.5 -151.5v-311zM221 560l23 180h195l-96 -180h-122z" />
    <glyph glyph-name="Ncommaaccent" unicode="&#x145;" horiz-adv-x="800" 
d="M490 700h230v-700h-245l-185 298v-298h-230v700h253l177 -289v289zM260 -46h260v-44q0 -31 -18.5 -59t-46.5 -46t-53 -29.5t-45 -15.5l-68 40q19 5 35 19.5t16 30.5h-80v104z" />
    <glyph glyph-name="ncommaaccent" unicode="&#x146;" horiz-adv-x="678" 
d="M620 0h-240v287q0 30 -13.5 41.5t-38.5 11.5q-24 0 -48 -10v-330h-240v500h240v-22q36 14 97 23t111 9q69 0 100.5 -47.5t31.5 -151.5v-311zM200 -46h260v-44q0 -31 -18.5 -59t-46.5 -46t-53 -29.5t-45 -15.5l-68 40q19 5 35 19.5t16 30.5h-80v104z" />
    <glyph glyph-name="Ncaron" unicode="&#x147;" horiz-adv-x="800" 
d="M490 700h230v-700h-245l-185 298v-298h-230v700h253l177 -289v289zM497 760h-205l-107 140h167l39 -75l36 75h167z" />
    <glyph glyph-name="ncaron" unicode="&#x148;" horiz-adv-x="678" 
d="M620 0h-240v287q0 30 -13.5 41.5t-38.5 11.5q-24 0 -48 -10v-330h-240v500h240v-22q36 14 97 23t111 9q69 0 100.5 -47.5t31.5 -151.5v-311zM417 560h-165l-127 180h157l49 -95l46 95h157z" />
    <glyph glyph-name="Omacron" unicode="&#x14c;" horiz-adv-x="778" 
d="M29 267v156q0 82 26 139.5t75 89t109.5 45t139.5 13.5t139.5 -13.5t109.5 -45t75 -89t26 -139.5v-156q0 -66 -17.5 -115t-47.5 -79.5t-75.5 -49.5t-95.5 -26t-114 -7t-114 7t-95.5 26t-75.5 49.5t-47.5 79.5t-17.5 115zM299 400v-100q0 -29 2 -45t9.5 -33t24 -24.5
t44.5 -7.5q52 0 66 26t14 84v100q0 29 -2 45t-9.5 33t-24 24.5t-44.5 7.5t-45 -7.5t-24 -25t-9 -33t-2 -44.5zM170 761v138h418v-138h-418z" />
    <glyph glyph-name="omacron" unicode="&#x14d;" horiz-adv-x="638" 
d="M24 210v78q0 221 280 221q141 0 215.5 -55t74.5 -166v-78q0 -111 -74.5 -166t-215.5 -55q-280 0 -280 221zM254 308v-94q0 -22 1 -32.5t5 -25.5t15 -21.5t29 -6.5q15 0 25 6t15 12t7.5 21t2.5 21.5v25.5v70v25.5t-2.5 21.5t-7.5 21t-15 12t-25 6q-50 0 -50 -62zM110 587
v127h398v-127h-398z" />
    <glyph glyph-name="Ohungarumlaut" unicode="&#x150;" horiz-adv-x="778" 
d="M29 267v156q0 82 26 139.5t75 89t109.5 45t139.5 13.5t139.5 -13.5t109.5 -45t75 -89t26 -139.5v-156q0 -66 -17.5 -115t-47.5 -79.5t-75.5 -49.5t-95.5 -26t-114 -7t-114 7t-95.5 26t-75.5 49.5t-47.5 79.5t-17.5 115zM299 400v-100q0 -29 2 -45t9.5 -33t24 -24.5
t44.5 -7.5q52 0 66 26t14 84v100q0 29 -2 45t-9.5 33t-24 24.5t-44.5 7.5t-45 -7.5t-24 -25t-9 -33t-2 -44.5zM196 760l53 180h195l-126 -180h-122zM434 760l53 180h195l-126 -180h-122z" />
    <glyph glyph-name="ohungarumlaut" unicode="&#x151;" horiz-adv-x="638" 
d="M24 210v78q0 221 280 221q141 0 215.5 -55t74.5 -166v-78q0 -111 -74.5 -166t-215.5 -55q-280 0 -280 221zM254 308v-94q0 -22 1 -32.5t5 -25.5t15 -21.5t29 -6.5q15 0 25 6t15 12t7.5 21t2.5 21.5v25.5v70v25.5t-2.5 21.5t-7.5 21t-15 12t-25 6q-50 0 -50 -62zM106 560
l53 180h195l-126 -180h-122zM344 560l53 180h195l-126 -180h-122z" />
    <glyph glyph-name="OE" unicode="&#x152;" horiz-adv-x="1024" 
d="M730 260v-62h250v-198h-471q-57 -10 -130 -10q-64 0 -114 7t-95.5 26t-75.5 49.5t-47.5 79.5t-17.5 115v156q0 82 26 139.5t75 89t109.5 45t139.5 13.5q70 0 124 -10h477v-198h-250v-62h190v-180h-190zM299 400v-100q0 -29 2 -45t9.5 -33t24 -24.5t44.5 -7.5q52 0 66 26
t14 84v100q0 29 -2 45t-9.5 33t-24 24.5t-44.5 7.5t-45 -7.5t-24 -25t-9 -33t-2 -44.5z" />
    <glyph glyph-name="oe" unicode="&#x153;" horiz-adv-x="942" 
d="M867 145l22 -138q-115 -17 -255 -17q-94 0 -162 27q-70 -28 -168 -28q-280 0 -280 221v78q0 221 280 221q99 0 165 -27q63 28 165 28q271 0 271 -199v-113h-311v-15q0 -15 5 -25.5t10.5 -15.5t17.5 -7.5t17.5 -2.5h19.5q118 0 203 13zM254 308v-94q0 -22 1 -32.5t5 -25.5
t15 -21.5t29 -6.5q15 0 25 6t15 12t7.5 21t2.5 21.5v25.5v51v13v6v25.5t-2.5 21.5t-7.5 21t-15 12t-25 6q-50 0 -50 -62zM594 320v-18h92v17q0 37 -11 50t-35 13t-35 -13t-11 -49z" />
    <glyph glyph-name="Racute" unicode="&#x154;" horiz-adv-x="720" 
d="M424 0l-82 244h-22v-244h-260v700h300q182 0 256 -55t74 -196q0 -85 -31.5 -134t-75.5 -65l127 -250h-286zM320 507v-119h50q59 0 59 61q0 29 -12.5 43.5t-46.5 14.5h-50zM287 760l39 140h199l-126 -140h-112z" />
    <glyph glyph-name="racute" unicode="&#x155;" horiz-adv-x="474" 
d="M444 510l20 -191h-88q-36 0 -65.5 -38.5t-29.5 -91.5v-189h-240v500h240v-41q51 51 122 51h41zM178 560l23 180h195l-96 -180h-122z" />
    <glyph glyph-name="Rcommaaccent" unicode="&#x156;" horiz-adv-x="720" 
d="M424 0l-82 244h-22v-244h-260v700h300q182 0 256 -55t74 -196q0 -85 -31.5 -134t-75.5 -65l127 -250h-286zM320 507v-119h50q59 0 59 61q0 29 -12.5 43.5t-46.5 14.5h-50zM236 -46h260v-44q0 -31 -18.5 -59t-46.5 -46t-53 -29.5t-45 -15.5l-68 40q19 5 35 19.5t16 30.5
h-80v104z" />
    <glyph glyph-name="rcommaaccent" unicode="&#x157;" horiz-adv-x="478" 
d="M448 510l20 -191h-88q-36 0 -65.5 -38.5t-29.5 -91.5v-189h-240v500h240v-41q51 51 122 51h41zM41 -46h260v-44q0 -31 -18.5 -59t-46.5 -46t-53 -29.5t-45 -15.5l-68 40q19 5 35 19.5t16 30.5h-80v104z" />
    <glyph glyph-name="Rcaron" unicode="&#x158;" horiz-adv-x="720" 
d="M424 0l-82 244h-22v-244h-260v700h300q182 0 256 -55t74 -196q0 -85 -31.5 -134t-75.5 -65l127 -250h-286zM320 507v-119h50q59 0 59 61q0 29 -12.5 43.5t-46.5 14.5h-50zM443 760h-205l-107 140h167l39 -75l36 75h167z" />
    <glyph glyph-name="rcaron" unicode="&#x159;" horiz-adv-x="481" 
d="M451 510l20 -191h-88q-36 0 -65.5 -38.5t-29.5 -91.5v-189h-240v500h240v-41q51 51 122 51h41zM332 560h-165l-127 180h157l49 -95l46 95h157z" />
    <glyph glyph-name="Sacute" unicode="&#x15a;" horiz-adv-x="677" 
d="M328 710q149 0 282 -23l-25 -180q-56 11 -132.5 18t-107.5 7q-57 0 -57 -23q0 -22 40 -33q20 -5 53.5 -13t50.5 -12t44.5 -12t41.5 -14.5t34.5 -17.5t30.5 -22.5t22.5 -28.5t18.5 -37t10 -45.5t4 -56.5q0 -126 -80 -176t-230 -51q-152 -1 -292 42l25 180q178 -35 267 -35
q50 0 50 19q0 30 -50 43q-27 7 -67 17t-61.5 15t-50.5 14.5t-43.5 19.5t-32.5 26.5t-26 37.5t-13.5 50.5t-5.5 68.5q0 120 75.5 171t224.5 51zM224 760l23 180h195l-96 -180h-122z" />
    <glyph glyph-name="sacute" unicode="&#x15b;" horiz-adv-x="585" 
d="M302 510q117 0 229 -25l-21 -125q-101 22 -208 22q-23 0 -31.5 -6t-8.5 -20q0 -13 5.5 -18.5t24.5 -7.5q120 -16 153 -26q92 -29 105 -112q2 -15 2 -33q-1 -98 -58 -133.5t-192 -35.5q-154 0 -276 21l16 126q170 -22 232 -21q38 1 38 16q0 23 -40 29q-117 19 -151 32
q-78 29 -94 107q-5 25 -5 56q0 82 70 118t210 36zM238 560l23 180h195l-96 -180h-122z" />
    <glyph glyph-name="Scedilla" unicode="&#x15e;" horiz-adv-x="677" 
d="M328 710q149 0 282 -23l-25 -180q-56 11 -132.5 18t-107.5 7q-57 0 -57 -23q0 -22 40 -33q20 -5 53.5 -13t50.5 -12t44.5 -12t41.5 -14.5t34.5 -17.5t30.5 -22.5t22.5 -28.5t18.5 -37t10 -45.5t4 -56.5q0 -120 -72 -170.5t-206 -55.5v-23h25q33 0 52 -21.5t19 -53.5
q0 -42 -26 -67.5t-79 -25.5q-79 0 -122 15l14 69q38 -6 58 -6q18 0 24 4t6 14q0 17 -29 17q-20 0 -48 -2l15 81q-127 7 -233 40l25 180q178 -35 267 -35q50 0 50 19q0 30 -50 43q-27 7 -67 17t-61.5 15t-50.5 14.5t-43.5 19.5t-32.5 26.5t-26 37.5t-13.5 50.5t-5.5 68.5
q0 120 75.5 171t224.5 51z" />
    <glyph glyph-name="scedilla" unicode="&#x15f;" horiz-adv-x="585" 
d="M302 510q117 0 229 -25l-21 -125q-101 22 -208 22q-23 0 -31.5 -6t-8.5 -20q0 -13 5.5 -18.5t24.5 -7.5q120 -16 153 -26q92 -29 105 -112q2 -15 2 -33q-1 -97 -57.5 -132.5t-189.5 -36.5v-22h25q33 0 52 -21.5t19 -53.5q0 -42 -26 -67.5t-79 -25.5q-79 0 -122 15l14 69
q38 -6 58 -6q18 0 24 4t6 14q0 17 -29 17q-20 0 -48 -2l15 81q-90 3 -188 19l16 126q170 -22 232 -21q38 1 38 16q0 23 -40 29q-117 19 -151 32q-78 29 -94 107q-5 25 -5 56q0 82 70 118t210 36z" />
    <glyph glyph-name="Scaron" unicode="&#x160;" horiz-adv-x="677" 
d="M328 710q149 0 282 -23l-25 -180q-56 11 -132.5 18t-107.5 7q-57 0 -57 -23q0 -22 40 -33q20 -5 53.5 -13t50.5 -12t44.5 -12t41.5 -14.5t34.5 -17.5t30.5 -22.5t22.5 -28.5t18.5 -37t10 -45.5t4 -56.5q0 -126 -80 -176t-230 -51q-152 -1 -292 42l25 180q178 -35 267 -35
q50 0 50 19q0 30 -50 43q-27 7 -67 17t-61.5 15t-50.5 14.5t-43.5 19.5t-32.5 26.5t-26 37.5t-13.5 50.5t-5.5 68.5q0 120 75.5 171t224.5 51zM440 760h-205l-107 140h167l39 -75l36 75h167z" />
    <glyph glyph-name="scaron" unicode="&#x161;" horiz-adv-x="585" 
d="M302 510q117 0 229 -25l-21 -125q-101 22 -208 22q-23 0 -31.5 -6t-8.5 -20q0 -13 5.5 -18.5t24.5 -7.5q120 -16 153 -26q92 -29 105 -112q2 -15 2 -33q-1 -98 -58 -133.5t-192 -35.5q-154 0 -276 21l16 126q170 -22 232 -21q38 1 38 16q0 23 -40 29q-117 19 -151 32
q-78 29 -94 107q-5 25 -5 56q0 82 70 118t210 36zM375 560h-165l-127 180h157l49 -95l46 95h157z" />
    <glyph glyph-name="Tcommaaccent" unicode="&#x162;" horiz-adv-x="615" 
d="M12 470v230h580v-230h-160v-470h-260v470h-160zM172 -46h260v-44q0 -31 -18.5 -59t-46.5 -46t-53 -29.5t-45 -15.5l-68 40q19 5 35 19.5t16 30.5h-80v104z" />
    <glyph glyph-name="tcommaaccent" unicode="&#x163;" horiz-adv-x="440" 
d="M0 340v160h50v120l240 20v-140h100v-160h-100v-154q0 -34 28 -35q27 -1 79 5l24 -147q-83 -19 -169 -19q-110 0 -156 31.5t-46 116.5v202h-50zM120 -46h260v-44q0 -31 -18.5 -59t-46.5 -46t-53 -29.5t-45 -15.5l-68 40q19 5 35 19.5t16 30.5h-80v104z" />
    <glyph glyph-name="Tcaron" unicode="&#x164;" horiz-adv-x="615" 
d="M12 470v230h580v-230h-160v-470h-260v470h-160zM409 760h-205l-107 140h167l39 -75l36 75h167z" />
    <glyph glyph-name="tcaron" unicode="&#x165;" horiz-adv-x="654" 
d="M0 340v160h50v120l240 20v-140h100v-160h-100v-154q0 -34 28 -35q27 -1 79 5l24 -147q-83 -19 -169 -19q-110 0 -156 31.5t-46 116.5v202h-50zM380 750h260v-124q0 -64 -46.5 -133t-103.5 -101l-81 47q51 45 51 107h-80v204z" />
    <glyph glyph-name="Umacron" unicode="&#x16a;" horiz-adv-x="758" 
d="M446 700h240v-450q0 -58 -16.5 -103.5t-44 -74.5t-67.5 -48t-84 -26.5t-96 -7.5q-161 0 -241.5 58.5t-80.5 201.5v450h270v-460q0 -30 12.5 -40t49.5 -10t47.5 9.5t10.5 40.5v460zM172 787v127h398v-127h-398z" />
    <glyph glyph-name="umacron" unicode="&#x16b;" horiz-adv-x="680" 
d="M40 500h240v-287q0 -30 13.5 -41.5t38.5 -11.5q26 0 48 10v330h240v-500h-240v22q-123 -32 -208 -32q-66 0 -99 38t-33 99v373zM131 587v127h398v-127h-398z" />
    <glyph glyph-name="Uring" unicode="&#x16e;" horiz-adv-x="758" 
d="M446 700h240v-450q0 -58 -16.5 -103.5t-44 -74.5t-67.5 -48t-84 -26.5t-96 -7.5q-161 0 -241.5 58.5t-80.5 201.5v450h270v-460q0 -30 12.5 -40t49.5 -10t47.5 9.5t10.5 40.5v460zM384 904q70 0 103.5 -28.5t33.5 -74.5t-33.5 -74.5t-103.5 -28.5t-103.5 28.5t-33.5 74.5
t33.5 74.5t103.5 28.5zM427 801q0 38 -43 38t-43 -38t43 -38t43 38z" />
    <glyph glyph-name="uring" unicode="&#x16f;" horiz-adv-x="681" 
d="M41 500h240v-287q0 -30 13.5 -41.5t38.5 -11.5q26 0 48 10v330h240v-500h-240v22q-123 -32 -208 -32q-66 0 -99 38t-33 99v373zM331 781q49 0 85.5 -36.5t36.5 -85.5t-36.5 -85.5t-85.5 -36.5t-85.5 36.5t-36.5 85.5t36.5 85.5t85.5 36.5zM377 659q0 19 -13.5 32.5
t-32.5 13.5t-32.5 -13.5t-13.5 -32.5t13.5 -32.5t32.5 -13.5t32.5 13.5t13.5 32.5z" />
    <glyph glyph-name="Uhungarumlaut" unicode="&#x170;" horiz-adv-x="758" 
d="M446 700h240v-450q0 -58 -16.5 -103.5t-44 -74.5t-67.5 -48t-84 -26.5t-96 -7.5q-161 0 -241.5 58.5t-80.5 201.5v450h270v-460q0 -30 12.5 -40t49.5 -10t47.5 9.5t10.5 40.5v460zM178 760l53 180h195l-126 -180h-122zM416 760l53 180h195l-126 -180h-122z" />
    <glyph glyph-name="uhungarumlaut" unicode="&#x171;" horiz-adv-x="681" 
d="M41 500h240v-287q0 -30 13.5 -41.5t38.5 -11.5q26 0 48 10v330h240v-500h-240v22q-123 -32 -208 -32q-66 0 -99 38t-33 99v373zM128 560l53 180h195l-126 -180h-122zM366 560l53 180h195l-126 -180h-122z" />
    <glyph glyph-name="Uogonek" unicode="&#x172;" horiz-adv-x="758" 
d="M451 -90l11 -95q-66 -15 -148 -15q-50 0 -69.5 15t-19.5 54q0 65 117 122q-142 6 -214 65t-72 194v450h270v-460q0 -30 12.5 -40t49.5 -10t47.5 9.5t10.5 40.5v460h240v-450q0 -225 -232 -255q-75 -37 -75 -64t28 -27q23 0 44 6z" />
    <glyph glyph-name="uogonek" unicode="&#x173;" horiz-adv-x="680" 
d="M464 -90l11 -95q-66 -15 -148 -15q-50 0 -69.5 15t-19.5 54q0 41 42 75t100 58v20q-123 -32 -208 -32q-66 0 -99 38t-33 99v373h240v-287q0 -30 13.5 -41.5t38.5 -11.5q26 0 48 10v330h240v-500h-142q-86 -40 -86 -69q0 -27 28 -27q23 0 44 6z" />
    <glyph glyph-name="Ydieresis" unicode="&#x178;" horiz-adv-x="682" 
d="M200 184l-221 516h281l65 -293l73 293h283l-221 -514v-186h-260v184zM123 900h171v-140h-171v140zM355 900h172v-140h-172v140z" />
    <glyph glyph-name="Zacute" unicode="&#x179;" horiz-adv-x="626" 
d="M29 520v180h550v-187l-251 -333h271v-180h-580v187l260 333h-250zM250 760l39 140h199l-126 -140h-112z" />
    <glyph glyph-name="zacute" unicode="&#x17a;" horiz-adv-x="530" 
d="M30 340v160h444v-113l-133 -226h155v-161h-470v113l143 227h-139zM182 560l23 180h195l-96 -180h-122z" />
    <glyph glyph-name="Zdotaccent" unicode="&#x17b;" horiz-adv-x="628" 
d="M34 520v180h550v-187l-251 -333h271v-180h-580v187l260 333h-250zM184 900h240v-140h-240v140z" />
    <glyph glyph-name="zdotaccent" unicode="&#x17c;" horiz-adv-x="530" 
d="M30 340v160h444v-113l-133 -226h155v-161h-470v113l143 227h-139zM141 717h240v-137h-240v137z" />
    <glyph glyph-name="Zcaron" unicode="&#x17d;" horiz-adv-x="644" 
d="M42 520v180h550v-187l-251 -333h271v-180h-580v187l260 333h-250zM428 760h-205l-107 140h167l39 -75l36 75h167z" />
    <glyph glyph-name="zcaron" unicode="&#x17e;" horiz-adv-x="530" 
d="M30 340v160h444v-113l-133 -226h155v-161h-470v113l143 227h-139zM349 560h-165l-127 180h157l49 -95l46 95h157z" />
    <glyph glyph-name="florin" unicode="&#x192;" horiz-adv-x="522" 
d="M526 729l-29 -157q-45 8 -82 8q-28 0 -38 -17t-11 -50v-13h110v-170h-110v-296v-12v-22h-1q-14 -200 -205 -200q-92 0 -164 21l29 157q32 -8 52 -8q27 0 37 15t12 46v299h-70v170h70v16q0 121 51.5 177.5t154.5 56.5q122 0 194 -21z" />
    <glyph glyph-name="Ohorn" unicode="&#x1a0;" horiz-adv-x="856" 
d="M727 700h144q0 -69 -44 -112.5t-107 -59.5q14 -47 14 -105v-156q0 -66 -17.5 -115t-47.5 -79.5t-75.5 -49.5t-95.5 -26t-114 -7t-114 7t-95.5 26t-75.5 49.5t-47.5 79.5t-17.5 115v156q0 82 26 139.5t75 89t109.5 45t139.5 13.5q241 0 314 -131q29 26 29 121zM304 400
v-100q0 -29 2 -45t9.5 -33t24 -24.5t44.5 -7.5q52 0 66 26t14 84v100q0 29 -2 45t-9.5 33t-24 24.5t-44.5 7.5t-45 -7.5t-24 -25t-9 -33t-2 -44.5z" />
    <glyph glyph-name="ohorn" unicode="&#x1a1;" horiz-adv-x="720" 
d="M606 500h144q0 -71 -46 -114.5t-111 -58.5q3 -18 3 -39v-78q0 -111 -74.5 -166t-215.5 -55q-280 0 -280 221v78q0 221 280 221q218 0 273 -129q27 28 27 120zM256 308v-94q0 -22 1 -32.5t5 -25.5t15 -21.5t29 -6.5q15 0 25 6t15 12t7.5 21t2.5 21.5v25.5v70v25.5
t-2.5 21.5t-7.5 21t-15 12t-25 6q-50 0 -50 -62z" />
    <glyph glyph-name="Uhorn" unicode="&#x1af;" horiz-adv-x="862" 
d="M729 700h144q0 -41 -17.5 -75t-46 -55t-60 -33t-63.5 -15v-272q0 -58 -16.5 -103.5t-44 -74.5t-67.5 -48t-84 -26.5t-96 -7.5q-161 0 -241.5 58.5t-80.5 201.5v450h270v-460q0 -30 12.5 -40t49.5 -10t47.5 9.5t10.5 40.5v460h240v-131q43 21 43 131z" />
    <glyph glyph-name="uhorn" unicode="&#x1b0;" horiz-adv-x="795" 
d="M680 500h144q0 -56 -32.5 -97.5t-74.5 -60t-87 -21.5v-321h-240v22q-123 -32 -208 -32q-66 0 -99 38t-33 99v373h240v-287q0 -30 13.5 -41.5t38.5 -11.5q26 0 48 10v330h240v-134q26 8 38 38.5t12 95.5z" />
    <glyph glyph-name="Scommaaccent" unicode="&#x218;" horiz-adv-x="676" 
d="M328 710q149 0 282 -23l-25 -180q-56 11 -132.5 18t-107.5 7q-57 0 -57 -23q0 -22 40 -33q20 -5 53.5 -13t50.5 -12t44.5 -12t41.5 -14.5t34.5 -17.5t30.5 -22.5t22.5 -28.5t18.5 -37t10 -45.5t4 -56.5q0 -126 -80 -176t-230 -51q-152 -1 -292 42l25 180q178 -35 267 -35
q50 0 50 19q0 30 -50 43q-27 7 -67 17t-61.5 15t-50.5 14.5t-43.5 19.5t-32.5 26.5t-26 37.5t-13.5 50.5t-5.5 68.5q0 120 75.5 171t224.5 51zM217 -46h260v-44q0 -31 -18.5 -59t-46.5 -46t-53 -29.5t-45 -15.5l-68 40q19 5 35 19.5t16 30.5h-80v104z" />
    <glyph glyph-name="scommaaccent" unicode="&#x219;" horiz-adv-x="585" 
d="M302 510q117 0 229 -25l-21 -125q-101 22 -208 22q-23 0 -31.5 -6t-8.5 -20q0 -13 5.5 -18.5t24.5 -7.5q120 -16 153 -26q92 -29 105 -112q2 -15 2 -33q-1 -98 -58 -133.5t-192 -35.5q-154 0 -276 21l16 126q170 -22 232 -21q38 1 38 16q0 23 -40 29q-117 19 -151 32
q-78 29 -94 107q-5 25 -5 56q0 82 70 118t210 36zM157 -46h260v-44q0 -31 -18.5 -59t-46.5 -46t-53 -29.5t-45 -15.5l-68 40q19 5 35 19.5t16 30.5h-80v104z" />
    <glyph glyph-name="circumflex" unicode="&#x2c6;" horiz-adv-x="539" 
d="M185 740h165l127 -180h-157l-49 95l-46 -95h-157z" />
    <glyph glyph-name="caron" unicode="&#x2c7;" horiz-adv-x="539" 
d="M360 560h-165l-127 180h157l49 -95l46 95h157z" />
    <glyph glyph-name="breve" unicode="&#x2d8;" horiz-adv-x="648" 
d="M104 730h160q0 -45 13.5 -61t46.5 -16t46.5 16t13.5 61h160v-18q0 -142 -220 -142t-220 142v18z" />
    <glyph glyph-name="dotaccent" unicode="&#x2d9;" horiz-adv-x="316" 
d="M38 717h240v-137h-240v137z" />
    <glyph glyph-name="ring" unicode="&#x2da;" horiz-adv-x="416" 
d="M208 781q50 0 86 -36.5t36 -85.5t-36 -85.5t-86 -36.5t-86 36.5t-36 85.5t36 85.5t86 36.5zM254 659q0 19 -13.5 32.5t-32.5 13.5t-32.5 -13.5t-13.5 -32.5t13 -32.5t33 -13.5t33 13.5t13 32.5z" />
    <glyph glyph-name="ogonek" unicode="&#x2db;" horiz-adv-x="567" 
d="M467 -90l11 -95q-66 -15 -148 -15q-50 0 -69.5 15t-19.5 54q0 28 22.5 55.5t57 46.5t64.5 31.5t55 19.5l41 -22q-86 -40 -86 -69q0 -27 28 -27q23 0 44 6z" />
    <glyph glyph-name="tilde" unicode="&#x2dc;" horiz-adv-x="527" 
d="M88 564l-51 83q22 34 56.5 61.5t73.5 27.5q21 0 40 -10.5t30.5 -23.5t25 -23.5t24.5 -10.5q17 0 32 9.5t23.5 21t22.5 32.5l51 -86q-46 -83 -125 -83q-24 0 -47.5 17t-43 34t-35.5 17q-7 0 -13 -2t-12.5 -6.5t-11 -8t-11.5 -12t-10 -12t-10 -13.5t-9 -12z" />
    <glyph glyph-name="hungarumlaut" unicode="&#x2dd;" horiz-adv-x="644" 
d="M50 560l53 180h195l-126 -180h-122zM288 560l53 180h195l-126 -180h-122z" />
    <glyph glyph-name="gravecomb" unicode="&#x300;" horiz-adv-x="0" 
d="M-94 740l20 -180h-122l-76 180h178z" />
    <glyph glyph-name="acutecomb" unicode="&#x301;" horiz-adv-x="23" 
d="M-362 560l23 180h195l-96 -180h-122z" />
    <glyph glyph-name="tildecomb" unicode="&#x303;" horiz-adv-x="390" 
d="M52 564l-51 83q22 34 56.5 61.5t73.5 27.5q21 0 40 -10.5t30.5 -23.5t25 -23.5t24.5 -10.5q17 0 32 9.5t23.5 21t22.5 32.5l51 -86q-46 -83 -125 -83q-24 0 -47.5 17t-43 34t-35.5 17q-7 0 -13 -2t-12.5 -6.5t-11 -8t-11.5 -12t-10 -12t-10 -13.5t-9 -12z" />
    <glyph glyph-name="hookabovecomb" unicode="&#x309;" horiz-adv-x="234" 
d="M81 700h144q0 -86 -67.5 -132.5t-141.5 -46.5l-5 41q37 4 53.5 33.5t16.5 104.5z" />
    <glyph glyph-name="dotbelowcomb" unicode="&#x323;" horiz-adv-x="385" 
d="M101 -81h240v-117h-240v117z" />
    <glyph glyph-name="pi" unicode="&#x3c0;" horiz-adv-x="828" 
d="M468 340h-100v-340h-240v340q-40 0 -78 -64l-54 156q59 68 132 68h652v-160h-72v-155q0 -65 45 -65q20 0 29 3l8 -122q-56 -11 -131 -11q-114 0 -152.5 36.5t-38.5 147.5v166z" />
    <glyph glyph-name="rho" unicode="&#x3c1;" horiz-adv-x="610" 
d="M270 -200h-240v493q0 58 31 103t80 70t100.5 37.5t100.5 12.5q131 0 189.5 -72.5t58.5 -193.5q0 -56 -9 -98.5t-30.5 -78t-62.5 -54.5t-101 -19q-39 0 -62 6.5t-55 23.5v-230zM270 293v-130q24 -6 31 -6q23 0 36 23t13 70q0 54 -15 75q-9 14 -28 14q-21 0 -29 -16t-8 -30
z" />
    <glyph glyph-name="afii10023" unicode="&#x401;" horiz-adv-x="614" 
d="M320 260v-62h250v-198h-510v700h510v-198h-250v-62h190v-180h-190zM88 930h201v-167h-201v167zM340 930h202v-167h-202v167z" />
    <glyph glyph-name="afii10051" unicode="&#x402;" horiz-adv-x="815" 
d="M12 470v230h580v-230h-160v-52h143q103 0 150 -52.5t47 -165.5q0 -111 -46 -155.5t-154 -44.5h-111l-10 159h31q20 0 30 16t10 35t-10 35t-30 16h-50v-261h-260v470h-160z" />
    <glyph glyph-name="afii10052" unicode="&#x403;" horiz-adv-x="590" 
d="M320 0h-260v700h510v-230h-250v-470zM256 760l23 180h195l-96 -180h-122z" />
    <glyph glyph-name="afii10053" unicode="&#x404;" horiz-adv-x="634" 
d="M295 273v-18q0 -55 75 -55q84 0 204 20l40 -200q-140 -30 -244 -30q-52 0 -99 9t-91 30.5t-76 54.5t-51 85t-19 118v126q0 81 28.5 141t78 92.5t106.5 48t123 15.5q51 0 112 -7.5t96 -14.5l36 -8l-40 -200q-27 9 -100.5 19.5t-103.5 10.5q-75 0 -75 -59v-18h239v-160
h-239z" />
    <glyph glyph-name="afii10054" unicode="&#x405;" horiz-adv-x="687" 
d="M333 710q149 0 282 -23l-25 -180q-56 11 -132.5 18t-107.5 7q-57 0 -57 -23q0 -22 40 -33q20 -5 53.5 -13t50.5 -12t44.5 -12t41.5 -14.5t34.5 -17.5t30.5 -22.5t22.5 -28.5t18.5 -37t10 -45.5t4 -56.5q0 -126 -80 -176t-230 -51q-152 -1 -292 42l25 180q177 -35 267 -35
q50 0 50 19q0 30 -50 43q-27 7 -67 17t-61.5 15t-50.5 14.5t-43.5 19.5t-32.5 26.5t-26 37.5t-13.5 50.5t-5.5 68.5q0 120 75.5 171t224.5 51z" />
    <glyph glyph-name="afii10055" unicode="&#x406;" horiz-adv-x="510" 
d="M30 500v200h430v-200h-85v-300h95v-200h-450v200h95v300h-85z" />
    <glyph glyph-name="afii10056" unicode="&#x407;" horiz-adv-x="510" 
d="M30 500v200h430v-200h-85v-300h95v-200h-450v200h95v300h-85zM63 917h161v-137h-161v137zM275 918h162v-138h-162v138z" />
    <glyph glyph-name="afii10057" unicode="&#x408;" horiz-adv-x="518" 
d="M156 -10q-96 0 -192 29l27 204q66 -23 105 -23t59.5 10t20.5 42v448h260v-474q0 -72 -19.5 -120t-59 -72.5t-86.5 -34t-115 -9.5z" />
    <glyph glyph-name="afii10058" unicode="&#x409;" horiz-adv-x="1141" 
d="M768 0h-290v470h-103q-7 -200 -33 -301t-79 -140t-155 -39q-45 0 -85 10l-30 203q17 0 38 3q25 4 43.5 21.5t30 52.5t18.5 72.5t10 100t4 113.5t1 134h600v-236l30 3q175 17 252.5 -42t77.5 -190q0 -128 -75.5 -181.5t-254.5 -53.5zM778 299q-24 0 -40 -2v-127h30
q35 0 52 14.5t17 51.5q0 63 -59 63z" />
    <glyph glyph-name="afii10059" unicode="&#x40a;" horiz-adv-x="1153" 
d="M780 0h-290v260h-170v-260h-260v700h260v-240h170v240h260v-236l30 3q175 17 252.5 -42t77.5 -190q0 -128 -75.5 -181.5t-254.5 -53.5zM780 297h-30v-127h30q38 0 53.5 13t15.5 50t-16.5 50.5t-52.5 13.5z" />
    <glyph glyph-name="afii10060" unicode="&#x40b;" horiz-adv-x="911" 
d="M12 470v230h580v-230h-160v-88q100 28 211 28q199 0 199 -211v-199h-260v150q0 20 -13.5 30t-32.5 10q-49 0 -104 -13v-177h-260v470h-160z" />
    <glyph glyph-name="afii10061" unicode="&#x40c;" horiz-adv-x="719" 
d="M320 700v-292h16l87 292h293l-136 -323l145 -377h-285l-102 320h-18v-320h-260v700h260zM323 760l23 180h195l-96 -180h-122z" />
    <glyph glyph-name="afii10062" unicode="&#x40e;" horiz-adv-x="721" 
d="M306 218q-17 0 -39 5t-49.5 17.5t-54 38t-42.5 60.5l-114 361h302l74 -337h5l58 337h270l-164 -542q-20 -51 -57 -87t-81.5 -52t-81.5 -22.5t-76 -6.5q-130 0 -227 26l42 185q68 -20 117 -20q25 0 39 0.5t33.5 4t30.5 11.5t15 21zM159 900h167q0 -32 10.5 -44t45.5 -12
t45.5 12t10.5 44h167v-25q0 -35 -17.5 -58.5t-51 -35.5t-69.5 -16.5t-85 -4.5t-85 4.5t-69.5 16.5t-51 35.5t-17.5 58.5v25z" />
    <glyph glyph-name="afii10145" unicode="&#x40f;" horiz-adv-x="830" 
d="M60 700h260v-480h170v480h260v-700h-219l-4 -128h-248v128h-219v700z" />
    <glyph glyph-name="afii10017" unicode="&#x410;" horiz-adv-x="726" 
d="M449 0l-19 100h-156l-20 -100h-273l210 700h329l201 -700h-272zM358 457l-50 -187h89z" />
    <glyph glyph-name="afii10018" unicode="&#x411;" horiz-adv-x="712" 
d="M320 500v-62h143q103 0 150 -52.5t47 -165.5t-47.5 -166.5t-152.5 -53.5h-400v700h550v-200h-290zM380 261h-60v-82h60q14 0 22 12t8 29t-8 29t-22 12z" />
    <glyph glyph-name="afii10019" unicode="&#x412;" horiz-adv-x="689" 
d="M60 0v700h360q46 0 78.5 -7t62 -25.5t44.5 -55.5t15 -92q0 -106 -83 -136q16 -4 27.5 -9t27 -17t25 -29.5t16.5 -48t7 -70.5q0 -115 -46.5 -162.5t-153.5 -47.5h-380zM310 270v-100h60q14 0 22 16t8 34t-8 34t-22 16h-60zM350 530h-40v-90h40q14 0 22 16t8 34q0 16 -8 28
t-22 12z" />
    <glyph glyph-name="afii10020" unicode="&#x413;" horiz-adv-x="590" 
d="M320 0h-260v700h510v-230h-250v-470z" />
    <glyph glyph-name="afii10021" unicode="&#x414;" horiz-adv-x="855" 
d="M144 700h580v-500h80l-20 -400h-240v200h-280l-10 -200h-250v400h76q64 120 64 500zM464 480h-79q-15 -201 -55 -280h134v280z" />
    <glyph glyph-name="afii10022" unicode="&#x415;" horiz-adv-x="614" 
d="M320 260v-62h250v-198h-510v700h510v-198h-250v-62h190v-180h-190z" />
    <glyph glyph-name="afii10024" unicode="&#x416;" horiz-adv-x="1021" 
d="M129 375l-124 325h272l77 -291h17v291h260v-291h17l77 291h272l-124 -325l120 -375h-263l-83 337h-16v-337h-260v337h-17l-84 -337h-263z" />
    <glyph glyph-name="afii10025" unicode="&#x417;" horiz-adv-x="636" 
d="M32 22l30 187q12 -2 52 -10.5t68.5 -12.5t56.5 -4q51 0 72 9t21 35q0 27 -27.5 37.5t-109.5 10.5h-79v160h120q42 0 55.5 11t13.5 32q0 22 -15.5 31t-53.5 9q-42 0 -167 -23l-32 188q90 28 211 28q168 0 237.5 -36.5t69.5 -138.5q0 -69 -24 -100.5t-68 -47.5
q64 -18 96.5 -58t32.5 -122q0 -56 -16 -95.5t-42.5 -63.5t-73.5 -37t-97 -17t-124 -4q-64 0 -122.5 10t-84.5 22z" />
    <glyph glyph-name="afii10026" unicode="&#x418;" horiz-adv-x="810" 
d="M60 700h260v-310l206 310h204v-700h-260v310l-206 -310h-204v700z" />
    <glyph glyph-name="afii10027" unicode="&#x419;" horiz-adv-x="810" 
d="M60 700h260v-310l206 310h204v-700h-260v310l-206 -310h-204v700zM172 900h167q0 -32 10.5 -44t45.5 -12t45.5 12t10.5 44h167v-25q0 -35 -17.5 -58.5t-51 -35.5t-69.5 -16.5t-85 -4.5t-85 4.5t-69.5 16.5t-51 35.5t-17.5 58.5v25z" />
    <glyph glyph-name="afii10028" unicode="&#x41a;" horiz-adv-x="719" 
d="M320 700v-292h16l87 292h293l-136 -323l145 -377h-285l-102 320h-18v-320h-260v700h260z" />
    <glyph glyph-name="afii10029" unicode="&#x41b;" horiz-adv-x="828" 
d="M148 700h600v-700h-260v470h-103q-7 -200 -33 -301t-79 -140t-155 -39q-45 0 -85 10l-30 203q17 0 38 3q25 4 43.5 21.5t30 52.5t18.5 72.5t10 100t4 113.5t1 134z" />
    <glyph glyph-name="afii10030" unicode="&#x41c;" horiz-adv-x="1075" 
d="M326 390l-20 -390h-250l56 700h301l115 -410l114 410h301l56 -700h-250l-19 390l-102 -390h-200z" />
    <glyph glyph-name="afii10031" unicode="&#x41d;" horiz-adv-x="830" 
d="M490 700h260v-700h-260v260h-170v-260h-260v700h260v-240h170v240z" />
    <glyph glyph-name="afii10032" unicode="&#x41e;" horiz-adv-x="778" 
d="M29 267v156q0 82 26 139.5t75 89t109.5 45t139.5 13.5t139.5 -13.5t109.5 -45t75 -89t26 -139.5v-156q0 -66 -17.5 -115t-47.5 -79.5t-75.5 -49.5t-95.5 -26t-114 -7t-114 7t-95.5 26t-75.5 49.5t-47.5 79.5t-17.5 115zM299 400v-100q0 -29 2 -45t9.5 -33t24 -24.5
t44.5 -7.5q52 0 66 26t14 84v100q0 29 -2 45t-9.5 33t-24 24.5t-44.5 7.5t-45 -7.5t-24 -25t-9 -33t-2 -44.5z" />
    <glyph glyph-name="afii10033" unicode="&#x41f;" horiz-adv-x="830" 
d="M320 0h-260v700h690v-700h-260v480h-170v-480z" />
    <glyph glyph-name="afii10034" unicode="&#x420;" horiz-adv-x="713" 
d="M60 700h290q179 0 254.5 -63.5t75.5 -213.5t-75 -212t-255 -62h-30v-149h-260v700zM320 499v-150h30q36 0 52.5 16t16.5 60t-15.5 59t-53.5 15h-30z" />
    <glyph glyph-name="afii10035" unicode="&#x421;" horiz-adv-x="571" 
d="M519 240l32 -220q-116 -30 -186 -30q-53 0 -99.5 9t-90.5 30.5t-76 54.5t-51 85t-19 118v126q0 81 28.5 141t78 92.5t106.5 48t123 15.5q31 0 77.5 -7.5t77.5 -14.5l31 -8l-42 -220q-108 20 -144 20q-34 0 -55 -20t-21 -50v-120q0 -70 76 -70q16 0 54.5 5t68.5 10z" />
    <glyph glyph-name="afii10036" unicode="&#x422;" horiz-adv-x="615" 
d="M12 470v230h580v-230h-160v-470h-260v470h-160z" />
    <glyph glyph-name="afii10037" unicode="&#x423;" horiz-adv-x="721" 
d="M306 218q-17 0 -39 5t-49.5 17.5t-54 38t-42.5 60.5l-114 361h302l74 -337h5l58 337h270l-164 -542q-20 -51 -57 -87t-81.5 -52t-81.5 -22.5t-76 -6.5q-130 0 -227 26l42 185q68 -20 117 -20q25 0 39 0.5t33.5 4t30.5 11.5t15 21z" />
    <glyph glyph-name="afii10038" unicode="&#x424;" horiz-adv-x="1006" 
d="M362 740h260v-60h10q174 0 252 -66t78 -219v-50q0 -153 -78 -219t-252 -66h-10v-60h-260v60h-10q-174 0 -252 66t-78 219v50q0 153 78 219t252 66h10v60zM632 499h-10v-258h10q41 0 55.5 22t14.5 82v50q0 57 -13.5 80.5t-56.5 23.5zM282 345q0 -60 14.5 -82t55.5 -22h10
v257h-10q-43 0 -56.5 -23t-13.5 -80v-50z" />
    <glyph glyph-name="afii10039" unicode="&#x425;" horiz-adv-x="753" 
d="M296 700l70 -236l69 236h311l-170 -350l170 -350h-311l-69 235l-70 -235h-310l169 350l-169 350h310z" />
    <glyph glyph-name="afii10040" unicode="&#x426;" horiz-adv-x="846" 
d="M60 700h260v-500h140v500h260v-500h80l-12 -328h-248v128h-480v700z" />
    <glyph glyph-name="afii10041" unicode="&#x427;" horiz-adv-x="770" 
d="M50 700h260v-260q0 -50 44 -50q31 0 76 5v305h260v-700h-260v186q-52 -6 -94 -6q-28 0 -54 2.5t-71.5 16t-78 36.5t-57.5 71t-25 114v280z" />
    <glyph glyph-name="afii10042" unicode="&#x428;" horiz-adv-x="1060" 
d="M390 700h260v-500h70v500h260v-700h-920v700h260v-500h70v500z" />
    <glyph glyph-name="afii10043" unicode="&#x429;" horiz-adv-x="1115" 
d="M390 700h260v-500h70v500h260v-500h80l-12 -328h-248v128h-740v700h260v-500h70v500z" />
    <glyph glyph-name="afii10044" unicode="&#x42a;" horiz-adv-x="778" 
d="M125 0v513h-122l20 187h362v-236l30 3q175 17 252.5 -42t77.5 -190q0 -128 -75 -181.5t-255 -53.5h-290zM415 297h-30v-127h30q38 0 53.5 13t15.5 50t-16.5 50.5t-52.5 13.5z" />
    <glyph glyph-name="afii10045" unicode="&#x42b;" horiz-adv-x="1080" 
d="M350 0h-290v700h260v-236l30 3q175 17 252.5 -42t77.5 -190q0 -128 -75.5 -181.5t-254.5 -53.5zM740 0v700h260v-700h-260zM350 297h-30v-127h30q38 0 53.5 13t15.5 50t-16.5 50.5t-52.5 13.5z" />
    <glyph glyph-name="afii10046" unicode="&#x42c;" horiz-adv-x="713" 
d="M350 0h-290v700h260v-236l30 3q175 17 252.5 -42t77.5 -190q0 -128 -75.5 -181.5t-254.5 -53.5zM350 297h-30v-127h30q38 0 53.5 13t15.5 50t-16.5 50.5t-52.5 13.5z" />
    <glyph glyph-name="afii10047" unicode="&#x42d;" horiz-adv-x="652" 
d="M342 255v18h-239v160h239v18q0 59 -75 59q-30 0 -103.5 -10.5t-100.5 -19.5l-40 200q130 30 244 30q66 0 123 -15.5t106.5 -48t78 -92.5t28.5 -141v-126q0 -66 -19 -118t-51 -85t-76 -54.5t-91 -30.5t-99 -9q-46 0 -107 7.5t-99 14.5l-38 8l40 200q120 -20 204 -20
q75 0 75 55z" />
    <glyph glyph-name="afii10048" unicode="&#x42e;" horiz-adv-x="1049" 
d="M390 208v52h-70v-260h-260v700h260v-270h70v49q0 62 24 107.5t67 72t96 39t118 12.5q305 0 305 -281v-181q0 -64 -16.5 -111t-42.5 -75t-67 -44.5t-83 -22t-96 -5.5q-68 0 -118.5 9t-95 32t-68 67.5t-23.5 109.5zM640 461v-220q0 -61 55 -61t55 61v220q0 59 -55 59
t-55 -59z" />
    <glyph glyph-name="afii10049" unicode="&#x42f;" horiz-adv-x="783" 
d="M363 700h340v-700h-260v179h-18l-90 -179h-282l127 208q-71 23 -107.5 85.5t-36.5 152.5q0 110 78.5 182t248.5 72zM363 359h80v130h-80q-69 0 -69 -64q0 -31 18 -48.5t51 -17.5z" />
    <glyph glyph-name="afii10065" unicode="&#x430;" horiz-adv-x="607" 
d="M77 340l-15 142q37 9 115 18.5t136 9.5q41 0 80 -9t76 -30t59.5 -61.5t22.5 -95.5v-314h-240v30q-57 -40 -145 -40q-68 0 -106.5 37t-38.5 113q0 79 45.5 116t144.5 37h102v22q0 23 -11 34t-38 11q-84 0 -187 -20zM285 113q18 0 26 4v75h-26q-16 0 -25 -12t-9 -28
q0 -17 9 -28t25 -11z" />
    <glyph glyph-name="afii10066" unicode="&#x431;" horiz-adv-x="669" 
d="M33 276v132q0 141 55 208t165 84l188 29q63 10 126 35l60 -190q-44 -23 -94 -28l-172 -16q-58 -5 -80 -32t-28 -72l-3 -29q19 26 64.5 48t115.5 22q41 0 70.5 -7.5t57 -28.5t41.5 -63t14 -105v-43q0 -126 -73 -179t-217 -53q-72 0 -122.5 12.5t-90 44t-58.5 88.5t-19 143
zM323 153q27 0 38.5 16t11.5 57v23q0 39 -12 55t-38 16q-29 0 -39.5 -16t-10.5 -55v-23q0 -43 10 -58t40 -15z" />
    <glyph glyph-name="afii10067" unicode="&#x432;" horiz-adv-x="624" 
d="M41 0v500h356q84 0 120.5 -26.5t36.5 -80.5q0 -91 -97 -109q124 -7 124 -129q0 -79 -42.5 -117t-140.5 -38h-357zM314 207h-53v-91h60q17 0 28.5 13.5t11.5 34.5q0 17 -13 30t-34 13zM261 312h46q11 0 19 12t8 26q0 12 -8 24.5t-19 12.5h-46v-75z" />
    <glyph glyph-name="afii10068" unicode="&#x433;" horiz-adv-x="491" 
d="M281 0h-240v500h430v-180h-190v-320z" />
    <glyph glyph-name="afii10069" unicode="&#x434;" horiz-adv-x="737" 
d="M115 500h520v-340h59l-10 -320h-210v160h-250l-10 -160h-210v320h50q61 63 61 340zM395 360h-64q0 -113 -33 -200h97v200z" />
    <glyph glyph-name="afii10070" unicode="&#x435;" horiz-adv-x="612" 
d="M537 145l22 -138q-115 -17 -255 -17q-41 0 -77.5 5t-75 19t-65.5 37t-44.5 61.5t-17.5 88.5v64q0 129 68.5 187t211.5 58q271 0 271 -199v-113h-311v-15q0 -15 5 -25.5t10.5 -15.5t17.5 -7.5t17.5 -2.5h19.5q118 0 203 13zM264 320v-18h92v17q0 37 -11 50t-35 13t-35 -13
t-11 -49z" />
    <glyph glyph-name="afii10072" unicode="&#x436;" horiz-adv-x="901" 
d="M-6 500h224l89 -215h15v215h230v-215h15l81 215h230l-101 -241l99 -259h-227l-83 236h-14v-236h-230v234h-13l-93 -234h-221l111 259z" />
    <glyph glyph-name="afii10073" unicode="&#x437;" horiz-adv-x="526" 
d="M18 15l24 130q56 -8 151 -8q26 0 37 6t11 22q0 15 -11 21t-39 6h-104v119h83q23 0 34 5t11 21q0 15 -10.5 20t-34.5 5q-69 0 -128 -9l-24 135q86 21 237 21q99 0 149.5 -25.5t50.5 -93.5q0 -75 -87 -95q50 -9 86.5 -41.5t36.5 -88.5q0 -95 -59 -134t-179 -39
q-168 0 -235 23z" />
    <glyph glyph-name="afii10074" unicode="&#x438;" horiz-adv-x="702" 
d="M41 500h240v-241l153 241h207v-500h-240v240l-152 -240h-208v500z" />
    <glyph glyph-name="afii10075" unicode="&#x439;" horiz-adv-x="702" 
d="M41 500h240v-241l153 241h207v-500h-240v240l-152 -240h-208v500zM121 730h160q0 -45 13.5 -61t46.5 -16t46.5 16t13.5 61h160v-18q0 -142 -220 -142t-220 142v18z" />
    <glyph glyph-name="afii10076" unicode="&#x43a;" horiz-adv-x="637" 
d="M280 500v-195h10l70 195h267l-126 -242l129 -258h-262l-79 217h-9v-217h-240v500h240z" />
    <glyph glyph-name="afii10077" unicode="&#x43b;" horiz-adv-x="709" 
d="M124 500h523v-500h-240v350h-77q0 -49 -1 -81t-5.5 -73.5t-12.5 -68.5t-23 -55.5t-37 -44.5t-54 -26.5t-73 -10.5q-57 0 -100 10l-21 160h51q13 0 23 7.5t19.5 29t15 58.5t9 98.5t3.5 146.5z" />
    <glyph glyph-name="afii10078" unicode="&#x43c;" horiz-adv-x="912" 
d="M267 327l-9 -327h-212l37 500h280l85 -340l85 340h280l37 -500h-212l-9 327l-97 -327h-187z" />
    <glyph glyph-name="afii10079" unicode="&#x43d;" horiz-adv-x="700" 
d="M400 500h240v-500h-240v170h-120v-170h-240v500h240v-170h120v170z" />
    <glyph glyph-name="afii10080" unicode="&#x43e;" horiz-adv-x="636" 
d="M26 210v78q0 221 280 221q141 0 215.5 -55t74.5 -166v-78q0 -111 -74.5 -166t-215.5 -55q-280 0 -280 221zM256 308v-94q0 -22 1 -32.5t5 -25.5t15 -21.5t29 -6.5q15 0 25 6t15 12t7.5 21t2.5 21.5v25.5v70v25.5t-2.5 21.5t-7.5 21t-15 12t-25 6q-50 0 -50 -62z" />
    <glyph glyph-name="afii10081" unicode="&#x43f;" horiz-adv-x="700" 
d="M280 0h-240v500h600v-500h-240v340h-120v-340z" />
    <glyph glyph-name="afii10082" unicode="&#x440;" horiz-adv-x="642" 
d="M282 -200h-240v700h240v-30q71 46 145 46q85 0 130 -59t45 -207q0 -76 -12.5 -127t-37.5 -77t-54.5 -36t-70.5 -10q-27 0 -50 3.5t-35 7t-31.5 10l-28.5 9.5v-230zM292 341h-10v-182q23 0 31 1q25 4 37 24t12 66q0 49 -16.5 70t-53.5 21z" />
    <glyph glyph-name="afii10083" unicode="&#x441;" horiz-adv-x="486" 
d="M442 163l30 -150q-59 -22 -168 -22q-121 0 -199 54t-78 168v72q0 101 81.5 163.5t195.5 62.5q28 0 80 -6.5t88 -19.5l-30 -150q0 1 -16.5 5t-37.5 7.5t-31 3.5q-41 0 -60.5 -18t-19.5 -68v-32q0 -50 19 -67.5t61 -17.5q28 0 85 15z" />
    <glyph glyph-name="afii10084" unicode="&#x442;" horiz-adv-x="563" 
d="M4 320v180h540v-180h-148v-320h-240v320h-152z" />
    <glyph glyph-name="afii10085" unicode="&#x443;" horiz-adv-x="639" 
d="M239 -26l14 27q-43 -1 -90 32.5t-63 90.5l-104 376h268l54 -351l51 351h261l-166 -555q-37 -70 -76 -107q-70 -68 -185 -68q-79 0 -204 35l32 159q31 -9 79 -17.5t62 -8.5q19 0 28.5 1.5t19.5 9.5t19 25z" />
    <glyph glyph-name="afii10086" unicode="&#x444;" horiz-adv-x="966" 
d="M356 730h240v-240q14 7 52.5 13.5t57.5 6.5q112 0 166 -68t54 -192q0 -260 -220 -260q-19 0 -57.5 6.5t-52.5 13.5v-210h-240v210q-15 -7 -53 -13.5t-57 -6.5q-114 0 -167 65t-53 195q0 124 54 192t166 68q19 0 58 -6.5t52 -13.5v240zM603 360h-7v-221h7q38 0 60.5 28
t22.5 83q0 110 -83 110zM347 139h9v221h-9q-81 0 -81 -110q0 -60 24.5 -85t56.5 -26z" />
    <glyph glyph-name="afii10087" unicode="&#x445;" horiz-adv-x="626" 
d="M257 500l52 -176l46 176h251l-109 -240l109 -260h-252l-51 175l-46 -175h-253l111 260l-111 240h253z" />
    <glyph glyph-name="afii10088" unicode="&#x446;" horiz-adv-x="723" 
d="M41 500h240v-340h100v340h240v-340h60l-13 -320h-227v160h-400v500z" />
    <glyph glyph-name="afii10089" unicode="&#x447;" horiz-adv-x="655" 
d="M25 500h240v-180q0 -50 40 -50q10 0 50 5v225h240v-500h-240v120q-70 -10 -131 -10q-104 0 -151.5 55t-47.5 183v152z" />
    <glyph glyph-name="afii10090" unicode="&#x448;" horiz-adv-x="940" 
d="M350 500h220v-340h80v340h230v-500h-840v500h230v-340h80v340z" />
    <glyph glyph-name="afii10091" unicode="&#x449;" horiz-adv-x="990" 
d="M40 0v500h230v-340h100v340h220v-340h80v340h230v-340h60l-12 -320h-228v160h-680z" />
    <glyph glyph-name="afii10092" unicode="&#x44a;" horiz-adv-x="715" 
d="M-6 355l20 145h350v-137l49 4q146 8 208.5 -27t62.5 -152q0 -46 -14.5 -80t-39 -54.5t-63.5 -32.5t-82 -16.5t-102 -4.5h-259v355h-130zM397 236h-33v-101h40q17 0 28.5 14.5t11.5 38.5q0 20 -13 34t-34 14z" />
    <glyph glyph-name="afii10093" unicode="&#x44b;" horiz-adv-x="947" 
d="M647 0v500h240v-500h-240zM40 0v500h240v-137l49 4q146 8 208.5 -27t62.5 -152q0 -46 -14.5 -80t-39 -54.5t-63.5 -32.5t-82 -16.5t-102 -4.5h-259zM313 236h-33v-101h40q17 0 28.5 14.5t11.5 38.5q0 20 -13 34t-34 14z" />
    <glyph glyph-name="afii10094" unicode="&#x44c;" horiz-adv-x="630" 
d="M51 0v500h240v-137l49 4q146 8 208.5 -27t62.5 -152q0 -46 -14.5 -80t-39 -54.5t-63.5 -32.5t-82 -16.5t-102 -4.5h-259zM324 236h-33v-101h40q17 0 28.5 14.5t11.5 38.5q0 20 -13 34t-34 14z" />
    <glyph glyph-name="afii10095" unicode="&#x44d;" horiz-adv-x="537" 
d="M255 181v5h-158v122h158v7q0 28 -14.5 37.5t-41.5 9.5q-65 0 -131 -16l-31 132q91 32 190 32q122 0 196 -54t74 -171v-73q0 -115 -74.5 -168.5t-195.5 -53.5q-117 0 -200 30l31 132q57 -15 128 -15q69 0 69 44z" />
    <glyph glyph-name="afii10096" unicode="&#x44e;" horiz-adv-x="934" 
d="M330 170h-69v-170h-220v500h220v-190h67v15q0 62 44 105t105.5 61t132.5 18q284 0 284 -231v-58q0 -231 -284 -231q-66 0 -127.5 17.5t-107 58.5t-45.5 98v7zM563 283v-83q0 -62 47 -62q46 0 46 62v83q0 42 -8 59.5t-38 17.5q-47 0 -47 -77z" />
    <glyph glyph-name="afii10097" unicode="&#x44f;" horiz-adv-x="692" 
d="M274 500h347v-500h-240v146h-18l-75 -146h-252l104 166q-21 4 -37 10.5t-34 22t-28 45.5t-10 73q0 94 57 138.5t186 44.5zM281 318q1 -24 12 -35t38 -11h50v92h-50q-27 0 -38.5 -11t-11.5 -35z" />
    <glyph glyph-name="afii10071" unicode="&#x451;" horiz-adv-x="615" 
d="M540 145l22 -138q-115 -17 -255 -17q-41 0 -77.5 5t-75 19t-65.5 37t-44.5 61.5t-17.5 88.5v64q0 129 68.5 187t211.5 58q271 0 271 -199v-113h-311v-15q0 -15 5 -25.5t10.5 -15.5t17.5 -7.5t17.5 -2.5h19.5q119 0 203 13zM267 320v-18h92v17q0 37 -11 50t-35 13t-35 -13
t-11 -49zM110 717h161v-137h-161v137zM322 718h162v-138h-162v138z" />
    <glyph glyph-name="afii10099" unicode="&#x452;" horiz-adv-x="700" 
d="M7 546v111h44v73h240v-73h68v-111h-68v-68q69 32 161 32q33 0 54 -2t47.5 -10.5t41.5 -25.5t25.5 -48.5t10.5 -76.5v-367q0 -180 -210 -180q-81 0 -129 19l16 133q9 0 42 -3q17 0 29 9.5t12 20.5v321q0 40 -52 40q-22 0 -48 -13v-327h-240v546h-44z" />
    <glyph glyph-name="afii10100" unicode="&#x453;" horiz-adv-x="501" 
d="M291 0h-240v500h430v-180h-190v-320zM202 560l23 180h195l-96 -180h-122z" />
    <glyph glyph-name="afii10101" unicode="&#x454;" horiz-adv-x="507" 
d="M269 186v-5q0 -44 69 -44q71 0 128 15l31 -132q-83 -30 -200 -30q-121 0 -195.5 53.5t-74.5 168.5v73q0 117 74 171t196 54q99 0 190 -32l-31 -132q-66 16 -131 16q-27 0 -41.5 -9.5t-14.5 -37.5v-7h158v-122h-158z" />
    <glyph glyph-name="afii10102" unicode="&#x455;" horiz-adv-x="585" 
d="M302 510q117 0 229 -25l-21 -125q-101 22 -208 22q-23 0 -31.5 -6t-8.5 -20q0 -13 5.5 -18.5t24.5 -7.5q120 -16 153 -26q92 -29 105 -112q2 -15 2 -33q-1 -98 -58 -133.5t-192 -35.5q-154 0 -276 21l16 126q170 -22 232 -21q38 1 38 16q0 23 -40 29q-117 19 -151 32
q-78 29 -94 107q-5 25 -5 56q0 82 70 118t210 36z" />
    <glyph glyph-name="afii10103" unicode="&#x456;" horiz-adv-x="343" 
d="M41 500h240v-500h-240v500zM41 700h240v-117h-240v117z" />
    <glyph glyph-name="afii10104" unicode="&#x457;" horiz-adv-x="368" 
d="M50 500h240v-500h-240v500zM-17 750h161v-167h-161v167zM195 750h162v-167h-162v167z" />
    <glyph glyph-name="afii10105" unicode="&#x458;" horiz-adv-x="358" 
d="M-42 -181l16 133q9 0 42 -3q17 0 29 9.5t12 20.5v521h240v-520q0 -180 -210 -180q-82 0 -129 19zM57 700h240v-117h-240v117z" />
    <glyph glyph-name="afii10106" unicode="&#x459;" horiz-adv-x="986" 
d="M407 0v350h-77q0 -49 -1 -81t-5.5 -73.5t-12.5 -68.5t-23 -55.5t-37 -44.5t-54 -26.5t-73 -10.5q-57 0 -100 10l-21 160h51q13 0 23 7.5t19.5 29t15 58.5t9 98.5t3.5 146.5h523v-137l49 4q146 8 208.5 -27t62.5 -152q0 -46 -14.5 -80t-39 -54.5t-63.5 -32.5t-82 -16.5
t-102 -4.5h-259zM680 236h-33v-101h40q17 0 28.5 14.5t11.5 38.5q0 20 -13 34t-34 14z" />
    <glyph glyph-name="afii10107" unicode="&#x45a;" horiz-adv-x="980" 
d="M401 0v170h-120v-170h-240v500h240v-170h120v170h240v-137l49 4q146 8 208.5 -27t62.5 -152q0 -46 -14.5 -80t-39 -54.5t-63.5 -32.5t-82 -16.5t-102 -4.5h-259zM674 236h-33v-101h40q17 0 28.5 14.5t11.5 38.5q0 20 -13 34t-34 14z" />
    <glyph glyph-name="afii10108" unicode="&#x45b;" horiz-adv-x="691" 
d="M7 546v111h44v73h240v-73h68v-111h-68v-68q69 32 161 32q33 0 54 -2t47.5 -10.5t41.5 -25.5t25.5 -48.5t10.5 -76.5v-347h-240v300q0 40 -52 40q-22 0 -48 -13v-327h-240v546h-44z" />
    <glyph glyph-name="afii10109" unicode="&#x45c;" horiz-adv-x="638" 
d="M281 500v-195h10l70 195h267l-126 -242l129 -258h-262l-79 217h-9v-217h-240v500h240zM277 560l23 180h195l-96 -180h-122z" />
    <glyph glyph-name="afii10110" unicode="&#x45e;" horiz-adv-x="637" 
d="M237 -26l14 27q-43 -1 -90 32.5t-63 90.5l-104 376h268l54 -351l51 351h261l-166 -555q-37 -70 -76 -107q-70 -68 -185 -68q-79 0 -204 35l32 159q31 -9 79 -17.5t62 -8.5q19 0 28.5 1.5t19.5 9.5t19 25zM98 730h160q0 -45 13.5 -61t46.5 -16t46.5 16t13.5 61h160v-18
q0 -142 -220 -142t-220 142v18z" />
    <glyph glyph-name="afii10193" unicode="&#x45f;" horiz-adv-x="703" 
d="M41 500h240v-340h120v340h240v-500h-178l-5 -128h-248v128h-169v500z" />
    <glyph glyph-name="afii10147" unicode="&#x472;" horiz-adv-x="778" 
d="M29 267v156q0 82 26 139.5t75 89t109.5 45t139.5 13.5t139.5 -13.5t109.5 -45t75 -89t26 -139.5v-156q0 -66 -17.5 -115t-47.5 -79.5t-75.5 -49.5t-95.5 -26t-114 -7t-114 7t-95.5 26t-75.5 49.5t-47.5 79.5t-17.5 115zM379 190q45 0 61 20.5t18 62.5h-159
q3 -42 19 -62.5t61 -20.5zM379 510q-43 0 -59.5 -19t-19.5 -56h158q-3 38 -19.5 56.5t-59.5 18.5z" />
    <glyph glyph-name="afii10195" unicode="&#x473;" horiz-adv-x="636" 
d="M26 210v78q0 221 280 221q141 0 215.5 -55t74.5 -166v-78q0 -111 -74.5 -166t-215.5 -55q-280 0 -280 221zM306 128q21 0 32.5 11t14 23.5t3.5 34.5h-100q0 -33 9.5 -51t40.5 -18zM356 307q-1 30 -11 46.5t-39 16.5q-50 0 -50 -62v-1h100z" />
    <glyph glyph-name="afii10050" unicode="&#x490;" horiz-adv-x="598" 
d="M320 0h-260v700h356l5 148h188v-378h-289v-470z" />
    <glyph glyph-name="afii10098" unicode="&#x491;" horiz-adv-x="501" 
d="M291 0h-240v500h266l6 146h158v-326h-190v-320z" />
    <glyph glyph-name="uni0492" unicode="&#x492;" horiz-adv-x="623" 
d="M11 240v140h60v320h510v-230h-250v-90h160v-140h-160v-240h-260v240h-60z" />
    <glyph glyph-name="uni0493" unicode="&#x493;" horiz-adv-x="512" 
d="M12 120v130h50v250h430v-180h-190v-70h120v-130h-120v-120h-240v120h-50z" />
    <glyph glyph-name="uni0496" unicode="&#x496;" horiz-adv-x="1064" 
d="M119 375l-124 325h272l77 -291h17v291h260v-291h17l77 291h272l-124 -325l56 -175h125l-12 -328h-238v128h-74l-83 337h-16v-337h-260v337h-17l-84 -337h-263z" />
    <glyph glyph-name="uni0497" unicode="&#x497;" horiz-adv-x="963" 
d="M-9 500h224l89 -215h15v215h230v-215h15l81 215h230l-101 -241l38 -99h124l-12 -320h-217v160h-61l-83 236h-14v-236h-230v234h-13l-93 -234h-221l111 259z" />
    <glyph glyph-name="uni0498" unicode="&#x498;" horiz-adv-x="636" 
d="M32 22l30 187q12 -2 52 -10.5t68.5 -12.5t56.5 -4q51 0 72 9t21 35q0 27 -27.5 37.5t-109.5 10.5h-79v160h120q42 0 55.5 11t13.5 32q0 22 -15.5 31t-53.5 9q-42 0 -167 -23l-32 188q90 28 211 28q168 0 237.5 -36.5t69.5 -138.5q0 -69 -24 -100.5t-68 -47.5
q64 -18 96.5 -58t32.5 -122q0 -111 -58 -157.5t-181 -55.5q29 -46 29 -96q0 -65 -32 -92t-102 -27q-85 0 -139 15l17 116q44 -6 64 -6q40 0 40 42q0 16 -7 44q-61 1 -114.5 11t-76.5 21z" />
    <glyph glyph-name="uni0499" unicode="&#x499;" horiz-adv-x="527" 
d="M19 15l24 130q56 -8 151 -8q26 0 37 6t11 22q0 15 -11 21t-39 6h-104v119h83q23 0 34 5t11 21q0 15 -10.5 20t-34.5 5q-69 0 -128 -9l-24 135q86 21 237 21q99 0 149.5 -25.5t50.5 -93.5q0 -75 -87 -95q50 -9 86.5 -41.5t36.5 -88.5q0 -83 -45 -122.5t-136 -47.5
q30 -45 30 -97q0 -65 -32 -92t-102 -27q-85 0 -139 15l17 116q44 -6 64 -6q40 0 40 42q0 21 -8 48q-120 6 -162 21z" />
    <glyph glyph-name="uni049A" unicode="&#x49a;" horiz-adv-x="777" 
d="M320 700v-292h16l87 292h293l-136 -323l68 -177h109l-12 -328h-238v128h-67l-102 320h-18v-320h-260v700h260z" />
    <glyph glyph-name="uni049B" unicode="&#x49b;" horiz-adv-x="687" 
d="M281 500v-195h10l70 195h267l-126 -242l49 -98h109l-12 -320h-217v160h-62l-79 217h-9v-217h-240v500h240z" />
    <glyph glyph-name="uni049C" unicode="&#x49c;" horiz-adv-x="909" 
d="M466 119h-98v161h-48v-280h-260v700h260v-252h48v132h98v-132h30l97 252h293l-136 -323l145 -377h-285l-112 280h-32v-161z" />
    <glyph glyph-name="uni049D" unicode="&#x49d;" horiz-adv-x="792" 
d="M281 500v-195h42v89h88v-89h35l60 195h267l-113 -242l116 -258h-262l-69 217h-34v-111h-88v111h-42v-217h-240v500h240z" />
    <glyph glyph-name="uni04A0" unicode="&#x4a0;" horiz-adv-x="804" 
d="M3 513l20 187h362v-292h16l87 292h293l-136 -323l145 -377h-285l-102 320h-18v-320h-260v513h-122z" />
    <glyph glyph-name="uni04A1" unicode="&#x4a1;" horiz-adv-x="721" 
d="M-6 355l20 145h350v-195h10l70 195h267l-126 -242l129 -258h-262l-79 217h-9v-217h-240v355h-130z" />
    <glyph glyph-name="uni04A2" unicode="&#x4a2;" horiz-adv-x="877" 
d="M490 700h260v-500h80l-12 -328h-248v128h-80v260h-170v-260h-260v700h260v-240h170v240z" />
    <glyph glyph-name="uni04A3" unicode="&#x4a3;" horiz-adv-x="743" 
d="M401 500h240v-340h59l-12 -320h-217v160h-70v170h-120v-170h-240v500h240v-170h120v170z" />
    <glyph glyph-name="uni04AA" unicode="&#x4aa;" horiz-adv-x="576" 
d="M524 240l32 -220q-92 -24 -162 -29q28 -44 28 -93q0 -65 -32 -92t-102 -27q-85 0 -139 15l17 116q44 -6 64 -6q40 0 40 42q0 25 -11 55q-102 23 -163.5 92.5t-61.5 193.5v126q0 81 28.5 141t78 92.5t106.5 48t123 15.5q31 0 77.5 -7.5t77.5 -14.5l31 -8l-42 -220
q-108 20 -144 20q-34 0 -55 -20t-21 -50v-120q0 -70 76 -70q16 0 54.5 5t69.5 10z" />
    <glyph glyph-name="uni04AB" unicode="&#x4ab;" horiz-adv-x="481" 
d="M442 163l30 -150q-36 -14 -109 -20q29 -46 29 -95q0 -65 -32 -92t-102 -27q-85 0 -139 15l17 116q44 -6 64 -6q40 0 40 42q0 23 -9 50q-93 15 -148.5 68t-55.5 149v72q0 101 81.5 163.5t195.5 62.5q28 0 80 -6.5t88 -19.5l-30 -150q0 1 -16.5 5t-37.5 7.5t-31 3.5
q-41 0 -60.5 -18t-19.5 -68v-32q0 -50 19 -67.5t61 -17.5q28 0 85 15z" />
    <glyph glyph-name="uni04AE" unicode="&#x4ae;" horiz-adv-x="670" 
d="M205 184l-221 516h281l65 -293l73 293h283l-221 -514v-186h-260v184z" />
    <glyph glyph-name="uni04AF" unicode="&#x4af;" horiz-adv-x="622" 
d="M427 -250h-240v231l-190 519h249l57 -310h9l55 310h249l-189 -519v-231z" />
    <glyph glyph-name="uni04B0" unicode="&#x4b0;" horiz-adv-x="707" 
d="M80 150v160h81l-167 390h281l65 -293l73 293h283l-168 -390h82v-160h-135v-150h-260v150h-135z" />
    <glyph glyph-name="uni04B1" unicode="&#x4b1;" horiz-adv-x="623" 
d="M43 0v190h68l-113 310h249l57 -310h9l55 310h249l-113 -310h69v-190h-138l-7 -19v-231h-240v231l-7 19h-138z" />
    <glyph glyph-name="uni04B2" unicode="&#x4b2;" horiz-adv-x="794" 
d="M304 700l70 -236l69 236h311l-170 -350l73 -150h117l-12 -328h-238v128h-81l-69 235l-70 -235h-310l169 350l-169 350h310z" />
    <glyph glyph-name="uni04B3" unicode="&#x4b3;" horiz-adv-x="666" 
d="M254 500l52 -176l46 176h251l-109 -240l42 -100h104l-12 -320h-217v160h-60l-51 175l-46 -175h-253l111 260l-111 240h253z" />
    <glyph glyph-name="uni04B8" unicode="&#x4b8;" horiz-adv-x="840" 
d="M50 700h260v-230q0 -50 44 -50h4v160h98v-158l44 3v275h260v-700h-260v216l-44 -3v-94h-98v91h-22q-28 0 -54 2.5t-71.5 16t-78 36.5t-57.5 71t-25 114v250z" />
    <glyph glyph-name="uni04B9" unicode="&#x4b9;" horiz-adv-x="714" 
d="M22 500h240v-152q0 -45 32 -50v96h88v-94l30 3v197h240v-500h-240v160l-30 -3v-51h-88v44q-46 -2 -73 -2q-104 0 -151.5 55t-47.5 183v114z" />
    <glyph glyph-name="uni04BA" unicode="&#x4ba;" horiz-adv-x="814" 
d="M730 0h-260v250q0 20 -13.5 30t-32.5 10q-49 0 -104 -13v-277h-260v700h260v-218q100 28 211 28q199 0 199 -211v-299z" />
    <glyph glyph-name="uni04BB" unicode="&#x4bb;" horiz-adv-x="690" 
d="M621 0h-240v300q0 40 -52 40q-22 0 -48 -13v-327h-240v700h240v-222q69 32 161 32q33 0 54 -2t47.5 -10.5t41.5 -25.5t25.5 -48.5t10.5 -76.5v-347z" />
    <glyph glyph-name="uni04D8" unicode="&#x4d8;" horiz-adv-x="737" 
d="M28 267v166h400q-2 46 -18 61.5t-62 15.5q-117 0 -240 -30l-40 200q146 30 270 30q161 0 255.5 -73.5t94.5 -233.5v-116q0 -149 -87.5 -223t-242.5 -74q-154 0 -242 70.5t-88 206.5zM428 273h-130v-7q0 -47 14.5 -64t50.5 -17t50.5 17t14.5 64v7z" />
    <glyph glyph-name="afii10846" unicode="&#x4d9;" horiz-adv-x="617" 
d="M64 355l-22 138q115 17 255 17q41 0 77.5 -5t75 -19t65.5 -37t44.5 -61.5t17.5 -88.5v-64q0 -129 -68.5 -187t-211.5 -58q-271 0 -271 199v113h311v15q0 15 -5 25.5t-10.5 15.5t-17.5 7.5t-17.5 2.5h-19.5q-119 0 -203 -13zM337 180v18h-92v-17q0 -37 11 -50t35 -13
t35 13t11 49z" />
    <glyph glyph-name="endash" unicode="&#x2013;" horiz-adv-x="801" 
d="M60 155v200h661v-200h-661z" />
    <glyph glyph-name="emdash" unicode="&#x2014;" horiz-adv-x="1056" 
d="M48 155v200h940v-200h-940z" />
    <glyph glyph-name="quoteleft" unicode="&#x2018;" horiz-adv-x="360" 
d="M308 392h-260v124q0 64 46.5 133t103.5 101l81 -47q-51 -45 -51 -107h80v-204z" />
    <glyph glyph-name="quoteright" unicode="&#x2019;" horiz-adv-x="360" 
d="M50 700h260v-124q0 -64 -46.5 -133t-103.5 -101l-81 47q51 45 51 107h-80v204z" />
    <glyph glyph-name="quotesinglbase" unicode="&#x201a;" horiz-adv-x="348" 
d="M44 204h260v-124q0 -64 -46.5 -133t-103.5 -101l-81 47q51 45 51 107h-80v204z" />
    <glyph glyph-name="quotedblleft" unicode="&#x201c;" horiz-adv-x="672" 
d="M628 392h-260v124q0 64 46.5 133t103.5 101l81 -47q-51 -45 -51 -107h80v-204zM308 392h-260v124q0 64 46.5 133t103.5 101l81 -47q-51 -45 -51 -107h80v-204z" />
    <glyph glyph-name="quotedblright" unicode="&#x201d;" horiz-adv-x="672" 
d="M50 700h260v-124q0 -64 -46.5 -133t-103.5 -101l-81 47q51 45 51 107h-80v204zM370 700h260v-124q0 -64 -46.5 -133t-103.5 -101l-81 47q51 45 51 107h-80v204z" />
    <glyph glyph-name="quotedblbase" unicode="&#x201e;" horiz-adv-x="668" 
d="M48 204h260v-124q0 -64 -46.5 -133t-103.5 -101l-81 47q51 45 51 107h-80v204zM368 204h260v-124q0 -64 -46.5 -133t-103.5 -101l-81 47q51 45 51 107h-80v204z" />
    <glyph glyph-name="dagger" unicode="&#x2020;" horiz-adv-x="576" 
d="M38 330v170h120v200h260v-200h120v-170h-120v-530h-260v530h-120z" />
    <glyph glyph-name="daggerdbl" unicode="&#x2021;" horiz-adv-x="536" 
d="M18 330v170h120v200h260v-200h120v-170h-120v-160h120v-170h-120v-200h-260v200h-120v170h120v160h-120z" />
    <glyph glyph-name="bullet" unicode="&#x2022;" horiz-adv-x="494" 
d="M76 266q0 72 39.5 117.5t120.5 45.5q82 0 123 -45.5t41 -117.5q0 -71 -41 -116t-123 -45q-81 0 -120.5 44.5t-39.5 116.5z" />
    <glyph glyph-name="ellipsis" unicode="&#x2026;" horiz-adv-x="1032" 
d="M726 204h260v-204h-260v204zM386 204h260v-204h-260v204zM46 204h260v-204h-260v204z" />
    <glyph glyph-name="perthousand" unicode="&#x2030;" horiz-adv-x="1521" 
d="M855 -10q-190 0 -190 177v55q0 94 50.5 138t139.5 44q190 0 190 -182v-55q0 -177 -190 -177zM236 710q190 0 190 -182v-55q0 -177 -190 -177t-190 177v55q0 94 50.5 138t139.5 44zM201 538v-52q0 -40 6 -57.5t29 -17.5q21 0 27.5 13.5t6.5 44.5v52q0 22 -1 34.5t-9 26
t-24 13.5q-35 0 -35 -57zM855 289q-16 0 -24.5 -13.5t-9.5 -26t-1 -34.5v-52q0 -31 6.5 -44.5t28.5 -13.5q21 0 27.5 13.5t6.5 44.5v69q0 57 -34 57zM807 700l-309 -700h-219l308 700h220zM1285 -10q-190 0 -190 177v55q0 94 50.5 138t139.5 44q190 0 190 -182v-55
q0 -177 -190 -177zM1285 289q-16 0 -24.5 -13.5t-9.5 -26t-1 -34.5v-52q0 -31 6.5 -44.5t28.5 -13.5q21 0 27.5 13.5t6.5 44.5v69q0 57 -34 57z" />
    <glyph glyph-name="guilsinglleft" unicode="&#x2039;" horiz-adv-x="397" 
d="M48 265l119 204h198l-96 -204l94 -213h-204z" />
    <glyph glyph-name="guilsinglright" unicode="&#x203a;" horiz-adv-x="413" 
d="M144 265l-96 204h198l119 -204l-111 -213h-204z" />
    <glyph glyph-name="fraction" unicode="&#x2044;" horiz-adv-x="649" 
d="M657 680l-532 -696l-153 112l534 697z" />
    <glyph glyph-name="zerosuperior" unicode="&#x2070;" horiz-adv-x="428" 
d="M26 473v56q0 183 191 183q85 0 137.5 -44t52.5 -139v-56q0 -178 -190 -178q-90 0 -140 41.5t-51 136.5zM217 599q-36 0 -36 -58v-74q0 -31 7 -44.5t29 -13.5q20 0 27 14t7 44v74q0 58 -34 58z" />
    <glyph glyph-name="foursuperior" unicode="&#x2074;" horiz-adv-x="441" 
d="M187 703h172v-207h58l-16 -114h-42v-80h-150v80h-193v105zM209 584l-81 -88h81v88z" />
    <glyph glyph-name="fivesuperior" unicode="&#x2075;" horiz-adv-x="424" 
d="M39 320l17 107q41 -7 126 -9q53 0 53 29q0 15 -12 19.5t-36 4.5q-49 0 -125 -4l18 245h297l-6 -116h-164l-4 -39q26 8 74 8q115 0 115 -116q0 -45 -15.5 -76t-44.5 -46t-58.5 -20.5t-67.5 -5.5q-118 0 -167 19z" />
    <glyph glyph-name="sixsuperior" unicode="&#x2076;" horiz-adv-x="426" 
d="M33 477v54q0 85 55 132.5t141 47.5q89 0 162 -21l-20 -104q-47 15 -124 15q-29 0 -47 -12t-18 -35v-12q32 13 98 13q120 0 120 -126q0 -132 -171 -132q-196 0 -196 180zM182 469v-23q0 -22 10 -29t32 -7q31 0 31 30q0 35 -35 35q-16 0 -38 -6z" />
    <glyph glyph-name="sevensuperior" unicode="&#x2077;" horiz-adv-x="423" 
d="M268 302h-171q0 169 120 269h-175v132h338v-96q-39 -30 -75.5 -110.5t-36.5 -194.5z" />
    <glyph glyph-name="eightsuperior" unicode="&#x2078;" horiz-adv-x="433" 
d="M328 522q80 -31 80 -112q0 -34 -17.5 -58t-47.5 -35t-58.5 -15.5t-60.5 -4.5q-30 0 -57 4t-59.5 14.5t-51.5 34.5t-19 60q0 81 80 112q-64 21 -64 93q0 96 171 96q168 0 168 -96q0 -72 -64 -93zM217 460q-4 -3 -13 -7t-13 -9.5t-4 -16.5q0 -31 37 -31q15 0 25.5 8.5
t10.5 22.5q0 24 -43 33zM224 623q-34 0 -34 -24q0 -13 9 -21.5t15.5 -10.5t20.5 -5q2 3 8 8t8 8t4.5 8.5t2.5 12.5q0 24 -34 24z" />
    <glyph glyph-name="ninesuperior" unicode="&#x2079;" horiz-adv-x="427" 
d="M396 531v-54q0 -85 -55 -132.5t-141 -47.5q-78 0 -160 20l18 105q46 -15 123 -15q65 0 65 47v12q-30 -13 -97 -13q-121 0 -121 126q0 132 172 132q196 0 196 -180zM246 539v23q0 23 -7.5 29t-28.5 6q-36 0 -36 -29q0 -35 41 -35q16 0 31 6z" />
    <glyph glyph-name="parenleftsuperior" unicode="&#x207d;" horiz-adv-x="353" 
d="M52 522q0 140 91 305l151 -25q-43 -73 -61 -134.5t-18 -145.5q0 -83 18.5 -144.5t60.5 -133.5l-151 -25q-91 153 -91 303z" />
    <glyph glyph-name="parenrightsuperior" unicode="&#x207e;" horiz-adv-x="385" 
d="M294 522q0 -150 -91 -303l-151 25q42 72 60.5 133.5t18.5 144.5q0 84 -18 145.5t-61 134.5l151 25q91 -165 91 -305z" />
    <glyph glyph-name="zeroinferior" unicode="&#x2080;" horiz-adv-x="436" 
d="M24 171v56q0 183 191 183q85 0 137.5 -44t52.5 -139v-56q0 -178 -190 -178q-90 0 -140 41.5t-51 136.5zM215 297q-36 0 -36 -58v-74q0 -31 7 -44.5t29 -13.5q20 0 27 14t7 44v74q0 58 -34 58z" />
    <glyph glyph-name="oneinferior" unicode="&#x2081;" horiz-adv-x="429" 
d="M48 260l165 141h117v-401h-154v218l-82 -67z" />
    <glyph glyph-name="twoinferior" unicode="&#x2082;" horiz-adv-x="420" 
d="M226 410q72 0 122.5 -28.5t50.5 -96.5q0 -36 -8.5 -59.5t-33 -38t-41 -19.5t-57.5 -15q-11 -3 -16 -4q-17 -4 -24 -6.5t-12.5 -9t-5.5 -17.5h194v-116h-341v56q0 82 19.5 117t88.5 57q9 3 25.5 7.5t25.5 7.5t19.5 7.5t15.5 9t5 9.5q0 15 -30 15q-73 0 -144 -15l-17 113
q30 11 81 18.5t83 7.5z" />
    <glyph glyph-name="threeinferior" unicode="&#x2083;" horiz-adv-x="416" 
d="M42 14l16 114q67 -13 125 -13h7h10.5h11.5t12.5 1.5t10.5 4t7.5 6.5t2.5 9q0 8 -4 13t-14 7t-16 2h-21h-9h-76l-15 91h91h7h9.5t9.5 0.5t9.5 1.5t7.5 3.5t6 6t2 8.5q0 7 -3.5 11.5t-13 6t-14.5 1.5h-20q-31 0 -119 -13l-20 113q15 5 61.5 13t73.5 8h33t34 -1.5t38.5 -5
t32.5 -11t30.5 -17.5t17.5 -27t8 -39q0 -41 -13.5 -58.5t-38.5 -25.5q35 -11 53.5 -34t18.5 -71q0 -26 -7.5 -46t-17.5 -33t-30 -22t-35 -13.5t-42 -6.5t-42.5 -2.5t-44.5 -0.5q-26 0 -72 7t-58 12z" />
    <glyph glyph-name="fourinferior" unicode="&#x2084;" horiz-adv-x="437" 
d="M185 401h172v-207h58l-16 -114h-42v-80h-150v80h-193v105zM207 282l-81 -88h81v88z" />
    <glyph glyph-name="fiveinferior" unicode="&#x2085;" horiz-adv-x="420" 
d="M37 18l17 107q41 -7 126 -9q53 0 53 29q0 15 -12 19.5t-36 4.5q-49 0 -125 -4l18 245h297l-6 -116h-164l-4 -39q26 8 74 8q115 0 115 -116q0 -45 -15.5 -76t-44.5 -46t-58.5 -20.5t-67.5 -5.5q-118 0 -167 19z" />
    <glyph glyph-name="sixinferior" unicode="&#x2086;" horiz-adv-x="422" 
d="M31 175v54q0 85 55 132.5t141 47.5q89 0 162 -21l-20 -104q-47 15 -124 15q-29 0 -47 -12t-18 -35v-12q32 13 98 13q120 0 120 -126q0 -132 -171 -132q-196 0 -196 180zM180 167v-23q0 -22 10 -29t32 -7q31 0 31 30q0 33 -31 35q-14 1 -42 -6z" />
    <glyph glyph-name="seveninferior" unicode="&#x2087;" horiz-adv-x="419" 
d="M266 0h-171q0 169 120 269h-175v132h338v-96q-39 -30 -75.5 -110.5t-36.5 -194.5z" />
    <glyph glyph-name="eightinferior" unicode="&#x2088;" horiz-adv-x="428" 
d="M214 158q-4 -3 -10.5 -7t-10 -6.5t-6.5 -7.5t-3 -12q0 -31 37 -31q15 0 25.5 8.5t10.5 22.5q0 24 -43 33zM221 321q-34 0 -34 -24q0 -13 9 -21.5t15.5 -10.5t20.5 -5q2 3 8 8t8 8t4.5 8.5t2.5 12.5q0 24 -34 24zM325 220q80 -31 80 -112q0 -34 -17.5 -58t-47.5 -35
t-58.5 -15.5t-60.5 -4.5q-30 0 -57 4t-59.5 14.5t-51.5 34.5t-19 60q0 81 80 112q-64 21 -64 93q0 96 171 96q168 0 168 -96q0 -72 -64 -93z" />
    <glyph glyph-name="nineinferior" unicode="&#x2089;" horiz-adv-x="423" 
d="M244 237v23q0 23 -7.5 29t-28.5 6q-36 0 -36 -29q0 -35 41 -35q16 0 31 6zM394 229v-54q0 -85 -55 -132.5t-141 -47.5q-78 0 -160 20l18 105q46 -15 123 -15q65 0 65 47v12q-30 -13 -97 -13q-121 0 -121 126q0 132 172 132q196 0 196 -180z" />
    <glyph glyph-name="parenleftinferior" unicode="&#x208d;" horiz-adv-x="316" 
d="M50 220q0 140 91 305l151 -25q-43 -73 -61 -134.5t-18 -145.5q0 -83 18.5 -144.5t60.5 -133.5l-151 -25q-91 153 -91 303z" />
    <glyph glyph-name="parenrightinferior" unicode="&#x208e;" horiz-adv-x="315" 
d="M276 220q0 -150 -91 -303l-151 25q42 72 60.5 133.5t18.5 144.5q0 84 -18 145.5t-61 134.5l151 25q91 -165 91 -305z" />
    <glyph glyph-name="dong" unicode="&#x20ab;" horiz-adv-x="673" 
d="M356 700h240v-38h40v-116h-40v-546h-240v30q-1 0 -17 -12t-40.5 -20t-57.5 -8q-39 0 -72.5 11.5t-65 39t-49.5 81t-18 128.5q0 150 50 205t157 55q33 0 56.5 -7t32.5 -13t24 -20v76h-98v116h98v38zM55 -190v140h543v-140h-543zM336 159h20v182h-20q-35 0 -47.5 -17.5
t-12.5 -73.5q0 -51 12.5 -71t47.5 -20z" />
    <glyph glyph-name="Euro" unicode="&#x20ac;" horiz-adv-x="680" 
d="M54 364l-20 116h65v7q0 62 25 107.5t69 69.5t94 35t110 11q53 0 115 -7.5t98 -14.5l36 -8l-42 -180q-101 6 -160 9q-90 6 -90 -22v-7h247l-19 -116h-228v-26h224l-18 -116h-206v-8q0 -28 91 -23l169 9l32 -180q-130 -30 -249 -30q-61 0 -110.5 10.5t-93.5 34t-69 69.5
t-25 110v8h-45l-20 116h60v26h-40z" />
    <glyph glyph-name="uni20B4" unicode="&#x20b4;" 
d="M30 385v95h292q10 12 10 22q0 18 -12.5 24t-44.5 6q-20 0 -38.5 -1t-30 -1.5t-32 -4t-27 -4.5t-35.5 -6.5t-37 -7.5l-25 180q133 23 274 23q64 0 109 -7t83 -25.5t57 -54.5t19 -91q0 -27 -5 -52h43v-95h-102q-20 -19 -51 -40h153v-95h-287q-21 -21 -21 -40q0 -33 50 -33
q107 0 227 35l25 -180q-136 -42 -273 -42q-49 0 -87.5 4t-78 16t-65.5 32t-42 54.5t-16 80.5q0 40 9 73h-41v95h101q18 17 50 40h-151z" />
    <glyph glyph-name="uni20BD" unicode="&#x20bd;" horiz-adv-x="775" 
d="M38 219v150h81v331h291q178 0 253.5 -55t75.5 -186q0 -132 -71 -186t-249 -54h-40v-30h282v-151h-282v-38h-260v38h-81v151h81v30h-81zM379 499v-130h30q69 0 69 66q0 64 -69 64h-30z" />
    <glyph glyph-name="afii61352" unicode="&#x2116;" horiz-adv-x="1211" 
d="M845 700l23 -167h-80q-35 0 -63.5 -20t-28.5 -66v-447h-245l-145 298v-298h-230v700h253l137 -289v117q0 53 20 89t57.5 53t75 23.5t87.5 6.5h139zM741 307v21q0 167 211 167q106 0 162.5 -42t56.5 -125v-21q0 -166 -219 -166q-211 0 -211 166zM914 325v-15
q0 -20 1.5 -31.5t10.5 -22t26 -10.5q25 0 31.5 16.5t6.5 47.5v15q0 20 -1.5 31.5t-10.5 22.5t-26 11q-38 0 -38 -65z" />
    <glyph glyph-name="trademark" unicode="&#x2122;" horiz-adv-x="1058" 
d="M49 585v115h290v-115h-80v-234h-130v234h-80zM624 543l-10 -192h-125l28 349h150l58 -205l57 205h150l28 -349h-125l-9 193l-51 -193h-100z" />
    <glyph glyph-name="Omega" unicode="&#x2126;" horiz-adv-x="1155" 
d="M601 0v195q12 3 15 5q20 12 26 35t6 65v100q0 29 -2 45t-9.5 33t-24 24.5t-44.5 7.5q-52 0 -66 -26t-14 -84v-100q0 -42 6 -65t26 -35q3 -2 15 -5v-195h-523v250h171v-120h79q-44 50 -44 137v156q0 82 26 139.5t75 89t109.5 45t139.5 13.5t139.5 -13.5t109.5 -45t75 -89
t26 -139.5v-156q0 -80 -45 -137h80v120h171v-250h-523z" />
    <glyph glyph-name="onethird" unicode="&#x2153;" horiz-adv-x="1039" 
d="M48 562l165 141h117v-401h-154v218l-82 -67zM771 700q-264 -597 -309 -700h-209q66 148 308 700h210zM664 13l16 114q65 -13 142 -13q45 0 45 21q0 14 -12 18t-36 4h-92l-15 91h101q41 0 41 20q0 13 -11.5 16t-35.5 3q-55 0 -123 -13l-20 113q57 21 142 21q24 0 38 -0.5
t40 -3t42 -9t33 -17t25.5 -29t8.5 -42.5q0 -41 -13.5 -58.5t-38.5 -25.5q35 -11 53.5 -34t18.5 -71q0 -26 -7.5 -46t-17.5 -33t-30 -22t-35 -13.5t-42 -6.5t-42.5 -2.5t-44.5 -0.5q-26 0 -72 7t-58 12z" />
    <glyph glyph-name="twothirds" unicode="&#x2154;" horiz-adv-x="1116" 
d="M227 712q72 0 122.5 -28.5t50.5 -96.5q0 -36 -8.5 -59.5t-33 -38t-41 -19.5t-57.5 -15q-11 -3 -16 -4q-17 -4 -24 -6.5t-12.5 -9t-5.5 -17.5h194v-116h-341v56q0 82 19.5 117t88.5 57q9 3 25.5 7.5t25.5 7.5t19.5 7.5t15.5 9t5 9.5q0 15 -30 15q-73 0 -144 -15l-17 113
q30 11 81 18.5t83 7.5zM727 14l16 114q65 -13 142 -13q45 0 45 21q0 14 -12 18t-36 4h-92l-15 91h101q41 0 41 20q0 13 -11.5 16t-35.5 3q-55 0 -123 -13l-20 113q57 21 145 21q23 0 37 -0.5t39 -3t41 -9t33 -17t25.5 -29t8.5 -42.5q0 -41 -13.5 -58.5t-38.5 -25.5
q35 -11 53.5 -34t18.5 -71q0 -26 -7.5 -46t-17.5 -33t-30 -22t-35 -13.5t-42 -6.5t-42.5 -2.5t-44.5 -0.5q-26 0 -72 7t-58 12zM826 700q-264 -597 -309 -700h-209q66 148 308 700h210z" />
    <glyph glyph-name="oneeighth" unicode="&#x215b;" horiz-adv-x="1064" 
d="M48 562l165 141h117v-401h-154v218l-82 -67zM832 158q-4 -3 -10.5 -7t-10 -6.5t-6.5 -7.5t-3 -12q0 -31 37 -31q15 0 25.5 8.5t10.5 22.5q0 24 -43 33zM839 321q-34 0 -34 -24q0 -13 9 -21.5t15.5 -10.5t20.5 -5q2 3 8 8t8 8t4.5 8.5t2.5 12.5q0 24 -34 24zM943 220
q80 -31 80 -112q0 -34 -17.5 -58t-47.5 -35t-58.5 -15.5t-60.5 -4.5q-30 0 -57 4t-59.5 14.5t-51.5 34.5t-19 60q0 81 80 112q-64 21 -64 93q0 96 171 96q168 0 168 -96q0 -72 -64 -93zM775 700q-264 -597 -309 -700h-209q66 148 308 700h210z" />
    <glyph glyph-name="threeeighths" unicode="&#x215c;" horiz-adv-x="1078" 
d="M864 158q-4 -3 -10.5 -7t-10 -6.5t-6.5 -7.5t-3 -12q0 -31 37 -31q15 0 25.5 8.5t10.5 22.5q0 24 -43 33zM871 321q-34 0 -34 -24q0 -13 9 -21.5t15.5 -10.5t20.5 -5q2 3 8 8t8 8t4.5 8.5t2.5 12.5q0 24 -34 24zM975 220q80 -31 80 -112q0 -34 -17.5 -58t-47.5 -35
t-58.5 -15.5t-60.5 -4.5q-30 0 -57 4t-59.5 14.5t-51.5 34.5t-19 60q0 81 80 112q-64 21 -64 93q0 96 171 96q168 0 168 -96q0 -72 -64 -93zM807 700q-264 -597 -309 -700h-209q66 148 308 700h210zM46 316l16 114q65 -13 142 -13q45 0 45 21q0 14 -12 18t-36 4h-92l-15 91
h101q41 0 41 20q0 13 -11.5 16t-35.5 3q-55 0 -123 -13l-20 113q60 21 145 21q23 0 37 -0.5t39 -3t41 -9t33 -17t25.5 -29t8.5 -42.5q0 -41 -13.5 -58.5t-38.5 -25.5q35 -11 53.5 -34t18.5 -71q0 -26 -7.5 -46t-17.5 -33t-30 -22t-35 -13.5t-42 -6.5t-42.5 -2.5t-44.5 -0.5
q-26 0 -72 7t-58 12z" />
    <glyph glyph-name="fiveeighths" unicode="&#x215d;" horiz-adv-x="1053" 
d="M37 320l17 107q41 -7 126 -9q53 0 53 29q0 15 -12 19.5t-36 4.5q-49 0 -125 -4l18 245h297l-6 -116h-164l-4 -39q26 8 74 8q115 0 115 -116q0 -45 -15.5 -76t-44.5 -46t-58.5 -20.5t-67.5 -5.5q-118 0 -167 19zM840 158q-4 -3 -10.5 -7t-10 -6.5t-6.5 -7.5t-3 -12
q0 -31 37 -31q15 0 25.5 8.5t10.5 22.5q0 24 -43 33zM847 321q-34 0 -34 -24q0 -13 9 -21.5t15.5 -10.5t20.5 -5q2 3 8 8t8 8t4.5 8.5t2.5 12.5q0 24 -34 24zM951 220q80 -31 80 -112q0 -34 -17.5 -58t-47.5 -35t-58.5 -15.5t-60.5 -4.5q-30 0 -57 4t-59.5 14.5t-51.5 34.5
t-19 60q0 81 80 112q-64 21 -64 93q0 96 171 96q168 0 168 -96q0 -72 -64 -93zM783 700q-264 -597 -309 -700h-209q66 148 308 700h210z" />
    <glyph glyph-name="seveneighths" unicode="&#x215e;" horiz-adv-x="1033" 
d="M266 302h-171q0 169 120 269h-175v132h338v-96q-39 -30 -75.5 -110.5t-36.5 -194.5zM799 158q-4 -3 -10.5 -7t-10 -6.5t-6.5 -7.5t-3 -12q0 -31 37 -31q15 0 25.5 8.5t10.5 22.5q0 24 -43 33zM806 321q-34 0 -34 -24q0 -13 9 -21.5t15.5 -10.5t20.5 -5q2 3 8 8t8 8
t4.5 8.5t2.5 12.5q0 24 -34 24zM910 220q80 -31 80 -112q0 -34 -17.5 -58t-47.5 -35t-58.5 -15.5t-60.5 -4.5q-30 0 -57 4t-59.5 14.5t-51.5 34.5t-19 60q0 81 80 112q-64 21 -64 93q0 96 171 96q168 0 168 -96q0 -72 -64 -93zM739 700q-264 -597 -309 -700h-209
q66 148 308 700h210z" />
    <glyph glyph-name="arrowleft" unicode="&#x2190;" horiz-adv-x="782" 
d="M40 303v54l369 318v-180l-117 -74q53 17 89 17h358v-216h-358q-16 0 -38.5 4.5t-36.5 8.5l-14 4l117 -74v-180z" />
    <glyph glyph-name="arrowup" unicode="&#x2191;" horiz-adv-x="770" 
d="M358 700h54l318 -369h-180l-74 117q17 -53 17 -89v-359h-216v359q0 16 4.5 38.5t8.5 36.5l4 14l-74 -117h-180z" />
    <glyph glyph-name="arrowright" unicode="&#x2192;" horiz-adv-x="782" 
d="M742 357v-54l-369 -318v180l117 74q-53 -16 -89 -17h-358v216h358q16 0 38 -4t37 -8l14 -5l-117 74v180z" />
    <glyph glyph-name="arrowdown" unicode="&#x2193;" horiz-adv-x="770" 
d="M412 0h-54l-318 369h180l74 -117q-16 53 -17 89v359h216v-359q0 -16 -4.5 -38.5t-8.5 -36.5l-4 -14l74 117h180z" />
    <glyph glyph-name="uni2196" unicode="&#x2196;" horiz-adv-x="715" 
d="M62 581l39 39l485 -36l-127 -128l-135 31q50 -26 75 -51l254 -254l-153 -153l-254 254q-11 12 -23.5 30.5t-20.5 31.5l-7 13l31 -135l-128 -127z" />
    <glyph glyph-name="uni2197" unicode="&#x2197;" horiz-adv-x="715" 
d="M614 620l39 -39l-36 -485l-128 127l31 135q-27 -49 -51 -75l-254 -254l-153 153l254 254q11 11 30 24t32 20l13 7l-135 -31l-127 128z" />
    <glyph glyph-name="uni2198" unicode="&#x2198;" horiz-adv-x="715" 
d="M653 120l-39 -39l-485 36l127 128l135 -31q-50 26 -75 51l-254 254l153 153l254 -254q11 -12 23.5 -30.5t19.5 -31.5l8 -13l-31 135l128 127z" />
    <glyph glyph-name="uni2199" unicode="&#x2199;" horiz-adv-x="715" 
d="M101 80l-39 39l36 485l128 -127l-31 -135q27 49 51 75l254 254l153 -153l-254 -254q-11 -11 -30 -24t-32 -20l-13 -7l135 31l127 -128z" />
    <glyph glyph-name="Delta" unicode="&#x2206;" horiz-adv-x="784" 
d="M752 0h-740l210 700h329zM389 457l-77 -287h138z" />
    <glyph glyph-name="product" unicode="&#x220f;" horiz-adv-x="770" 
d="M288 -198h-260v898h690v-898h-260v678h-170v-678z" />
    <glyph glyph-name="summation" unicode="&#x2211;" horiz-adv-x="714" 
d="M85 700h543v-228h-221l179 -183l-218 -261h260v-228h-574v126l304 363l-306 307z" />
    <glyph glyph-name="minus" unicode="&#x2212;" 
d="M80 261v170h500v-170h-500z" />
    <glyph glyph-name="radical" unicode="&#x221a;" horiz-adv-x="769" 
d="M316 500l64 -203l136 403h262l-240 -700h-313l-109 330h-153v170h353z" />
    <glyph glyph-name="infinity" unicode="&#x221e;" 
d="M183 539q30 0 59 -17.5t45 -36t43 -53.5q36 51 69.5 79t80.5 28q78 0 119.5 -54t41.5 -133q0 -75 -43 -130t-119 -55q-38 0 -71.5 26t-73.5 73q-46 -49 -81 -74t-72 -25q-77 0 -119.5 54t-42.5 134q0 74 44.5 129t119.5 55zM189 322q34 0 65 23q-47 36 -67 36
q-15 0 -23.5 -7.5t-8.5 -18.5q0 -14 8.5 -23.5t25.5 -9.5zM469 381q-23 -2 -58 -35q31 -23 63 -23q15 0 23.5 9t8.5 20q0 12 -9.5 20.5t-27.5 8.5z" />
    <glyph glyph-name="approxequal" unicode="&#x2248;" 
d="M79 127l-28 155q85 65 144 65q60 0 129 -25t114 -25q29 0 73 16.5t71 32.5l27 -153q-75 -65 -144 -65q-68 0 -135 24.5t-107 24.5q-18 0 -42 -7t-37.5 -12.5t-39.5 -17.5zM79 352l-28 153q85 65 144 65q60 0 129 -25t114 -25q28 0 72 17t72 34l27 -155q-75 -65 -144 -65
q-68 0 -135 24.5t-107 24.5q-15 0 -31.5 -3.5t-35 -10.5t-29 -11t-29 -13.5t-19.5 -9.5z" />
    <glyph glyph-name="notequal" unicode="&#x2260;" 
d="M80 370v170h254l80 160h180l-80 -160h66v-170h-151l-20 -40h171v-170h-255l-80 -160h-179l79 160h-65v170h150l20 40h-170z" />
    <glyph glyph-name="lessequal" unicode="&#x2264;" 
d="M95 370v115l470 250v-191l-240 -117l240 -117v-191zM95 159v170l470 -250v-170z" />
    <glyph glyph-name="greaterequal" unicode="&#x2265;" 
d="M565 485v-115l-470 -251v191l239 117l-239 117v191zM565 329v-170l-470 -250v170z" />
    <glyph glyph-name="commaaccent" unicode="&#xf6c3;" horiz-adv-x="332" 
d="M36 -46h260v-44q0 -31 -18.5 -59t-46.5 -46t-53 -29.5t-45 -15.5l-68 40q19 5 35 19.5t16 30.5h-80v104z" />
    <glyph glyph-name="Acute" unicode="&#xf6c9;" horiz-adv-x="310" 
d="M36 760l39 140h199l-126 -140h-112z" />
    <glyph glyph-name="Caron" unicode="&#xf6ca;" horiz-adv-x="621" 
d="M418 760h-205l-107 140h167l39 -75l36 75h167z" />
    <glyph glyph-name="Dieresis" unicode="&#xf6cb;" horiz-adv-x="739" 
d="M167 900h171v-140h-171v140zM399 900h172v-140h-172v140z" />
    <glyph glyph-name="Grave" unicode="&#xf6ce;" horiz-adv-x="310" 
d="M235 900l39 -140h-112l-126 140h199z" />
    <glyph glyph-name="Macron" unicode="&#xf6d0;" horiz-adv-x="562" 
d="M32 761v138h418v-138h-418z" />
    <glyph glyph-name="Breve" horiz-adv-x="756" 
d="M159 900h167q0 -32 10.5 -44t45.5 -12t45.5 12t10.5 44h167v-25q0 -35 -17.5 -58.5t-51 -35.5t-69.5 -16.5t-85 -4.5t-85 4.5t-69.5 16.5t-51 35.5t-17.5 58.5v25z" />
    <glyph glyph-name="Circumflex" horiz-adv-x="621" 
d="M203 900h205l107 -140h-167l-39 75l-36 -75h-167z" />
    <glyph glyph-name="Tilde" horiz-adv-x="424" 
d="M72 760l-38 92q62 47 120 47q30 0 64 -14.5t55 -14.5q35 0 75 31l41 -88q-50 -52 -116 -52q-35 0 -70.5 14.5t-53.5 14.5q-43 0 -77 -30z" />
    <glyph glyph-name="Ring" horiz-adv-x="424" 
d="M214 904q70 0 103.5 -28.5t33.5 -74.5t-33.5 -74.5t-103.5 -28.5t-103.5 28.5t-33.5 74.5t33.5 74.5t103.5 28.5zM257 801q0 38 -43 38t-43 -38t43 -38t43 38z" />
    <glyph glyph-name="Dotaccent" horiz-adv-x="316" 
d="M38 900h240v-140h-240v140z" />
    </font>
</defs>
</svg>
